<?xml version="1.0" encoding="utf-8" standalone="no"?>
<!DOCTYPE svg PUBLIC "-//W3C//DTD SVG 1.1//EN"
  "http://www.w3.org/Graphics/SVG/1.1/DTD/svg11.dtd">
<!-- Created with matplotlib (https://matplotlib.org/) -->
<svg height="504pt" version="1.1" viewBox="0 0 936 504" width="936pt" xmlns="http://www.w3.org/2000/svg" xmlns:xlink="http://www.w3.org/1999/xlink">
 <defs>
  <style type="text/css">
*{stroke-linecap:butt;stroke-linejoin:round;}
  </style>
 </defs>
 <g id="figure_1">
  <g id="patch_1">
   <path d="M 0 504 
L 936 504 
L 936 0 
L 0 0 
z
" style="fill:#ffffff;"/>
  </g>
  <g id="axes_1">
   <g id="patch_2">
    <path d="M 64.10625 168.745414 
L 920.508333 168.745414 
L 920.508333 45.266667 
L 64.10625 45.266667 
z
" style="fill:#eaeaf2;"/>
   </g>
   <g id="matplotlib.axis_1">
    <g id="xtick_1">
     <g id="line2d_1">
      <path clip-path="url(#p693bc7ff7e)" d="M 84.024741 168.745414 
L 84.024741 45.266667 
" style="fill:none;stroke:#ffffff;stroke-linecap:round;stroke-width:0.8;"/>
     </g>
    </g>
    <g id="xtick_2">
     <g id="line2d_2">
      <path clip-path="url(#p693bc7ff7e)" d="M 273.923602 168.745414 
L 273.923602 45.266667 
" style="fill:none;stroke:#ffffff;stroke-linecap:round;stroke-width:0.8;"/>
     </g>
    </g>
    <g id="xtick_3">
     <g id="line2d_3">
      <path clip-path="url(#p693bc7ff7e)" d="M 463.822463 168.745414 
L 463.822463 45.266667 
" style="fill:none;stroke:#ffffff;stroke-linecap:round;stroke-width:0.8;"/>
     </g>
    </g>
    <g id="xtick_4">
     <g id="line2d_4">
      <path clip-path="url(#p693bc7ff7e)" d="M 653.721323 168.745414 
L 653.721323 45.266667 
" style="fill:none;stroke:#ffffff;stroke-linecap:round;stroke-width:0.8;"/>
     </g>
    </g>
    <g id="xtick_5">
     <g id="line2d_5">
      <path clip-path="url(#p693bc7ff7e)" d="M 843.620184 168.745414 
L 843.620184 45.266667 
" style="fill:none;stroke:#ffffff;stroke-linecap:round;stroke-width:0.8;"/>
     </g>
    </g>
   </g>
   <g id="matplotlib.axis_2"/>
   <g id="line2d_6">
    <path clip-path="url(#p693bc7ff7e)" d="M 103.033617 131.305784 
L 110.515633 131.052537 
L 129.372589 130.704575 
L 162.452971 130.033064 
L 178.746293 129.488575 
L 189.399619 128.921288 
L 196.824665 128.316008 
L 199.21739 127.96797 
L 200.546682 127.508281 
L 201.800015 126.843013 
L 202.958398 125.975838 
L 204.002842 124.916535 
L 204.971326 123.610564 
L 205.86385 122.021509 
L 206.699405 120.060832 
L 207.477991 117.650692 
L 208.218596 114.618632 
L 208.940212 110.6865 
L 209.642838 105.570985 
L 210.364453 98.560161 
L 211.162029 88.407978 
L 212.719199 67.808124 
L 213.042027 66.148399 
L 213.212936 65.957558 
L 213.231926 65.966889 
L 213.364855 66.202491 
L 213.573744 67.155955 
L 213.896572 69.871709 
L 214.428289 76.598602 
L 216.099399 98.864088 
L 216.877984 105.856962 
L 217.63758 110.764068 
L 218.397175 114.292528 
L 219.175761 116.89644 
L 219.973336 118.810831 
L 220.770911 120.176016 
L 221.587476 121.152165 
L 222.423031 121.811815 
L 223.258586 122.195856 
L 224.113131 122.346898 
L 224.986666 122.273054 
L 225.8602 121.975631 
L 226.752725 121.431145 
L 227.64525 120.615317 
L 228.518784 119.506005 
L 229.373329 118.053063 
L 230.208884 116.185121 
L 231.044439 113.74481 
L 231.861004 110.643162 
L 232.67757 106.641456 
L 233.551104 101.173489 
L 234.614538 92.94855 
L 235.94383 82.88339 
L 236.437567 80.670739 
L 236.760395 80.02637 
L 236.969284 79.985624 
L 237.159183 80.20765 
L 237.425041 80.916753 
L 237.804839 82.647104 
L 238.393525 86.54966 
L 240.97615 105.117558 
L 241.849684 109.242239 
L 242.704229 112.245248 
L 243.539784 114.403884 
L 244.356349 115.934264 
L 245.172915 117.011429 
L 245.97049 117.7066 
L 246.749075 118.09634 
L 247.508671 118.231682 
L 248.268266 118.140806 
L 249.046851 117.816832 
L 249.844427 117.23473 
L 250.660992 116.354662 
L 251.496547 115.118233 
L 252.351091 113.444098 
L 253.224626 111.225201 
L 254.117151 108.333902 
L 255.085635 104.39704 
L 256.263008 98.578043 
L 257.972098 90.153848 
L 258.560784 88.339751 
L 258.959572 87.708791 
L 259.24442 87.592547 
L 259.491289 87.722325 
L 259.795127 88.167393 
L 260.193914 89.18806 
L 260.763611 91.336615 
L 261.751085 96.119246 
L 263.403205 103.988606 
L 264.409669 107.707202 
L 265.340174 110.335216 
L 266.232698 112.211917 
L 267.087243 113.507189 
L 267.903808 114.353818 
L 268.682393 114.849756 
L 269.422999 115.066242 
L 270.144615 115.052481 
L 270.88522 114.814129 
L 271.644816 114.332355 
L 272.442391 113.55781 
L 273.296936 112.401304 
L 274.18946 110.799893 
L 275.138955 108.614969 
L 276.183398 105.614505 
L 277.493701 101.096021 
L 279.33572 94.779 
L 280.019355 93.210799 
L 280.513092 92.571265 
L 280.89289 92.404355 
L 281.215718 92.492472 
L 281.576526 92.834807 
L 282.032283 93.604761 
L 282.63996 95.112701 
L 283.589454 98.152558 
L 285.84925 105.519876 
L 286.912684 108.155557 
L 287.862178 109.949774 
L 288.754703 111.185512 
L 289.590258 111.98157 
L 290.387833 112.443371 
L 291.147429 112.630616 
L 291.888034 112.586655 
L 292.64763 112.314622 
L 293.445205 111.782074 
L 294.28076 110.948599 
L 295.192274 109.709298 
L 296.179748 107.972316 
L 297.300152 105.528407 
L 298.914292 101.396097 
L 300.414493 97.75757 
L 301.174089 96.448153 
L 301.743785 95.856812 
L 302.218532 95.663294 
L 302.63631 95.728041 
L 303.092067 96.043372 
L 303.623784 96.704969 
L 304.32641 97.972317 
L 305.408833 100.456488 
L 307.725599 105.830815 
L 308.827013 107.792338 
L 309.814487 109.118495 
L 310.726001 109.981745 
L 311.561556 110.480861 
L 312.359131 110.707952 
L 313.137717 110.703162 
L 313.935292 110.472312 
L 314.770847 109.989516 
L 315.663372 109.205468 
L 316.650846 108.023475 
L 317.771249 106.312119 
L 319.23347 103.631966 
L 321.398317 99.68362 
L 322.233872 98.616591 
L 322.879528 98.116159 
L 323.430235 97.95012 
L 323.942962 98.020616 
L 324.493669 98.330078 
L 325.139325 98.968141 
L 325.97488 100.137157 
L 327.380131 102.560983 
L 329.29811 105.772383 
L 330.456493 107.288162 
L 331.481947 108.277361 
L 332.412451 108.876058 
L 333.285986 109.180877 
L 334.140531 109.243149 
L 334.995076 109.078118 
L 335.8876 108.670503 
L 336.837095 107.984125 
L 337.900528 106.929309 
L 339.19184 105.310306 
L 342.913858 100.406137 
L 343.711433 99.836054 
L 344.395069 99.610844 
L 345.021735 99.633833 
L 345.667392 99.882033 
L 346.407997 100.417326 
L 347.357491 101.405866 
L 348.990622 103.498821 
L 350.85163 105.768386 
L 352.066983 106.904335 
L 353.111427 107.589903 
L 354.079911 107.969146 
L 355.010415 108.098797 
L 355.94092 108.002274 
L 356.909404 107.670504 
L 357.953848 107.065621 
L 359.131221 106.114124 
L 360.688391 104.539998 
L 363.327986 101.851531 
L 364.33445 101.165147 
L 365.170005 100.85501 
L 365.9296 100.805858 
L 366.689195 100.979638 
L 367.54374 101.415902 
L 368.588184 102.217408 
L 370.392223 103.939912 
L 372.310202 105.660282 
L 373.563534 106.494619 
L 374.683937 106.979607 
L 375.728381 107.19233 
L 376.753835 107.17433 
L 377.798279 106.932584 
L 378.937672 106.432169 
L 380.247974 105.600275 
L 382.184942 104.067636 
L 384.21686 102.537936 
L 385.356253 101.956307 
L 386.305748 101.713575 
L 387.198272 101.71186 
L 388.128777 101.938931 
L 389.19221 102.441971 
L 390.635442 103.397519 
L 393.825743 105.572211 
L 395.155035 106.169515 
L 396.351397 106.466383 
L 397.490791 106.523044 
L 398.649174 106.35808 
L 399.902506 105.948355 
L 401.364727 105.225238 
L 406.302098 102.565104 
L 407.403511 102.359889 
L 408.447955 102.388755 
L 409.549368 102.644195 
L 410.87866 103.1955 
L 413.404315 104.554108 
L 415.284314 105.426876 
L 416.708555 105.847032 
L 418.018857 106.003166 
L 419.31017 105.932738 
L 420.677441 105.632182 
L 422.291582 105.038048 
L 427.323902 102.99881 
L 428.596224 102.841303 
L 429.830567 102.914 
L 431.178848 103.223313 
L 432.982888 103.887924 
L 436.458037 105.198467 
L 438.034197 105.525861 
L 439.496419 105.604727 
L 440.97763 105.461025 
L 442.64874 105.067035 
L 445.212374 104.194957 
L 447.6051 103.467865 
L 449.143281 103.232681 
L 450.567522 103.237495 
L 452.105703 103.472844 
L 454.137621 104.031881 
L 457.764689 105.045485 
L 459.511758 105.277009 
L 461.163879 105.272689 
L 462.929938 105.040255 
L 465.246704 104.488772 
L 468.759833 103.655643 
L 470.506902 103.489658 
L 472.178012 103.556179 
L 474.095991 103.865638 
L 480.229724 105.033067 
L 482.109723 105.051207 
L 484.122651 104.843095 
L 487.104063 104.276445 
L 490.047495 103.790784 
L 492.022443 103.695294 
L 494.016381 103.827895 
L 496.712945 104.254378 
L 500.377993 104.802615 
L 502.58082 104.892527 
L 504.821627 104.755159 
L 508.030917 104.302797 
L 511.354147 103.902722 
L 513.594954 103.864145 
L 516.025659 104.054534 
L 523.070907 104.758451 
L 525.577572 104.674012 
L 529.147671 104.298858 
L 532.774739 103.99141 
L 535.338373 104.006201 
L 538.566654 104.27051 
L 543.219176 104.639694 
L 546.048669 104.620094 
L 549.751697 104.344009 
L 554.062401 104.06943 
L 557.081793 104.118983 
L 567.469261 104.536887 
L 573.565014 104.17948 
L 577.116123 104.142835 
L 581.559756 104.356441 
L 586.288238 104.522453 
L 590.257124 104.417747 
L 597.492271 104.182571 
L 602.125803 104.332463 
L 607.841758 104.477053 
L 612.874078 104.337672 
L 618.741953 104.222653 
L 624.894676 104.390382 
L 630.268814 104.42914 
L 643.751633 104.325506 
L 651.157689 104.408805 
L 654.442939 104.480481 
L 655.145565 104.834873 
L 655.98112 105.523677 
L 657.044553 106.713157 
L 658.943542 109.241791 
L 661.146369 112.050936 
L 662.684549 113.65506 
L 664.108791 114.826284 
L 665.495052 115.683768 
L 666.881314 116.283658 
L 668.286566 116.652523 
L 669.729797 116.802543 
L 671.211008 116.733526 
L 672.749189 116.436711 
L 674.32535 115.904887 
L 675.97747 115.110231 
L 677.762519 113.998296 
L 679.889386 112.394998 
L 684.352009 108.942831 
L 685.662311 108.267492 
L 686.782715 107.933016 
L 687.827158 107.850641 
L 688.871602 107.991225 
L 690.010995 108.374478 
L 691.378267 109.08194 
L 693.467155 110.449647 
L 696.733415 112.559997 
L 698.613414 113.4958 
L 700.341493 114.110255 
L 702.031593 114.475112 
L 703.721693 114.612208 
L 705.449773 114.529379 
L 707.272802 114.21629 
L 709.24775 113.645978 
L 711.583506 112.728061 
L 717.945118 110.082225 
L 719.597238 109.735422 
L 721.116429 109.642575 
L 722.65461 109.772805 
L 724.382689 110.15059 
L 726.699455 110.907318 
L 731.845714 112.646423 
L 734.105511 113.130672 
L 736.232378 113.358701 
L 738.359245 113.362362 
L 740.619042 113.139763 
L 743.201666 112.653635 
L 747.702269 111.525343 
L 750.759641 110.885446 
L 753.000447 110.641774 
L 755.127315 110.634993 
L 757.425091 110.85723 
L 760.501452 111.399958 
L 766.103469 112.405369 
L 768.932962 112.658836 
L 771.667505 112.679221 
L 774.629928 112.472888 
L 778.655783 111.946258 
L 783.953962 111.282569 
L 786.954364 111.144882 
L 789.954766 111.235165 
L 793.847692 111.595598 
L 800.551122 112.22293 
L 804.1592 112.307144 
L 807.976168 112.167012 
L 821.421007 111.448172 
L 825.97858 111.629409 
L 835.777361 112.085295 
L 840.657761 112.024909 
L 856.191488 111.632708 
L 875.523192 111.89453 
L 881.580966 111.748225 
L 881.580966 111.748225 
" style="fill:none;stroke:#102f31;stroke-linecap:round;stroke-width:2;"/>
   </g>
   <g id="line2d_7">
    <path d="M 64.10625 110.136986 
L 920.508333 110.136986 
" style="fill:none;stroke:#102f31;stroke-linecap:round;stroke-width:2;"/>
   </g>
   <g id="text_1">
    <!-- r -->
    <defs>
     <path d="M 49.03125 39.796875 
Q 46.734375 40.875 44.453125 41.375 
Q 42.1875 41.890625 39.890625 41.890625 
Q 33.15625 41.890625 29.515625 37.5625 
Q 25.875 33.25 25.875 25.203125 
L 25.875 0 
L 8.40625 0 
L 8.40625 54.6875 
L 25.875 54.6875 
L 25.875 45.703125 
Q 29.25 51.078125 33.609375 53.53125 
Q 37.984375 56 44.09375 56 
Q 44.96875 56 45.984375 55.921875 
Q 47.015625 55.859375 48.96875 55.609375 
z
" id="DejaVuSans-Bold-114"/>
    </defs>
    <g style="fill:#102f31;" transform="translate(64.10625 164.123789)scale(0.28 -0.28)">
     <use xlink:href="#DejaVuSans-Bold-114"/>
    </g>
   </g>
   <g id="text_2">
    <!-- Constant input -->
    <defs>
     <path d="M 67 4 
Q 61.8125 1.3125 56.203125 -0.046875 
Q 50.59375 -1.421875 44.484375 -1.421875 
Q 26.265625 -1.421875 15.625 8.765625 
Q 4.984375 18.953125 4.984375 36.375 
Q 4.984375 53.859375 15.625 64.03125 
Q 26.265625 74.21875 44.484375 74.21875 
Q 50.59375 74.21875 56.203125 72.84375 
Q 61.8125 71.484375 67 68.796875 
L 67 53.71875 
Q 61.765625 57.28125 56.6875 58.9375 
Q 51.609375 60.59375 46 60.59375 
Q 35.9375 60.59375 30.171875 54.140625 
Q 24.421875 47.703125 24.421875 36.375 
Q 24.421875 25.09375 30.171875 18.640625 
Q 35.9375 12.203125 46 12.203125 
Q 51.609375 12.203125 56.6875 13.859375 
Q 61.765625 15.53125 67 19.09375 
z
" id="DejaVuSans-Bold-67"/>
     <path d="M 34.421875 43.5 
Q 28.609375 43.5 25.5625 39.328125 
Q 22.515625 35.15625 22.515625 27.296875 
Q 22.515625 19.4375 25.5625 15.25 
Q 28.609375 11.078125 34.421875 11.078125 
Q 40.140625 11.078125 43.15625 15.25 
Q 46.1875 19.4375 46.1875 27.296875 
Q 46.1875 35.15625 43.15625 39.328125 
Q 40.140625 43.5 34.421875 43.5 
z
M 34.421875 56 
Q 48.53125 56 56.46875 48.375 
Q 64.40625 40.765625 64.40625 27.296875 
Q 64.40625 13.8125 56.46875 6.1875 
Q 48.53125 -1.421875 34.421875 -1.421875 
Q 20.265625 -1.421875 12.28125 6.1875 
Q 4.296875 13.8125 4.296875 27.296875 
Q 4.296875 40.765625 12.28125 48.375 
Q 20.265625 56 34.421875 56 
z
" id="DejaVuSans-Bold-111"/>
     <path d="M 63.375 33.296875 
L 63.375 0 
L 45.796875 0 
L 45.796875 5.421875 
L 45.796875 25.484375 
Q 45.796875 32.5625 45.484375 35.25 
Q 45.171875 37.9375 44.390625 39.203125 
Q 43.359375 40.921875 41.59375 41.875 
Q 39.84375 42.828125 37.59375 42.828125 
Q 32.125 42.828125 29 38.59375 
Q 25.875 34.375 25.875 26.90625 
L 25.875 0 
L 8.40625 0 
L 8.40625 54.6875 
L 25.875 54.6875 
L 25.875 46.6875 
Q 29.828125 51.46875 34.265625 53.734375 
Q 38.71875 56 44.09375 56 
Q 53.5625 56 58.46875 50.1875 
Q 63.375 44.390625 63.375 33.296875 
z
" id="DejaVuSans-Bold-110"/>
     <path d="M 51.125 52.984375 
L 51.125 39.703125 
Q 45.515625 42.046875 40.28125 43.21875 
Q 35.0625 44.390625 30.421875 44.390625 
Q 25.4375 44.390625 23.015625 43.140625 
Q 20.609375 41.890625 20.609375 39.3125 
Q 20.609375 37.203125 22.4375 36.078125 
Q 24.265625 34.96875 29 34.421875 
L 32.078125 33.984375 
Q 45.515625 32.28125 50.140625 28.375 
Q 54.78125 24.46875 54.78125 16.109375 
Q 54.78125 7.375 48.328125 2.96875 
Q 41.890625 -1.421875 29.109375 -1.421875 
Q 23.6875 -1.421875 17.890625 -0.5625 
Q 12.109375 0.296875 6 2 
L 6 15.28125 
Q 11.234375 12.75 16.71875 11.46875 
Q 22.21875 10.203125 27.875 10.203125 
Q 33.015625 10.203125 35.59375 11.609375 
Q 38.1875 13.03125 38.1875 15.828125 
Q 38.1875 18.171875 36.40625 19.3125 
Q 34.625 20.453125 29.296875 21.09375 
L 26.21875 21.484375 
Q 14.546875 22.953125 9.859375 26.90625 
Q 5.171875 30.859375 5.171875 38.921875 
Q 5.171875 47.609375 11.125 51.796875 
Q 17.09375 56 29.390625 56 
Q 34.234375 56 39.546875 55.265625 
Q 44.875 54.546875 51.125 52.984375 
z
" id="DejaVuSans-Bold-115"/>
     <path d="M 27.484375 70.21875 
L 27.484375 54.6875 
L 45.515625 54.6875 
L 45.515625 42.1875 
L 27.484375 42.1875 
L 27.484375 19 
Q 27.484375 15.1875 29 13.84375 
Q 30.515625 12.5 35.015625 12.5 
L 44 12.5 
L 44 0 
L 29 0 
Q 18.65625 0 14.328125 4.3125 
Q 10.015625 8.640625 10.015625 19 
L 10.015625 42.1875 
L 1.3125 42.1875 
L 1.3125 54.6875 
L 10.015625 54.6875 
L 10.015625 70.21875 
z
" id="DejaVuSans-Bold-116"/>
     <path d="M 32.90625 24.609375 
Q 27.4375 24.609375 24.671875 22.75 
Q 21.921875 20.90625 21.921875 17.28125 
Q 21.921875 13.96875 24.140625 12.078125 
Q 26.375 10.203125 30.328125 10.203125 
Q 35.25 10.203125 38.625 13.734375 
Q 42 17.28125 42 22.609375 
L 42 24.609375 
z
M 59.625 31.203125 
L 59.625 0 
L 42 0 
L 42 8.109375 
Q 38.484375 3.125 34.078125 0.84375 
Q 29.6875 -1.421875 23.390625 -1.421875 
Q 14.890625 -1.421875 9.59375 3.53125 
Q 4.296875 8.5 4.296875 16.40625 
Q 4.296875 26.03125 10.90625 30.515625 
Q 17.53125 35.015625 31.6875 35.015625 
L 42 35.015625 
L 42 36.375 
Q 42 40.53125 38.71875 42.453125 
Q 35.453125 44.390625 28.515625 44.390625 
Q 22.90625 44.390625 18.0625 43.265625 
Q 13.234375 42.140625 9.078125 39.890625 
L 9.078125 53.21875 
Q 14.703125 54.59375 20.359375 55.296875 
Q 26.03125 56 31.6875 56 
Q 46.484375 56 53.046875 50.171875 
Q 59.625 44.34375 59.625 31.203125 
z
" id="DejaVuSans-Bold-97"/>
     <path id="DejaVuSans-Bold-32"/>
     <path d="M 8.40625 54.6875 
L 25.875 54.6875 
L 25.875 0 
L 8.40625 0 
z
M 8.40625 75.984375 
L 25.875 75.984375 
L 25.875 61.71875 
L 8.40625 61.71875 
z
" id="DejaVuSans-Bold-105"/>
     <path d="M 25.875 7.90625 
L 25.875 -20.796875 
L 8.40625 -20.796875 
L 8.40625 54.6875 
L 25.875 54.6875 
L 25.875 46.6875 
Q 29.5 51.46875 33.890625 53.734375 
Q 38.28125 56 44 56 
Q 54.109375 56 60.59375 47.96875 
Q 67.09375 39.9375 67.09375 27.296875 
Q 67.09375 14.65625 60.59375 6.609375 
Q 54.109375 -1.421875 44 -1.421875 
Q 38.28125 -1.421875 33.890625 0.84375 
Q 29.5 3.125 25.875 7.90625 
z
M 37.5 43.3125 
Q 31.890625 43.3125 28.875 39.1875 
Q 25.875 35.0625 25.875 27.296875 
Q 25.875 19.53125 28.875 15.40625 
Q 31.890625 11.28125 37.5 11.28125 
Q 43.109375 11.28125 46.0625 15.375 
Q 49.03125 19.484375 49.03125 27.296875 
Q 49.03125 35.109375 46.0625 39.203125 
Q 43.109375 43.3125 37.5 43.3125 
z
" id="DejaVuSans-Bold-112"/>
     <path d="M 7.8125 21.296875 
L 7.8125 54.6875 
L 25.390625 54.6875 
L 25.390625 49.21875 
Q 25.390625 44.78125 25.34375 38.0625 
Q 25.296875 31.34375 25.296875 29.109375 
Q 25.296875 22.515625 25.640625 19.609375 
Q 25.984375 16.703125 26.8125 15.375 
Q 27.875 13.671875 29.609375 12.734375 
Q 31.34375 11.8125 33.59375 11.8125 
Q 39.0625 11.8125 42.1875 16.015625 
Q 45.3125 20.21875 45.3125 27.6875 
L 45.3125 54.6875 
L 62.796875 54.6875 
L 62.796875 0 
L 45.3125 0 
L 45.3125 7.90625 
Q 41.359375 3.125 36.9375 0.84375 
Q 32.515625 -1.421875 27.203125 -1.421875 
Q 17.71875 -1.421875 12.765625 4.390625 
Q 7.8125 10.203125 7.8125 21.296875 
z
" id="DejaVuSans-Bold-117"/>
    </defs>
    <g style="fill:#262626;" transform="translate(375.000417 25.266667)scale(0.28 -0.28)">
     <use xlink:href="#DejaVuSans-Bold-67"/>
     <use x="73.388672" xlink:href="#DejaVuSans-Bold-111"/>
     <use x="142.089844" xlink:href="#DejaVuSans-Bold-110"/>
     <use x="213.28125" xlink:href="#DejaVuSans-Bold-115"/>
     <use x="272.802734" xlink:href="#DejaVuSans-Bold-116"/>
     <use x="320.605469" xlink:href="#DejaVuSans-Bold-97"/>
     <use x="388.085938" xlink:href="#DejaVuSans-Bold-110"/>
     <use x="459.277344" xlink:href="#DejaVuSans-Bold-116"/>
     <use x="507.080078" xlink:href="#DejaVuSans-Bold-32"/>
     <use x="541.894531" xlink:href="#DejaVuSans-Bold-105"/>
     <use x="576.171875" xlink:href="#DejaVuSans-Bold-110"/>
     <use x="647.363281" xlink:href="#DejaVuSans-Bold-112"/>
     <use x="718.945312" xlink:href="#DejaVuSans-Bold-117"/>
     <use x="790.136719" xlink:href="#DejaVuSans-Bold-116"/>
    </g>
   </g>
  </g>
  <g id="axes_2">
   <g id="patch_3">
    <path d="M 64.10625 290.989374 
L 920.508333 290.989374 
L 920.508333 167.510626 
L 64.10625 167.510626 
z
" style="fill:#eaeaf2;"/>
   </g>
   <g id="matplotlib.axis_3">
    <g id="xtick_6">
     <g id="line2d_8">
      <path clip-path="url(#p5ff2c37b6c)" d="M 84.024741 290.989374 
L 84.024741 167.510626 
" style="fill:none;stroke:#ffffff;stroke-linecap:round;stroke-width:0.8;"/>
     </g>
    </g>
    <g id="xtick_7">
     <g id="line2d_9">
      <path clip-path="url(#p5ff2c37b6c)" d="M 273.923602 290.989374 
L 273.923602 167.510626 
" style="fill:none;stroke:#ffffff;stroke-linecap:round;stroke-width:0.8;"/>
     </g>
    </g>
    <g id="xtick_8">
     <g id="line2d_10">
      <path clip-path="url(#p5ff2c37b6c)" d="M 463.822463 290.989374 
L 463.822463 167.510626 
" style="fill:none;stroke:#ffffff;stroke-linecap:round;stroke-width:0.8;"/>
     </g>
    </g>
    <g id="xtick_9">
     <g id="line2d_11">
      <path clip-path="url(#p5ff2c37b6c)" d="M 653.721323 290.989374 
L 653.721323 167.510626 
" style="fill:none;stroke:#ffffff;stroke-linecap:round;stroke-width:0.8;"/>
     </g>
    </g>
    <g id="xtick_10">
     <g id="line2d_12">
      <path clip-path="url(#p5ff2c37b6c)" d="M 843.620184 290.989374 
L 843.620184 167.510626 
" style="fill:none;stroke:#ffffff;stroke-linecap:round;stroke-width:0.8;"/>
     </g>
    </g>
   </g>
   <g id="matplotlib.axis_4"/>
   <g id="line2d_13">
    <path clip-path="url(#p5ff2c37b6c)" d="M 103.033617 245.588975 
L 106.394827 245.69408 
L 111.199268 245.604324 
L 119.497849 245.197174 
L 138.601674 243.998727 
L 155.90146 242.72318 
L 167.751149 241.632645 
L 176.638416 240.601727 
L 183.778613 239.559153 
L 189.665478 238.480948 
L 194.564868 237.363206 
L 197.964058 236.418485 
L 202.844459 219.540089 
L 204.30668 213.384406 
L 205.597992 206.975908 
L 206.813345 199.783454 
L 208.047687 191.080595 
L 210.383443 174.112014 
L 210.725261 173.179836 
L 210.89617 173.154576 
L 211.048089 173.445615 
L 211.256978 174.419953 
L 211.541826 177.041363 
L 211.883644 182.578082 
L 212.301422 193.436597 
L 212.852128 214.299581 
L 214.25738 270.433182 
L 214.732127 280.128985 
L 215.111925 284.049235 
L 215.415763 285.26604 
L 215.586672 285.368215 
L 215.738591 285.175607 
L 215.98546 284.403643 
L 216.384247 282.291096 
L 217.105863 277.036666 
L 219.574548 258.391875 
L 220.92283 250.236413 
L 222.404041 242.641304 
L 224.30303 234.130782 
L 229.069491 213.269361 
L 231.139389 202.724883 
L 232.715549 195.045221 
L 233.342216 192.980762 
L 233.722013 192.356613 
L 233.949892 192.302798 
L 234.158781 192.512912 
L 234.405649 193.13494 
L 234.728477 194.6617 
L 235.108275 197.662287 
L 235.564032 203.192972 
L 236.133729 213.070144 
L 237.121203 235.018009 
L 238.032717 253.258398 
L 238.621404 260.998441 
L 239.096151 264.680894 
L 239.494939 266.245741 
L 239.779787 266.663369 
L 239.988676 266.664019 
L 240.216554 266.417736 
L 240.558372 265.656159 
L 241.071099 263.871872 
L 241.906654 260.024736 
L 246.654126 236.844118 
L 249.920386 223.073184 
L 253.889272 206.982355 
L 254.724827 204.53054 
L 255.256544 203.556143 
L 255.617352 203.274838 
L 255.88321 203.31434 
L 256.149069 203.598792 
L 256.471897 204.320031 
L 256.851694 205.766123 
L 257.307452 208.449302 
L 257.858158 213.139291 
L 258.579774 221.433061 
L 260.839571 249.040595 
L 261.428257 253.057367 
L 261.921994 255.079407 
L 262.320782 255.919638 
L 262.64361 256.157428 
L 262.909468 256.100184 
L 263.232296 255.771161 
L 263.669064 254.958669 
L 264.29573 253.25341 
L 265.264214 249.871095 
L 267.429061 241.254922 
L 270.9232 227.66198 
L 273.695723 217.683026 
L 275.025015 213.625067 
L 275.86057 211.703405 
L 276.449257 210.837102 
L 276.867034 210.555201 
L 277.208852 210.575759 
L 277.53168 210.834231 
L 277.892488 211.431054 
L 278.329256 212.632839 
L 278.841983 214.762244 
L 279.468649 218.423605 
L 280.285214 224.668037 
L 282.58299 243.097298 
L 283.247636 246.40448 
L 283.798343 248.156489 
L 284.2541 248.97325 
L 284.633898 249.264501 
L 284.975716 249.262123 
L 285.336524 249.024912 
L 285.792281 248.436876 
L 286.399957 247.260035 
L 287.254502 245.077345 
L 288.602784 240.945902 
L 294.983386 220.649102 
L 296.122779 217.939674 
L 296.939344 216.522054 
L 297.54702 215.876144 
L 298.002778 215.682232 
L 298.401565 215.752365 
L 298.800353 216.073688 
L 299.23712 216.740623 
L 299.749847 217.970919 
L 300.357523 220.064862 
L 301.117119 223.569735 
L 302.275502 230.144841 
L 303.756713 238.271058 
L 304.554288 241.46066 
L 305.199944 243.202709 
L 305.731661 244.07021 
L 306.187418 244.435397 
L 306.605196 244.494625 
L 307.022973 244.321911 
L 307.51671 243.861699 
L 308.143377 242.952038 
L 308.978932 241.316779 
L 310.175295 238.441284 
L 312.435091 232.309188 
L 315.074685 225.340913 
L 316.441957 222.326859 
L 317.410441 220.68835 
L 318.151047 219.841222 
L 318.720743 219.495603 
L 319.19549 219.447103 
L 319.651248 219.62984 
L 320.125995 220.078785 
L 320.657712 220.910828 
L 321.284378 222.340473 
L 322.043973 224.673102 
L 323.126397 228.815159 
L 325.139325 236.573568 
L 325.97488 238.872086 
L 326.639526 240.114732 
L 327.209222 240.757194 
L 327.721949 241.019411 
L 328.196696 241.018628 
L 328.709423 240.784442 
L 329.3171 240.238412 
L 330.076695 239.225921 
L 331.083159 237.473717 
L 332.56437 234.393348 
L 336.609216 225.773579 
L 337.767599 223.908558 
L 338.641134 222.891994 
L 339.343759 222.392861 
L 339.932446 222.235211 
L 340.464163 222.322069 
L 340.99588 222.643225 
L 341.584566 223.282522 
L 342.249212 224.358775 
L 343.065777 226.146101 
L 344.20517 229.247896 
L 346.351027 235.137091 
L 347.224562 236.8626 
L 347.946178 237.831718 
L 348.572844 238.323578 
L 349.142541 238.498984 
L 349.712237 238.436039 
L 350.319914 238.135486 
L 351.041529 237.513109 
L 351.934054 236.42839 
L 353.149407 234.565597 
L 355.428193 230.564122 
L 357.384151 227.328551 
L 358.580514 225.75469 
L 359.492029 224.892627 
L 360.251624 224.460837 
L 360.91627 224.333037 
L 361.523946 224.441246 
L 362.150613 224.789867 
L 362.834249 225.445829 
L 363.612834 226.521168 
L 364.600308 228.293406 
L 368.151417 235.061128 
L 368.967982 235.96374 
L 369.670608 236.429875 
L 370.316264 236.606206 
L 370.96192 236.555761 
L 371.664546 236.26956 
L 372.481111 235.679558 
L 373.487575 234.655384 
L 374.873836 232.89453 
L 378.861712 227.646696 
L 379.963126 226.650851 
L 380.85565 226.129947 
L 381.634236 225.927403 
L 382.336862 225.968419 
L 383.039487 226.232199 
L 383.799083 226.765932 
L 384.672618 227.671905 
L 385.793021 229.18661 
L 389.040291 233.789941 
L 389.951806 234.603361 
L 390.749381 235.034342 
L 391.508976 235.194931 
L 392.268572 235.12356 
L 393.085137 234.814919 
L 394.034631 234.203693 
L 395.230994 233.147246 
L 397.167963 231.088083 
L 399.408769 228.793314 
L 400.643112 227.838048 
L 401.649576 227.328439 
L 402.52311 227.126943 
L 403.339675 227.163261 
L 404.156241 227.424096 
L 405.029775 227.94211 
L 406.055229 228.821011 
L 407.55543 230.440076 
L 409.682297 232.697474 
L 410.764721 233.521558 
L 411.695225 233.961019 
L 412.56876 234.129229 
L 413.442295 234.067275 
L 414.372799 233.773414 
L 415.455223 233.18835 
L 416.860474 232.157129 
L 421.228148 228.771692 
L 422.386531 228.250898 
L 423.392995 228.03739 
L 424.342489 228.064577 
L 425.291984 228.318675 
L 426.317438 228.829384 
L 427.58976 229.729826 
L 431.558646 232.734629 
L 432.64107 233.166468 
L 433.647534 233.328726 
L 434.653998 233.262133 
L 435.736421 232.961698 
L 437.027733 232.358146 
L 438.907732 231.200599 
L 441.661266 229.531905 
L 443.028537 228.973634 
L 444.18692 228.73481 
L 445.269344 228.736245 
L 446.370757 228.964925 
L 447.58611 229.455741 
L 449.18126 230.36315 
L 452.162673 232.08803 
L 453.434995 232.540341 
L 454.593378 232.719608 
L 455.751761 232.670376 
L 457.005093 232.385837 
L 458.524284 231.796889 
L 464.050341 229.420164 
L 465.360643 229.236099 
L 466.594986 229.285974 
L 467.886298 229.564349 
L 469.424479 230.137158 
L 474.095991 232.046254 
L 475.444273 232.253912 
L 476.773565 232.230644 
L 478.197806 231.977112 
L 479.982856 231.417458 
L 484.635378 229.845471 
L 486.154569 229.637227 
L 487.57881 229.665771 
L 489.079011 229.923676 
L 490.95901 230.489738 
L 494.756987 231.681961 
L 496.333148 231.903869 
L 497.852338 231.892226 
L 499.504458 231.649828 
L 501.726275 231.075863 
L 505.353343 230.137048 
L 507.119403 229.933259 
L 508.752533 229.96862 
L 510.518592 230.235529 
L 513.177176 230.898624 
L 515.85475 231.491203 
L 517.65879 231.65944 
L 519.424849 231.597386 
L 521.456767 231.29257 
L 527.780399 230.171506 
L 529.660398 230.177213 
L 531.692315 230.41212 
L 538.851502 231.465869 
L 540.90241 231.37911 
L 543.466045 231.029902 
L 548.080587 230.377645 
L 550.264424 230.326497 
L 552.5622 230.503234 
L 560.329064 231.31655 
L 562.759769 231.181422 
L 571.476127 230.459447 
L 574.21067 230.649972 
L 580.705211 231.201905 
L 583.420765 231.125921 
L 587.997327 230.717613 
L 591.301568 230.547823 
L 594.22601 230.629424 
L 603.550044 231.095611 
L 607.480951 230.857596 
L 612.152463 230.623184 
L 615.513672 230.697349 
L 624.457909 231.038841 
L 629.110431 230.821686 
L 633.800933 230.676826 
L 637.921738 230.796571 
L 644.587188 231.003706 
L 649.27769 230.864366 
L 653.721323 230.73066 
L 655.544352 235.972394 
L 656.569806 238.263957 
L 657.424351 239.666 
L 658.183946 240.514153 
L 658.886572 240.98617 
L 659.570208 241.189007 
L 660.291824 241.168663 
L 661.089399 240.917177 
L 662.057883 240.364194 
L 663.311216 239.370897 
L 665.153235 237.594494 
L 674.097471 228.606953 
L 676.167368 226.95371 
L 677.743529 225.961644 
L 679.034841 225.400933 
L 680.136255 225.158726 
L 681.123729 225.165952 
L 682.054233 225.394092 
L 682.984738 225.853841 
L 683.972212 226.598772 
L 685.073625 227.719725 
L 686.478877 229.493071 
L 690.314834 234.513858 
L 691.473217 235.573618 
L 692.51766 236.239168 
L 693.505134 236.612831 
L 694.511598 236.755653 
L 695.575032 236.677987 
L 696.771395 236.360111 
L 698.195636 235.741354 
L 700.056645 234.674511 
L 703.322906 232.496227 
L 706.949974 230.160979 
L 709.076841 229.051685 
L 710.785931 228.402268 
L 712.267142 228.071563 
L 713.615424 227.995166 
L 714.906736 228.1445 
L 716.217038 228.524668 
L 717.62229 229.17102 
L 719.331379 230.216339 
L 724.344709 233.448896 
L 725.82592 234.040916 
L 727.212182 234.358489 
L 728.617434 234.45063 
L 730.117635 234.321646 
L 731.826724 233.944317 
L 733.972582 233.230137 
L 738.093387 231.56203 
L 741.169748 230.442995 
L 743.334595 229.886497 
L 745.214594 229.628948 
L 746.980654 229.611906 
L 748.746713 229.821384 
L 750.664691 230.281016 
L 753.190346 231.136567 
L 757.406101 232.571849 
L 759.457009 233.009426 
L 761.355997 233.188559 
L 763.330945 233.147865 
L 765.552762 232.871583 
L 768.477205 232.265459 
L 775.161644 230.809738 
L 777.687299 230.535905 
L 780.023055 230.506015 
L 782.415781 230.700583 
L 785.321233 231.173143 
L 791.948704 232.329328 
L 794.569308 232.501234 
L 797.227892 232.449952 
L 800.399203 232.154071 
L 810.596772 231.02516 
L 813.692123 231.022874 
L 817.110303 231.25135 
L 827.53575 232.117437 
L 831.124839 232.066207 
L 835.92928 231.750851 
L 842.860588 231.31626 
L 847.000383 231.300275 
L 851.937754 231.522071 
L 860.122395 231.900022 
L 864.926836 231.8614 
L 881.580966 231.475625 
L 881.580966 231.475625 
" style="fill:none;stroke:#265a58;stroke-linecap:round;stroke-width:2;"/>
   </g>
   <g id="line2d_14">
    <path d="M 64.10625 232.380946 
L 920.508333 232.380946 
" style="fill:none;stroke:#265a58;stroke-linecap:round;stroke-width:2;"/>
   </g>
   <g id="text_3">
    <!-- v -->
    <defs>
     <path d="M 1.515625 54.6875 
L 19 54.6875 
L 32.625 16.890625 
L 46.1875 54.6875 
L 63.71875 54.6875 
L 42.1875 0 
L 23 0 
z
" id="DejaVuSans-Bold-118"/>
    </defs>
    <g style="fill:#265a58;" transform="translate(64.10625 286.367749)scale(0.28 -0.28)">
     <use xlink:href="#DejaVuSans-Bold-118"/>
    </g>
   </g>
  </g>
  <g id="axes_3">
   <g id="patch_4">
    <path d="M 64.10625 413.233333 
L 920.508333 413.233333 
L 920.508333 289.754586 
L 64.10625 289.754586 
z
" style="fill:#eaeaf2;"/>
   </g>
   <g id="matplotlib.axis_5">
    <g id="xtick_11">
     <g id="line2d_15">
      <path clip-path="url(#p63cf212984)" d="M 84.024741 413.233333 
L 84.024741 289.754586 
" style="fill:none;stroke:#ffffff;stroke-linecap:round;stroke-width:0.8;"/>
     </g>
     <g id="text_4">
      <!-- 0 -->
      <defs>
       <path d="M 31.78125 66.40625 
Q 24.171875 66.40625 20.328125 58.90625 
Q 16.5 51.421875 16.5 36.375 
Q 16.5 21.390625 20.328125 13.890625 
Q 24.171875 6.390625 31.78125 6.390625 
Q 39.453125 6.390625 43.28125 13.890625 
Q 47.125 21.390625 47.125 36.375 
Q 47.125 51.421875 43.28125 58.90625 
Q 39.453125 66.40625 31.78125 66.40625 
z
M 31.78125 74.21875 
Q 44.046875 74.21875 50.515625 64.515625 
Q 56.984375 54.828125 56.984375 36.375 
Q 56.984375 17.96875 50.515625 8.265625 
Q 44.046875 -1.421875 31.78125 -1.421875 
Q 19.53125 -1.421875 13.0625 8.265625 
Q 6.59375 17.96875 6.59375 36.375 
Q 6.59375 54.828125 13.0625 64.515625 
Q 19.53125 74.21875 31.78125 74.21875 
z
" id="DejaVuSans-48"/>
      </defs>
      <g style="fill:#262626;" transform="translate(75.117241 441.508958)scale(0.28 -0.28)">
       <use xlink:href="#DejaVuSans-48"/>
      </g>
     </g>
    </g>
    <g id="xtick_12">
     <g id="line2d_16">
      <path clip-path="url(#p63cf212984)" d="M 273.923602 413.233333 
L 273.923602 289.754586 
" style="fill:none;stroke:#ffffff;stroke-linecap:round;stroke-width:0.8;"/>
     </g>
     <g id="text_5">
      <!-- 10 -->
      <defs>
       <path d="M 12.40625 8.296875 
L 28.515625 8.296875 
L 28.515625 63.921875 
L 10.984375 60.40625 
L 10.984375 69.390625 
L 28.421875 72.90625 
L 38.28125 72.90625 
L 38.28125 8.296875 
L 54.390625 8.296875 
L 54.390625 0 
L 12.40625 0 
z
" id="DejaVuSans-49"/>
      </defs>
      <g style="fill:#262626;" transform="translate(256.108602 441.508958)scale(0.28 -0.28)">
       <use xlink:href="#DejaVuSans-49"/>
       <use x="63.623047" xlink:href="#DejaVuSans-48"/>
      </g>
     </g>
    </g>
    <g id="xtick_13">
     <g id="line2d_17">
      <path clip-path="url(#p63cf212984)" d="M 463.822463 413.233333 
L 463.822463 289.754586 
" style="fill:none;stroke:#ffffff;stroke-linecap:round;stroke-width:0.8;"/>
     </g>
     <g id="text_6">
      <!-- 20 -->
      <defs>
       <path d="M 19.1875 8.296875 
L 53.609375 8.296875 
L 53.609375 0 
L 7.328125 0 
L 7.328125 8.296875 
Q 12.9375 14.109375 22.625 23.890625 
Q 32.328125 33.6875 34.8125 36.53125 
Q 39.546875 41.84375 41.421875 45.53125 
Q 43.3125 49.21875 43.3125 52.78125 
Q 43.3125 58.59375 39.234375 62.25 
Q 35.15625 65.921875 28.609375 65.921875 
Q 23.96875 65.921875 18.8125 64.3125 
Q 13.671875 62.703125 7.8125 59.421875 
L 7.8125 69.390625 
Q 13.765625 71.78125 18.9375 73 
Q 24.125 74.21875 28.421875 74.21875 
Q 39.75 74.21875 46.484375 68.546875 
Q 53.21875 62.890625 53.21875 53.421875 
Q 53.21875 48.921875 51.53125 44.890625 
Q 49.859375 40.875 45.40625 35.40625 
Q 44.1875 33.984375 37.640625 27.21875 
Q 31.109375 20.453125 19.1875 8.296875 
z
" id="DejaVuSans-50"/>
      </defs>
      <g style="fill:#262626;" transform="translate(446.007463 441.508958)scale(0.28 -0.28)">
       <use xlink:href="#DejaVuSans-50"/>
       <use x="63.623047" xlink:href="#DejaVuSans-48"/>
      </g>
     </g>
    </g>
    <g id="xtick_14">
     <g id="line2d_18">
      <path clip-path="url(#p63cf212984)" d="M 653.721323 413.233333 
L 653.721323 289.754586 
" style="fill:none;stroke:#ffffff;stroke-linecap:round;stroke-width:0.8;"/>
     </g>
     <g id="text_7">
      <!-- 30 -->
      <defs>
       <path d="M 40.578125 39.3125 
Q 47.65625 37.796875 51.625 33 
Q 55.609375 28.21875 55.609375 21.1875 
Q 55.609375 10.40625 48.1875 4.484375 
Q 40.765625 -1.421875 27.09375 -1.421875 
Q 22.515625 -1.421875 17.65625 -0.515625 
Q 12.796875 0.390625 7.625 2.203125 
L 7.625 11.71875 
Q 11.71875 9.328125 16.59375 8.109375 
Q 21.484375 6.890625 26.8125 6.890625 
Q 36.078125 6.890625 40.9375 10.546875 
Q 45.796875 14.203125 45.796875 21.1875 
Q 45.796875 27.640625 41.28125 31.265625 
Q 36.765625 34.90625 28.71875 34.90625 
L 20.21875 34.90625 
L 20.21875 43.015625 
L 29.109375 43.015625 
Q 36.375 43.015625 40.234375 45.921875 
Q 44.09375 48.828125 44.09375 54.296875 
Q 44.09375 59.90625 40.109375 62.90625 
Q 36.140625 65.921875 28.71875 65.921875 
Q 24.65625 65.921875 20.015625 65.03125 
Q 15.375 64.15625 9.8125 62.3125 
L 9.8125 71.09375 
Q 15.4375 72.65625 20.34375 73.4375 
Q 25.25 74.21875 29.59375 74.21875 
Q 40.828125 74.21875 47.359375 69.109375 
Q 53.90625 64.015625 53.90625 55.328125 
Q 53.90625 49.265625 50.4375 45.09375 
Q 46.96875 40.921875 40.578125 39.3125 
z
" id="DejaVuSans-51"/>
      </defs>
      <g style="fill:#262626;" transform="translate(635.906323 441.508958)scale(0.28 -0.28)">
       <use xlink:href="#DejaVuSans-51"/>
       <use x="63.623047" xlink:href="#DejaVuSans-48"/>
      </g>
     </g>
    </g>
    <g id="xtick_15">
     <g id="line2d_19">
      <path clip-path="url(#p63cf212984)" d="M 843.620184 413.233333 
L 843.620184 289.754586 
" style="fill:none;stroke:#ffffff;stroke-linecap:round;stroke-width:0.8;"/>
     </g>
     <g id="text_8">
      <!-- 40 -->
      <defs>
       <path d="M 37.796875 64.3125 
L 12.890625 25.390625 
L 37.796875 25.390625 
z
M 35.203125 72.90625 
L 47.609375 72.90625 
L 47.609375 25.390625 
L 58.015625 25.390625 
L 58.015625 17.1875 
L 47.609375 17.1875 
L 47.609375 0 
L 37.796875 0 
L 37.796875 17.1875 
L 4.890625 17.1875 
L 4.890625 26.703125 
z
" id="DejaVuSans-52"/>
      </defs>
      <g style="fill:#262626;" transform="translate(825.805184 441.508958)scale(0.28 -0.28)">
       <use xlink:href="#DejaVuSans-52"/>
       <use x="63.623047" xlink:href="#DejaVuSans-48"/>
      </g>
     </g>
    </g>
    <g id="text_9">
     <!-- time in s -->
     <defs>
      <path d="M 59.078125 45.609375 
Q 62.40625 50.6875 66.96875 53.34375 
Q 71.53125 56 77 56 
Q 86.421875 56 91.359375 50.1875 
Q 96.296875 44.390625 96.296875 33.296875 
L 96.296875 0 
L 78.71875 0 
L 78.71875 28.515625 
Q 78.765625 29.15625 78.78125 29.828125 
Q 78.8125 30.515625 78.8125 31.78125 
Q 78.8125 37.59375 77.09375 40.203125 
Q 75.390625 42.828125 71.578125 42.828125 
Q 66.609375 42.828125 63.890625 38.71875 
Q 61.1875 34.625 61.078125 26.859375 
L 61.078125 0 
L 43.5 0 
L 43.5 28.515625 
Q 43.5 37.59375 41.9375 40.203125 
Q 40.375 42.828125 36.375 42.828125 
Q 31.34375 42.828125 28.609375 38.703125 
Q 25.875 34.578125 25.875 26.90625 
L 25.875 0 
L 8.296875 0 
L 8.296875 54.6875 
L 25.875 54.6875 
L 25.875 46.6875 
Q 29.109375 51.3125 33.28125 53.65625 
Q 37.453125 56 42.484375 56 
Q 48.140625 56 52.484375 53.265625 
Q 56.84375 50.53125 59.078125 45.609375 
z
" id="DejaVuSans-Bold-109"/>
      <path d="M 62.984375 27.484375 
L 62.984375 22.515625 
L 22.125 22.515625 
Q 22.75 16.359375 26.5625 13.28125 
Q 30.375 10.203125 37.203125 10.203125 
Q 42.71875 10.203125 48.5 11.84375 
Q 54.296875 13.484375 60.40625 16.796875 
L 60.40625 3.328125 
Q 54.203125 0.984375 48 -0.21875 
Q 41.796875 -1.421875 35.59375 -1.421875 
Q 20.75 -1.421875 12.515625 6.125 
Q 4.296875 13.671875 4.296875 27.296875 
Q 4.296875 40.671875 12.375 48.328125 
Q 20.453125 56 34.625 56 
Q 47.515625 56 55.25 48.234375 
Q 62.984375 40.484375 62.984375 27.484375 
z
M 45.015625 33.296875 
Q 45.015625 38.28125 42.109375 41.328125 
Q 39.203125 44.390625 34.515625 44.390625 
Q 29.4375 44.390625 26.265625 41.53125 
Q 23.09375 38.671875 22.3125 33.296875 
z
" id="DejaVuSans-Bold-101"/>
     </defs>
     <g style="fill:#262626;" transform="translate(423.886667 483.607708)scale(0.28 -0.28)">
      <use xlink:href="#DejaVuSans-Bold-116"/>
      <use x="47.802734" xlink:href="#DejaVuSans-Bold-105"/>
      <use x="82.080078" xlink:href="#DejaVuSans-Bold-109"/>
      <use x="186.279297" xlink:href="#DejaVuSans-Bold-101"/>
      <use x="254.101562" xlink:href="#DejaVuSans-Bold-32"/>
      <use x="288.916016" xlink:href="#DejaVuSans-Bold-105"/>
      <use x="323.193359" xlink:href="#DejaVuSans-Bold-110"/>
      <use x="394.384766" xlink:href="#DejaVuSans-Bold-32"/>
      <use x="429.199219" xlink:href="#DejaVuSans-Bold-115"/>
     </g>
    </g>
   </g>
   <g id="matplotlib.axis_6"/>
   <g id="line2d_20">
    <path clip-path="url(#p63cf212984)" d="M 103.033617 365.917636 
L 197.945068 365.917636 
L 198.059007 346.626359 
L 653.702333 346.626359 
L 653.816273 365.917636 
L 881.580966 365.917636 
L 881.580966 365.917636 
" style="fill:none;stroke:#42827a;stroke-linecap:round;stroke-width:2;"/>
   </g>
   <g id="line2d_21">
    <path d="M 64.10625 354.624905 
L 920.508333 354.624905 
" style="fill:none;stroke:#42827a;stroke-linecap:round;stroke-width:2;"/>
   </g>
   <g id="text_10">
    <!-- input -->
    <g style="fill:#42827a;" transform="translate(64.10625 408.611709)scale(0.28 -0.28)">
     <use xlink:href="#DejaVuSans-Bold-105"/>
     <use x="34.277344" xlink:href="#DejaVuSans-Bold-110"/>
     <use x="105.46875" xlink:href="#DejaVuSans-Bold-112"/>
     <use x="177.050781" xlink:href="#DejaVuSans-Bold-117"/>
     <use x="248.242188" xlink:href="#DejaVuSans-Bold-116"/>
    </g>
   </g>
  </g>
 </g>
 <defs>
  <clipPath id="p693bc7ff7e">
   <rect height="123.478747" width="856.402083" x="64.10625" y="45.266667"/>
  </clipPath>
  <clipPath id="p5ff2c37b6c">
   <rect height="123.478747" width="856.402083" x="64.10625" y="167.510626"/>
  </clipPath>
  <clipPath id="p63cf212984">
   <rect height="123.478747" width="856.402083" x="64.10625" y="289.754586"/>
  </clipPath>
 </defs>
</svg>
