<?xml version="1.0" encoding="utf-8"?>
<!-- Generator: Adobe Illustrator 21.0.2, SVG Export Plug-In . SVG Version: 6.00 Build 0)  -->
<svg version="1.1" id="Ebene_1" xmlns="http://www.w3.org/2000/svg" xmlns:xlink="http://www.w3.org/1999/xlink" x="0px" y="0px"
	 viewBox="0 0 283.5 283.5" style="enable-background:new 0 0 283.5 283.5;" xml:space="preserve">
<style type="text/css">
	.st0{opacity:0.99;fill:#214478;enable-background:new    ;}
	.st1{fill:#18A1B8;}
	.st2{fill:none;stroke:#18A1B8;stroke-width:0.462;}
	.st3{opacity:0.99;fill:#18A1B8;enable-background:new    ;}
	.st4{fill:#CBDA2E;}
</style>
<circle id="circle6361-0-4-6_26_" inkscape:export-xdpi="80" inkscape:export-ydpi="80" class="st0" cx="141.7" cy="141.7" r="117.8">
</circle>
<polygon class="st1" points="24.2,150.2 24.3,151 24.4,152.2 113.4,199.4 114.2,197.9 "/>
<polygon class="st1" points="131.8,24.4 130.9,24.4 130.1,24.5 119.5,194.6 121.2,194.7 "/>
<polygon class="st1" points="186.4,63.3 185.6,62.8 184.8,62.6 122.2,195.1 123.8,195.8 "/>
<polygon class="st1" points="244.5,84.1 244,83.3 243.6,82.5 124.4,196.5 125.6,197.7 "/>
<polygon class="st1" points="223.8,166.7 223.6,165.8 223.3,165.1 126.3,198.8 126.9,200.4 "/>
<polygon class="st1" points="240.5,205.9 241.1,205 241.6,204.2 127.1,201.2 127,202.9 "/>
<polygon class="st1" points="204.1,222.9 204.8,222.4 204.4,221.2 126.7,202.8 126.3,204.4 "/>
<polygon class="st1" points="141.6,233.2 141.9,232.4 142.3,231.3 124.8,207.2 123.4,208.2 "/>
<polygon class="st1" points="110.8,255.4 111.6,255.6 112.4,255.8 119.6,209 118,208.8 "/>
<polygon class="st1" points="72.8,208.3 72.4,209.1 73,209.9 113.1,203.8 112.8,202.1 "/>
<path id="path6534-2-2_26_" inkscape:connector-curvature="0" inkscape:export-xdpi="80" inkscape:export-ydpi="80" class="st2" d="
	M119.9,201.9"/>
<g>
	<g>
		
			<ellipse id="circle6361-0-7-8-7_26_" inkscape:export-xdpi="80" inkscape:export-ydpi="80" transform="matrix(0.7991 -0.6012 0.6012 0.7991 -97.3009 112.6442)" class="st3" cx="119.9" cy="201.9" rx="7.6" ry="7.6">
		</ellipse>
		
			<ellipse id="circle6361-0-7-6-1-3_49_" inkscape:export-xdpi="80" inkscape:export-ydpi="80" transform="matrix(0.7991 -0.6012 0.6012 0.7991 -113.3063 81.6264)" class="st3" cx="65.5" cy="210.3" rx="7.6" ry="7.6">
		</ellipse>
		
			<ellipse id="circle6361-0-7-6-1-3_48_" inkscape:export-xdpi="80" inkscape:export-ydpi="80" transform="matrix(0.7991 -0.6012 0.6012 0.7991 -92.0982 171.7967)" class="st3" cx="211" cy="223.7" rx="7.6" ry="7.6">
		</ellipse>
		
			<ellipse id="circle6361-0-7-9-7-5_26_" inkscape:export-xdpi="80" inkscape:export-ydpi="80" transform="matrix(0.7991 -0.6012 0.6012 0.7991 -113.231 134.9304)" class="st3" cx="145.3" cy="236.9" rx="7.6" ry="7.6">
		</ellipse>
		
			<ellipse id="circle6361-0-7-3-2-6_26_" inkscape:export-xdpi="80" inkscape:export-ydpi="80" transform="matrix(0.7991 -0.6012 0.6012 0.7991 -51.8907 171.5186)" class="st3" cx="230.7" cy="163.4" rx="7.6" ry="7.6">
		</ellipse>
		
			<ellipse id="circle6361-0-7-5-7-3-7_26_" inkscape:export-xdpi="80" inkscape:export-ydpi="80" transform="matrix(0.7991 -0.6012 0.6012 0.7991 4.1914 124.5685)" class="st3" cx="188.5" cy="56" rx="7.6" ry="7.6">
		</ellipse>
	</g>
	
		<ellipse id="circle6361-0-7-6-1-3_2_" inkscape:export-xdpi="80" inkscape:export-ydpi="80" transform="matrix(0.7991 -0.6012 0.6012 0.7991 -34.1834 64.3059)" class="st3" cx="79.1" cy="83.3" rx="7.6" ry="7.6">
	</ellipse>
</g>
<polygon class="st1" points="82.5,89.8 81.7,90 80.9,90.4 116.8,195.6 118.4,195.1 "/>
<g id="flowRoot4136-6_7_" transform="matrix(6.4265758,0,0,6.4265758,9337.3182,2333.7883)">
	<g>
		<g id="path4229_11_">
			<path class="st4" d="M-1444.5-346.4c0.7,0,1.3,0.2,1.7,0.6c0.4,0.4,0.6,0.9,0.6,1.5c0,0.6-0.2,1.1-0.6,1.5
				c-0.4,0.4-1,0.6-1.7,0.6h-1.1v1.4l0.7,0.1v0.8h-2.6v-0.8l0.7-0.1v-4.6l-0.7-0.1v-0.8h0.7H-1444.5L-1444.5-346.4z M-1445.6-343.3
				h1.1c0.4,0,0.6-0.1,0.8-0.3c0.2-0.2,0.3-0.4,0.3-0.7c0-0.3-0.1-0.6-0.3-0.8c-0.2-0.2-0.5-0.3-0.8-0.3h-1.1V-343.3z"/>
		</g>
		<g id="path4231_11_">
			<path class="st4" d="M-1436.7-344l-0.4,0.1l-1.7,4.6c-0.1,0.3-0.3,0.6-0.6,0.9c-0.2,0.2-0.6,0.3-1,0.3c-0.1,0-0.2,0-0.3,0
				c-0.1,0-0.2,0-0.3-0.1l0.1-0.9c0,0,0.1,0,0.1,0s0.1,0,0.1,0c0.2,0,0.4-0.1,0.5-0.2c0.1-0.1,0.2-0.2,0.3-0.4l0.1-0.4l-1.5-3.9
				l-0.4-0.1v-0.8h2.3v0.8l-0.5,0.1l0.6,1.9l0.1,0.3l0,0l0.8-2.2l-0.5-0.1v-0.8h2.3V-344L-1436.7-344z"/>
		</g>
		<g id="path4233_11_">
			<path class="st4" d="M-1433.5-346.4c0.7,0,1.3,0.2,1.7,0.5c0.4,0.3,0.6,0.8,0.6,1.4c0,0.3-0.1,0.6-0.3,0.8
				c-0.2,0.2-0.4,0.4-0.8,0.6c0.4,0.1,0.6,0.3,0.8,0.6c0.2,0.3,0.2,0.6,0.2,1v0.3c0,0.1,0,0.2,0.1,0.3c0.1,0.1,0.1,0.1,0.3,0.1
				l0.2,0v0.8h-0.7c-0.4,0-0.7-0.1-0.9-0.3c-0.2-0.2-0.3-0.5-0.3-0.9v-0.4c0-0.3-0.1-0.6-0.2-0.7c-0.2-0.2-0.4-0.3-0.7-0.3h-1v1.7
				l0.7,0.1v0.8h-2.6v-0.8l0.7-0.1v-4.6l-0.7-0.1v-0.8h0.7H-1433.5L-1433.5-346.4z M-1434.4-343.6h0.9c0.4,0,0.6-0.1,0.8-0.2
				s0.3-0.4,0.3-0.7s-0.1-0.5-0.3-0.7c-0.2-0.2-0.4-0.3-0.8-0.3h-0.9V-343.6z"/>
		</g>
		<g id="path4235_11_">
			<path class="st4" d="M-1427.1-340c0-0.1-0.1-0.2-0.1-0.2c0-0.1,0-0.2-0.1-0.3c-0.2,0.2-0.3,0.3-0.6,0.4c-0.2,0.1-0.5,0.2-0.7,0.2
				c-0.5,0-0.8-0.1-1.1-0.4c-0.3-0.3-0.4-0.6-0.4-1c0-0.4,0.2-0.8,0.5-1c0.4-0.2,0.9-0.4,1.6-0.4h0.7v-0.5c0-0.2-0.1-0.4-0.2-0.5
				s-0.3-0.2-0.6-0.2c-0.1,0-0.3,0-0.4,0.1c-0.1,0-0.2,0.1-0.3,0.1l-0.1,0.5h-1l0-1.1c0.2-0.2,0.5-0.3,0.8-0.4
				c0.3-0.1,0.6-0.2,1-0.2c0.6,0,1.1,0.1,1.4,0.4c0.4,0.3,0.6,0.7,0.6,1.2v2c0,0.1,0,0.1,0,0.2c0,0.1,0,0.1,0,0.2l0.4,0.1v0.8
				H-1427.1L-1427.1-340z M-1428.2-340.9c0.2,0,0.4,0,0.5-0.1c0.2-0.1,0.3-0.2,0.4-0.3v-0.7h-0.7c-0.3,0-0.5,0.1-0.6,0.2
				c-0.1,0.1-0.2,0.3-0.2,0.5c0,0.2,0.1,0.3,0.2,0.4C-1428.6-340.9-1428.4-340.9-1428.2-340.9L-1428.2-340.9z"/>
		</g>
		<g id="path4237_11_">
			<path class="st4" d="M-1423.7-346v1.2h0.8v0.9h-0.8v2.4c0,0.2,0,0.3,0.1,0.4c0.1,0.1,0.2,0.1,0.3,0.1c0.1,0,0.2,0,0.2,0
				c0.1,0,0.1,0,0.2,0l0.1,0.9c-0.1,0-0.3,0.1-0.4,0.1c-0.1,0-0.3,0-0.5,0c-0.4,0-0.8-0.1-1-0.4c-0.2-0.2-0.4-0.6-0.4-1.2v-2.4h-0.7
				v-0.9h0.7v-1.2H-1423.7z"/>
		</g>
		<g id="path4239_11_">
			<path class="st4" d="M-1419.9-340c-0.7,0-1.2-0.2-1.6-0.7c-0.4-0.4-0.6-1-0.6-1.7v-0.2c0-0.7,0.2-1.3,0.6-1.7
				c0.4-0.5,0.9-0.7,1.6-0.7c0.6,0,1.1,0.2,1.5,0.6c0.4,0.4,0.5,0.9,0.5,1.6v0.7h-2.8l0,0c0,0.3,0.1,0.6,0.3,0.8
				c0.2,0.2,0.4,0.3,0.8,0.3c0.3,0,0.5,0,0.7-0.1c0.2-0.1,0.4-0.1,0.6-0.3l0.3,0.8c-0.2,0.2-0.5,0.3-0.8,0.4
				C-1419.2-340-1419.6-340-1419.9-340z M-1420.1-343.9c-0.2,0-0.4,0.1-0.6,0.3c-0.1,0.2-0.2,0.4-0.3,0.7l0,0h1.6v-0.1
				c0-0.3-0.1-0.5-0.2-0.6C-1419.6-343.8-1419.8-343.9-1420.1-343.9z"/>
		</g>
		<g id="path4241_11_">
			<path class="st4" d="M-1413.5-343.2h-0.9l-0.1-0.6c-0.1-0.1-0.2-0.1-0.3-0.2c-0.1,0-0.3-0.1-0.4-0.1c-0.2,0-0.4,0.1-0.5,0.2
				c-0.1,0.1-0.2,0.2-0.2,0.4c0,0.1,0.1,0.3,0.2,0.4c0.1,0.1,0.4,0.2,0.8,0.2c0.6,0.1,1,0.3,1.3,0.5c0.3,0.2,0.4,0.5,0.4,0.9
				c0,0.4-0.2,0.8-0.6,1c-0.4,0.3-0.8,0.4-1.4,0.4c-0.4,0-0.7-0.1-1-0.2c-0.3-0.1-0.6-0.3-0.8-0.5l0-1.1h0.9l0.2,0.6
				c0.1,0.1,0.2,0.1,0.3,0.1c0.1,0,0.3,0,0.4,0c0.3,0,0.5,0,0.6-0.1c0.1-0.1,0.2-0.2,0.2-0.4c0-0.1-0.1-0.3-0.2-0.4
				s-0.4-0.2-0.8-0.3c-0.6-0.1-1-0.3-1.3-0.5c-0.3-0.2-0.4-0.5-0.4-0.9c0-0.4,0.2-0.7,0.5-1c0.3-0.3,0.8-0.4,1.4-0.4
				c0.4,0,0.7,0,1,0.1c0.3,0.1,0.6,0.2,0.8,0.4L-1413.5-343.2L-1413.5-343.2z"/>
		</g>
	</g>
</g>
</svg>
