<?xml version="1.0" encoding="utf-8" standalone="no"?>
<!DOCTYPE svg PUBLIC "-//W3C//DTD SVG 1.1//EN"
  "http://www.w3.org/Graphics/SVG/1.1/DTD/svg11.dtd">
<!-- Created with matplotlib (https://matplotlib.org/) -->
<svg height="432pt" version="1.1" viewBox="0 0 864 432" width="864pt" xmlns="http://www.w3.org/2000/svg" xmlns:xlink="http://www.w3.org/1999/xlink">
 <defs>
  <style type="text/css">
*{stroke-linecap:butt;stroke-linejoin:round;}
  </style>
 </defs>
 <g id="figure_1">
  <g id="patch_1">
   <path d="M 0 432 
L 864 432 
L 864 0 
L 0 0 
z
" style="fill:#ffffff;"/>
  </g>
  <g id="axes_1">
   <g id="patch_2">
    <path d="M 49.8 144.638926 
L 849.7 144.638926 
L 849.7 38.8 
L 49.8 38.8 
z
" style="fill:#eaeaf2;"/>
   </g>
   <g id="matplotlib.axis_1">
    <g id="xtick_1">
     <g id="line2d_1">
      <path clip-path="url(#p31b130ba67)" d="M 77.172338 144.638926 
L 77.172338 38.8 
" style="fill:none;stroke:#ffffff;stroke-linecap:round;stroke-width:0.8;"/>
     </g>
    </g>
    <g id="xtick_2">
     <g id="line2d_2">
      <path clip-path="url(#p31b130ba67)" d="M 166.950088 144.638926 
L 166.950088 38.8 
" style="fill:none;stroke:#ffffff;stroke-linecap:round;stroke-width:0.8;"/>
     </g>
    </g>
    <g id="xtick_3">
     <g id="line2d_3">
      <path clip-path="url(#p31b130ba67)" d="M 256.727838 144.638926 
L 256.727838 38.8 
" style="fill:none;stroke:#ffffff;stroke-linecap:round;stroke-width:0.8;"/>
     </g>
    </g>
    <g id="xtick_4">
     <g id="line2d_4">
      <path clip-path="url(#p31b130ba67)" d="M 346.505588 144.638926 
L 346.505588 38.8 
" style="fill:none;stroke:#ffffff;stroke-linecap:round;stroke-width:0.8;"/>
     </g>
    </g>
    <g id="xtick_5">
     <g id="line2d_5">
      <path clip-path="url(#p31b130ba67)" d="M 436.283338 144.638926 
L 436.283338 38.8 
" style="fill:none;stroke:#ffffff;stroke-linecap:round;stroke-width:0.8;"/>
     </g>
    </g>
    <g id="xtick_6">
     <g id="line2d_6">
      <path clip-path="url(#p31b130ba67)" d="M 526.061087 144.638926 
L 526.061087 38.8 
" style="fill:none;stroke:#ffffff;stroke-linecap:round;stroke-width:0.8;"/>
     </g>
    </g>
    <g id="xtick_7">
     <g id="line2d_7">
      <path clip-path="url(#p31b130ba67)" d="M 615.838837 144.638926 
L 615.838837 38.8 
" style="fill:none;stroke:#ffffff;stroke-linecap:round;stroke-width:0.8;"/>
     </g>
    </g>
    <g id="xtick_8">
     <g id="line2d_8">
      <path clip-path="url(#p31b130ba67)" d="M 705.616587 144.638926 
L 705.616587 38.8 
" style="fill:none;stroke:#ffffff;stroke-linecap:round;stroke-width:0.8;"/>
     </g>
    </g>
    <g id="xtick_9">
     <g id="line2d_9">
      <path clip-path="url(#p31b130ba67)" d="M 795.394337 144.638926 
L 795.394337 38.8 
" style="fill:none;stroke:#ffffff;stroke-linecap:round;stroke-width:0.8;"/>
     </g>
    </g>
   </g>
   <g id="matplotlib.axis_2"/>
   <g id="line2d_10">
    <path clip-path="url(#p31b130ba67)" d="M 86.159091 127.753646 
L 91.886911 127.950248 
L 101.942019 128.00997 
L 114.753304 127.912487 
L 122.330546 127.054365 
L 132.88841 125.822114 
L 136.784764 125.130194 
L 139.522985 124.428415 
L 141.56094 123.685161 
L 143.141029 122.878765 
L 144.406895 121.988341 
L 145.457295 120.981184 
L 146.36405 119.800811 
L 147.163072 118.385411 
L 147.881294 116.642482 
L 148.536672 114.439439 
L 149.138182 111.600317 
L 149.694804 107.857085 
L 150.224493 102.68732 
L 150.727249 95.450263 
L 151.221026 84.930455 
L 151.777648 67.823185 
L 152.540759 44.844514 
L 152.720315 43.61086 
L 152.73827 43.629226 
L 152.81907 44.033435 
L 152.98067 46.33722 
L 153.276937 54.502726 
L 154.453025 90.07025 
L 155.000669 98.986521 
L 155.548314 104.559506 
L 156.104936 108.118852 
L 156.661558 110.338547 
L 157.191247 111.612284 
L 157.676046 112.249047 
L 158.098002 112.466967 
L 158.484046 112.420903 
L 158.879068 112.139976 
L 159.327957 111.525904 
L 159.830712 110.426597 
L 160.369379 108.668191 
L 160.917023 106.077568 
L 161.473645 102.293497 
L 162.02129 96.953853 
L 162.577912 89.227847 
L 163.215334 76.981439 
L 164.158 58.917293 
L 164.409378 57.476748 
L 164.463244 57.480481 
L 164.499155 57.545625 
L 164.624844 58.16093 
L 164.849289 60.629789 
L 165.253289 68.119993 
L 166.411421 90.438184 
L 167.02191 97.627837 
L 167.605466 102.053982 
L 168.162088 104.719265 
L 168.682799 106.218323 
L 169.131687 106.906999 
L 169.499776 107.114157 
L 169.822976 107.049979 
L 170.164131 106.738128 
L 170.568131 106.036847 
L 171.034976 104.741346 
L 171.555687 102.585842 
L 172.112309 99.259704 
L 172.695864 94.329378 
L 173.333286 86.898204 
L 174.985197 66.171876 
L 175.164752 65.869779 
L 175.182708 65.878327 
L 175.299419 66.105081 
L 175.49693 67.137004 
L 175.811152 70.193607 
L 176.457552 79.266597 
L 177.364307 90.982854 
L 178.019685 96.685842 
L 178.612218 100.06001 
L 179.159862 102.002713 
L 179.626706 102.938063 
L 180.012751 103.278082 
L 180.326973 103.286989 
L 180.641195 103.063051 
L 181.009284 102.503896 
L 181.449195 101.398925 
L 181.960928 99.462521 
L 182.535505 96.341399 
L 183.172927 91.548654 
L 183.971949 83.655878 
L 185.004393 73.73269 
L 185.363504 72.11472 
L 185.569993 71.912474 
L 185.70466 72.08255 
L 185.911149 72.788942 
L 186.234349 74.835128 
L 186.799948 80.145856 
L 188.047859 91.905223 
L 188.721192 96.133352 
L 189.313725 98.57412 
L 189.834436 99.869813 
L 190.26537 100.414478 
L 190.606525 100.533563 
L 190.920747 100.40935 
L 191.27088 100.010741 
L 191.692836 99.163201 
L 192.195591 97.612128 
L 192.779147 95.03575 
L 193.470435 90.886891 
L 194.592657 82.470748 
L 195.292924 78.092218 
L 195.678968 76.862151 
L 195.91239 76.676405 
L 196.082968 76.820106 
L 196.31639 77.385112 
L 196.666523 78.930394 
L 197.241101 82.673628 
L 198.758345 92.866934 
L 199.440656 95.855291 
L 200.024211 97.503751 
L 200.517989 98.297614 
L 200.913011 98.564416 
L 201.254166 98.543893 
L 201.604299 98.287778 
L 202.017277 97.684331 
L 202.511055 96.537568 
L 203.103588 94.556995 
L 203.839765 91.245809 
L 205.913631 81.323938 
L 206.263765 80.769641 
L 206.497187 80.734933 
L 206.721631 80.956646 
L 207.026876 81.633731 
L 207.466786 83.23793 
L 208.256831 87.145873 
L 209.46883 92.904456 
L 210.187052 95.286015 
L 210.788563 96.579236 
L 211.291319 97.183881 
L 211.713274 97.37174 
L 212.090341 97.302412 
L 212.49434 96.987864 
L 212.970163 96.309247 
L 213.54474 95.066841 
L 214.262962 92.932444 
L 215.448028 88.561131 
L 216.345806 85.627882 
L 216.848561 84.650802 
L 217.198695 84.380261 
L 217.477006 84.426242 
L 217.773272 84.724622 
L 218.168294 85.482923 
L 218.742872 87.1435 
L 221.265627 95.099523 
L 221.912026 96.192075 
L 222.459671 96.721746 
L 222.935493 96.89479 
L 223.384382 96.822856 
L 223.860204 96.509107 
L 224.416826 95.852213 
L 225.099137 94.668883 
L 226.041803 92.53116 
L 227.630869 88.921169 
L 228.205447 88.158632 
L 228.63638 87.919862 
L 229.004469 87.963748 
L 229.390513 88.250082 
L 229.875313 88.918239 
L 230.566602 90.30448 
L 233.071401 95.681714 
L 233.807578 96.604885 
L 234.445 97.070525 
L 235.019578 97.228979 
L 235.585178 97.15514 
L 236.195666 96.83987 
L 236.904911 96.205928 
L 237.838599 95.042778 
L 240.047132 92.173764 
L 240.693532 91.748349 
L 241.232198 91.65043 
L 241.743931 91.786188 
L 242.309531 92.179219 
L 243.027753 92.974759 
L 244.230775 94.705447 
L 245.819841 96.894124 
L 246.780463 97.847163 
L 247.624374 98.386562 
L 248.423396 98.639838 
L 249.222418 98.661529 
L 250.10224 98.455457 
L 251.179573 97.958393 
L 254.411572 96.304678 
L 255.273438 96.210691 
L 256.090416 96.346802 
L 256.96126 96.724936 
L 258.020637 97.443551 
L 259.82517 98.99074 
L 261.943925 100.713532 
L 263.461169 101.657214 
L 264.978413 102.33841 
L 266.738057 102.875039 
L 270.3561 103.664055 
L 272.5377 104.296047 
L 274.35121 105.053233 
L 276.110854 106.031317 
L 277.888453 107.277727 
L 279.684008 108.811249 
L 281.479563 110.639889 
L 283.284096 112.799905 
L 285.20534 115.45872 
L 287.98845 119.752862 
L 290.268805 123.105498 
L 291.705249 124.830458 
L 292.962138 126.002828 
L 294.183115 126.843039 
L 295.466937 127.456347 
L 296.930314 127.902785 
L 298.76178 128.21696 
L 301.383291 128.42142 
L 306.240267 128.539188 
L 324.150928 128.639114 
L 364.811271 128.668924 
L 404.834192 128.479261 
L 435.70876 128.114969 
L 456.93222 127.653362 
L 471.485193 127.127128 
L 481.226079 126.566029 
L 487.788833 125.97877 
L 492.304653 125.36418 
L 495.518697 124.713741 
L 497.888829 124.016881 
L 499.693362 123.263297 
L 501.120828 122.432865 
L 502.287939 121.500253 
L 503.275494 120.425065 
L 504.128383 119.163684 
L 504.891494 117.625604 
L 505.582783 115.709057 
L 506.211227 113.286255 
L 506.794782 110.113682 
L 507.342427 105.839222 
L 507.863137 99.895659 
L 508.365893 91.39187 
L 508.877626 78.621246 
L 510.143492 44.142469 
L 510.197359 44.240852 
L 510.31407 45.227537 
L 510.529537 49.514388 
L 510.987403 64.456713 
L 511.723581 86.475773 
L 512.280203 96.792954 
L 512.827847 103.132157 
L 513.384469 107.179543 
L 513.941091 109.716471 
L 514.479758 111.220081 
L 514.973535 112.005835 
L 515.413446 112.325891 
L 515.799491 112.348562 
L 516.185535 112.143193 
L 516.616468 111.642566 
L 517.101268 110.710089 
L 517.630957 109.167834 
L 518.178601 106.841686 
L 518.735223 103.437539 
L 519.282867 98.637543 
L 519.839489 91.673427 
L 520.441 81.119579 
L 521.670955 58.388799 
L 521.859489 57.730827 
L 521.877444 57.738505 
L 521.967222 57.961252 
L 522.128822 59.108924 
L 522.407133 62.992733 
L 523.026599 75.758008 
L 523.807666 89.98499 
L 524.418155 97.284535 
L 525.00171 101.794379 
L 525.558332 104.518235 
L 526.079043 106.057937 
L 526.527932 106.773926 
L 526.89602 106.999718 
L 527.21922 106.949916 
L 527.560376 106.651858 
L 527.955398 105.985176 
L 528.422242 104.717695 
L 528.933975 102.641064 
L 529.490597 99.380241 
L 530.074153 94.538841 
L 530.711575 87.22759 
L 532.408374 66.216899 
L 532.569974 65.977656 
L 532.58793 65.986018 
L 532.704641 66.210018 
L 532.902152 67.23158 
L 533.216374 70.260783 
L 533.853796 79.136729 
L 534.769529 90.92871 
L 535.424907 96.613732 
L 536.01744 99.977577 
L 536.556106 101.887499 
L 537.022951 102.825812 
L 537.408995 103.165729 
L 537.723217 103.172785 
L 538.037439 102.945329 
L 538.405528 102.379805 
L 538.845439 101.263791 
L 539.357172 99.30942 
L 539.93175 96.161548 
L 540.569172 91.334138 
L 541.377171 83.317543 
L 542.373705 73.767145 
L 542.732816 72.121742 
L 542.939304 71.899986 
L 543.073971 72.056776 
L 543.28046 72.743106 
L 543.594682 74.692584 
L 544.142326 79.766211 
L 545.444104 92.000547 
L 546.117437 96.167674 
L 546.70997 98.558127 
L 547.221703 99.795705 
L 547.643658 100.30782 
L 547.984814 100.41141 
L 548.299036 100.27087 
L 548.658147 99.836933 
L 549.08908 98.927699 
L 549.600813 97.278108 
L 550.193347 94.555603 
L 550.893613 90.209606 
L 552.877701 77.060303 
L 553.16499 76.582091 
L 553.335568 76.614804 
L 553.533079 76.945578 
L 553.820368 77.944332 
L 554.260279 80.408504 
L 556.639389 95.290459 
L 557.2409 97.153126 
L 557.743655 98.064892 
L 558.156633 98.406982 
L 558.497788 98.426811 
L 558.838944 98.21613 
L 559.233966 97.68902 
L 559.709788 96.653708 
L 560.284366 94.825147 
L 560.984632 91.78763 
L 562.133787 85.590043 
L 562.923831 81.912577 
L 563.363742 80.770734 
L 563.651031 80.519698 
L 563.85752 80.597647 
L 564.108898 80.977125 
L 564.459031 81.973469 
L 564.98872 84.249551 
L 567.152363 94.301979 
L 567.789785 95.98012 
L 568.328452 96.834066 
L 568.777341 97.167566 
L 569.163385 97.190785 
L 569.549429 96.97854 
L 569.98934 96.458655 
L 570.519029 95.454956 
L 571.165429 93.711923 
L 572.036273 90.652995 
L 573.544539 85.319402 
L 574.038317 84.354502 
L 574.38845 84.088975 
L 574.657783 84.140939 
L 574.95405 84.450243 
L 575.349072 85.231905 
L 575.92365 86.935994 
L 578.365604 94.809255 
L 579.012004 95.944843 
L 579.559648 96.497566 
L 580.026493 96.679295 
L 580.466404 96.615821 
L 580.933248 96.310613 
L 581.471915 95.673031 
L 582.13627 94.510246 
L 583.034047 92.43994 
L 584.730847 88.471458 
L 585.287469 87.740306 
L 585.700447 87.523824 
L 586.059558 87.580614 
L 586.445602 87.889324 
L 586.930402 88.596418 
L 587.630668 90.066757 
L 589.955912 95.247611 
L 590.692089 96.239385 
L 591.320534 96.742066 
L 591.886134 96.925686 
L 592.433778 96.871542 
L 593.017333 96.580729 
L 593.690666 95.980684 
L 594.552533 94.889179 
L 597.06631 91.503553 
L 597.658843 91.164925 
L 598.161598 91.123243 
L 598.664354 91.312745 
L 599.238931 91.787167 
L 599.993064 92.729399 
L 603.350752 97.319525 
L 604.16773 97.88636 
L 604.930841 98.153704 
L 605.684974 98.184132 
L 606.492973 97.989922 
L 607.462573 97.513537 
L 609.16835 96.366257 
L 610.443194 95.643676 
L 611.305061 95.402395 
L 612.068172 95.414995 
L 612.84026 95.653545 
L 613.720082 96.170465 
L 614.905149 97.150295 
L 618.235903 100.033212 
L 619.555636 100.807483 
L 620.866391 101.31862 
L 622.302835 101.63535 
L 624.233057 101.813268 
L 627.617678 102.110928 
L 629.278566 102.51075 
L 630.87661 103.1277 
L 632.57341 104.026883 
L 634.485676 105.300423 
L 636.604431 106.984391 
L 638.732163 108.959007 
L 640.725229 111.111845 
L 642.637496 113.508502 
L 644.702384 116.469954 
L 649.783804 123.961683 
L 651.112515 125.393856 
L 652.34247 126.402173 
L 653.581403 127.1334 
L 654.928069 127.667586 
L 656.517136 128.051674 
L 658.617935 128.316127 
L 661.894823 128.479504 
L 669.427176 128.574659 
L 702.914277 128.680186 
L 743.484842 128.606606 
L 778.722609 128.336815 
L 804.605534 127.93278 
L 813.340909 127.727401 
L 813.340909 127.727401 
" style="fill:none;stroke:#849acf;stroke-linecap:round;stroke-width:2;"/>
   </g>
   <g id="line2d_11">
    <path d="M 49.8 115.215467 
L 849.7 115.215467 
" style="fill:none;stroke:#849acf;stroke-linecap:round;stroke-width:2;"/>
   </g>
   <g id="text_1">
    <!-- r -->
    <defs>
     <path d="M 49.03125 39.796875 
Q 46.734375 40.875 44.453125 41.375 
Q 42.1875 41.890625 39.890625 41.890625 
Q 33.15625 41.890625 29.515625 37.5625 
Q 25.875 33.25 25.875 25.203125 
L 25.875 0 
L 8.40625 0 
L 8.40625 54.6875 
L 25.875 54.6875 
L 25.875 45.703125 
Q 29.25 51.078125 33.609375 53.53125 
Q 37.984375 56 44.09375 56 
Q 44.96875 56 45.984375 55.921875 
Q 47.015625 55.859375 48.96875 55.609375 
z
" id="DejaVuSans-Bold-114"/>
    </defs>
    <g style="fill:#849acf;" transform="translate(49.8 141.781284)scale(0.28 -0.28)">
     <use xlink:href="#DejaVuSans-Bold-114"/>
    </g>
   </g>
  </g>
  <g id="axes_2">
   <g id="patch_3">
    <path d="M 49.8 249.419463 
L 849.7 249.419463 
L 849.7 143.580537 
L 49.8 143.580537 
z
" style="fill:#eaeaf2;"/>
   </g>
   <g id="matplotlib.axis_3">
    <g id="xtick_10">
     <g id="line2d_12">
      <path clip-path="url(#p2bd54d342d)" d="M 77.172338 249.419463 
L 77.172338 143.580537 
" style="fill:none;stroke:#ffffff;stroke-linecap:round;stroke-width:0.8;"/>
     </g>
    </g>
    <g id="xtick_11">
     <g id="line2d_13">
      <path clip-path="url(#p2bd54d342d)" d="M 166.950088 249.419463 
L 166.950088 143.580537 
" style="fill:none;stroke:#ffffff;stroke-linecap:round;stroke-width:0.8;"/>
     </g>
    </g>
    <g id="xtick_12">
     <g id="line2d_14">
      <path clip-path="url(#p2bd54d342d)" d="M 256.727838 249.419463 
L 256.727838 143.580537 
" style="fill:none;stroke:#ffffff;stroke-linecap:round;stroke-width:0.8;"/>
     </g>
    </g>
    <g id="xtick_13">
     <g id="line2d_15">
      <path clip-path="url(#p2bd54d342d)" d="M 346.505588 249.419463 
L 346.505588 143.580537 
" style="fill:none;stroke:#ffffff;stroke-linecap:round;stroke-width:0.8;"/>
     </g>
    </g>
    <g id="xtick_14">
     <g id="line2d_16">
      <path clip-path="url(#p2bd54d342d)" d="M 436.283338 249.419463 
L 436.283338 143.580537 
" style="fill:none;stroke:#ffffff;stroke-linecap:round;stroke-width:0.8;"/>
     </g>
    </g>
    <g id="xtick_15">
     <g id="line2d_17">
      <path clip-path="url(#p2bd54d342d)" d="M 526.061087 249.419463 
L 526.061087 143.580537 
" style="fill:none;stroke:#ffffff;stroke-linecap:round;stroke-width:0.8;"/>
     </g>
    </g>
    <g id="xtick_16">
     <g id="line2d_18">
      <path clip-path="url(#p2bd54d342d)" d="M 615.838837 249.419463 
L 615.838837 143.580537 
" style="fill:none;stroke:#ffffff;stroke-linecap:round;stroke-width:0.8;"/>
     </g>
    </g>
    <g id="xtick_17">
     <g id="line2d_19">
      <path clip-path="url(#p2bd54d342d)" d="M 705.616587 249.419463 
L 705.616587 143.580537 
" style="fill:none;stroke:#ffffff;stroke-linecap:round;stroke-width:0.8;"/>
     </g>
    </g>
    <g id="xtick_18">
     <g id="line2d_20">
      <path clip-path="url(#p2bd54d342d)" d="M 795.394337 249.419463 
L 795.394337 143.580537 
" style="fill:none;stroke:#ffffff;stroke-linecap:round;stroke-width:0.8;"/>
     </g>
    </g>
   </g>
   <g id="matplotlib.axis_4"/>
   <g id="line2d_21">
    <path clip-path="url(#p2bd54d342d)" d="M 86.159091 227.792982 
L 87.568602 228.290799 
L 89.373134 228.681055 
L 91.824067 228.968847 
L 95.495977 229.15631 
L 102.346019 229.247744 
L 113.092416 229.210227 
L 113.909393 227.145193 
L 114.807171 225.466107 
L 115.830637 224.020884 
L 117.024681 222.722144 
L 118.479081 221.474973 
L 120.355436 220.170517 
L 122.994902 218.625592 
L 128.390544 215.791522 
L 132.80761 213.348081 
L 135.680498 211.509239 
L 137.942897 209.802268 
L 139.810274 208.118497 
L 141.390363 206.398072 
L 142.763962 204.575128 
L 143.975962 202.595868 
L 145.062273 200.391454 
L 146.049828 197.874069 
L 146.956583 194.936279 
L 147.791516 191.45998 
L 148.58156 187.184598 
L 149.335693 181.835767 
L 150.107782 174.683769 
L 151.463426 161.697779 
L 151.553204 161.606576 
L 151.598093 161.662847 
L 151.714804 162.186654 
L 151.894359 164.30243 
L 152.127781 170.090159 
L 152.450981 184.601555 
L 153.474448 235.785331 
L 153.743781 239.113703 
L 153.878448 239.433409 
L 153.914359 239.404302 
L 154.03107 239.040268 
L 154.264492 237.401848 
L 154.794181 231.67561 
L 155.970269 219.2587 
L 156.89498 211.937676 
L 158.044135 204.678301 
L 160.701557 188.505644 
L 161.985378 178.590175 
L 162.694623 173.870346 
L 162.981911 173.110349 
L 163.098623 173.169976 
L 163.242267 173.630664 
L 163.448756 175.210409 
L 163.718089 179.252751 
L 164.0772 188.457846 
L 165.37 225.558 
L 165.666266 227.763452 
L 165.854799 228.044542 
L 165.980488 227.868176 
L 166.195955 227.063617 
L 166.590977 224.560616 
L 170.12822 199.260443 
L 173.216575 180.732819 
L 173.494886 180.251965 
L 173.63853 180.312563 
L 173.80013 180.696274 
L 174.024575 181.886945 
L 174.320841 184.826111 
L 174.715863 191.291998 
L 176.242085 219.315287 
L 176.556307 220.864431 
L 176.771774 221.101752 
L 176.924396 220.951899 
L 177.157818 220.330041 
L 177.561818 218.494882 
L 178.396751 213.40459 
L 180.748928 198.983058 
L 182.724039 188.167753 
L 183.316572 185.973234 
L 183.648749 185.414781 
L 183.837283 185.419777 
L 184.016838 185.693462 
L 184.259238 186.547543 
L 184.57346 188.593372 
L 184.986438 192.947155 
L 185.722615 203.68811 
L 186.404926 212.237846 
L 186.83586 215.174303 
L 187.150082 216.080181 
L 187.365548 216.19982 
L 187.554082 216.032325 
L 187.832393 215.41902 
L 188.281281 213.792213 
L 189.107237 209.799181 
L 192.375147 193.44423 
L 193.174169 190.514023 
L 193.641013 189.51968 
L 193.928302 189.332118 
L 194.134791 189.453469 
L 194.377191 189.914494 
L 194.682435 191.041146 
L 195.077457 193.447726 
L 195.643057 198.472254 
L 196.864034 209.570442 
L 197.312923 211.687356 
L 197.654078 212.413287 
L 197.905456 212.525157 
L 198.129901 212.37196 
L 198.444123 211.835185 
L 198.919945 210.506893 
L 199.718967 207.510209 
L 202.986877 194.65435 
L 203.633277 193.080723 
L 204.055232 192.546768 
L 204.342521 192.486252 
L 204.593899 192.673165 
L 204.890165 193.214338 
L 205.267232 194.43674 
L 205.761009 196.898515 
L 206.658787 202.80687 
L 207.439853 207.264347 
L 207.933631 208.946583 
L 208.310697 209.567144 
L 208.606964 209.690517 
L 208.885275 209.557137 
L 209.235408 209.109243 
L 209.738164 208.061404 
L 210.546163 205.786158 
L 213.643496 196.596226 
L 214.289895 195.471917 
L 214.738784 195.08 
L 215.070962 195.051093 
L 215.385184 195.258386 
L 215.744295 195.796689 
L 216.193184 196.92523 
L 216.794695 199.116894 
L 218.617183 206.189997 
L 219.110961 207.117347 
L 219.505983 207.445797 
L 219.847138 207.462645 
L 220.215227 207.244825 
L 220.691049 206.674986 
L 221.37336 205.466323 
L 222.612293 202.724952 
L 224.300115 199.117765 
L 225.12607 197.844842 
L 225.718603 197.299042 
L 226.17647 197.15271 
L 226.580469 197.254971 
L 227.002425 197.610457 
L 227.496202 198.34688 
L 228.142602 199.756322 
L 230.36909 204.999625 
L 230.907757 205.577232 
L 231.374601 205.776771 
L 231.82349 205.73155 
L 232.335223 205.444403 
L 232.999579 204.792172 
L 234.005089 203.452667 
L 236.482955 200.062371 
L 237.326866 199.314881 
L 237.991221 199.002003 
L 238.565799 198.968257 
L 239.122421 199.163458 
L 239.723932 199.623571 
L 240.469087 200.497751 
L 243.279131 204.110358 
L 243.943486 204.45781 
L 244.580908 204.546057 
L 245.263219 204.412262 
L 246.098152 204.00803 
L 247.337085 203.130383 
L 249.904729 201.280343 
L 251.000017 200.790059 
L 251.933706 200.609733 
L 252.813528 200.666062 
L 253.729261 200.953161 
L 254.842505 201.552308 
L 258.17326 203.506757 
L 259.277526 203.797896 
L 260.444637 203.87082 
L 261.890058 203.724577 
L 268.084723 202.839517 
L 270.0329 202.934611 
L 272.142677 203.267016 
L 274.575655 203.882903 
L 277.116365 204.751557 
L 279.199209 205.689198 
L 280.860097 206.675188 
L 282.287563 207.780179 
L 283.580363 209.064384 
L 284.810318 210.605186 
L 286.031295 212.499363 
L 287.315117 214.914991 
L 288.805428 218.221895 
L 293.84196 229.859954 
L 295.053959 231.841801 
L 296.203114 233.308299 
L 297.35227 234.42209 
L 298.564269 235.290416 
L 299.928891 235.99038 
L 301.562846 236.569417 
L 303.699557 237.077369 
L 306.904622 237.588556 
L 312.524709 238.231014 
L 320.972796 238.97219 
L 330.013415 239.54383 
L 339.054034 239.889957 
L 348.067721 240.010076 
L 357.02754 239.907307 
L 366.050204 239.581558 
L 375.099801 239.033589 
L 384.328954 238.250665 
L 393.594017 237.242471 
L 403.056592 235.989659 
L 412.752589 234.479924 
L 422.520408 232.73602 
L 432.458805 230.739468 
L 442.639602 228.465899 
L 452.577999 226.018348 
L 461.852041 223.508697 
L 469.967949 221.088368 
L 476.674347 218.8641 
L 482.034079 216.86065 
L 486.289544 215.04133 
L 489.701099 213.349126 
L 492.475231 211.731851 
L 494.764564 210.145748 
L 496.685808 208.549048 
L 498.32874 206.897243 
L 499.756207 205.146627 
L 501.013095 203.250851 
L 502.135317 201.151018 
L 503.149806 198.773739 
L 504.083494 196.002754 
L 504.945361 192.724447 
L 505.75336 188.739785 
L 506.516471 183.818816 
L 507.279582 177.373468 
L 508.321004 166.314248 
L 508.814782 162.331143 
L 508.967404 162.007006 
L 508.994337 162.023725 
L 509.093093 162.315291 
L 509.245715 163.614926 
L 509.461181 167.688886 
L 509.74847 178.110947 
L 510.224292 205.510218 
L 510.753981 231.411537 
L 511.068203 237.825138 
L 511.292648 239.022373 
L 511.373447 238.965185 
L 511.382425 238.94606 
L 511.535047 238.296107 
L 511.831314 235.829491 
L 514.300202 212.079667 
L 515.44038 204.856243 
L 518.169623 188.23231 
L 520.3602 173.357995 
L 520.476911 173.336033 
L 520.494867 173.354523 
L 520.629534 173.705604 
L 520.827045 175.011283 
L 521.0874 178.491182 
L 521.428555 186.472047 
L 522.074955 208.407917 
L 522.604644 222.518603 
L 522.954777 226.827874 
L 523.206155 227.803047 
L 523.322866 227.802301 
L 523.340822 227.781207 
L 523.502421 227.377886 
L 523.78971 225.943392 
L 524.373266 221.643765 
L 526.21371 207.746952 
L 528.251664 194.813047 
L 530.505086 181.213772 
L 530.837264 180.404094 
L 531.007841 180.385757 
L 531.160464 180.667393 
L 531.37593 181.640228 
L 531.654241 184.0691 
L 532.02233 189.498417 
L 532.632819 202.570546 
L 533.324107 215.787363 
L 533.728107 219.750431 
L 534.024374 220.87993 
L 534.212907 220.978274 
L 534.374507 220.761544 
L 534.64384 219.931857 
L 535.101707 217.666154 
L 536.223929 210.62262 
L 538.324728 197.90329 
L 540.138239 188.044127 
L 540.712816 185.964333 
L 541.036016 185.446243 
L 541.224549 185.464647 
L 541.413083 185.775397 
L 541.655483 186.674607 
L 541.978682 188.860833 
L 542.400638 193.443767 
L 543.271482 206.180471 
L 543.864015 212.932162 
L 544.268015 215.368046 
L 544.573259 216.096163 
L 544.77077 216.145674 
L 544.968281 215.926512 
L 545.264548 215.203922 
L 545.749348 213.337605 
L 546.700992 208.589556 
L 549.537969 194.236612 
L 550.426769 190.766479 
L 550.920546 189.589799 
L 551.225791 189.3188 
L 551.432279 189.394263 
L 551.656724 189.754392 
L 551.944013 190.689529 
L 552.321079 192.781013 
L 552.832812 197.050754 
L 554.323123 210.326531 
L 554.745078 211.990284 
L 555.059301 212.48855 
L 555.283745 212.513705 
L 555.526145 212.283809 
L 555.8673 211.602123 
L 556.396989 209.972822 
L 557.348633 206.194342 
L 559.970143 195.587942 
L 560.733254 193.403599 
L 561.218054 192.593295 
L 561.541254 192.417263 
L 561.792632 192.528749 
L 562.070943 192.940216 
L 562.412098 193.891133 
L 562.852009 195.843622 
L 563.507387 199.926157 
L 564.674498 207.161447 
L 565.177253 208.94136 
L 565.563297 209.600393 
L 565.859564 209.72871 
L 566.128897 209.602201 
L 566.47903 209.154325 
L 566.981786 208.094583 
L 567.780808 205.810628 
L 570.887118 196.449234 
L 571.515562 195.35776 
L 571.955473 194.98171 
L 572.287651 194.965955 
L 572.592895 195.184316 
L 572.952006 195.748522 
L 573.400895 196.922744 
L 574.011384 199.22633 
L 575.744094 206.141111 
L 576.24685 207.143099 
L 576.641872 207.497366 
L 576.983027 207.525457 
L 577.342138 207.317455 
L 577.808982 206.75636 
L 578.473338 205.562659 
L 579.640448 202.922276 
L 581.40907 199.014293 
L 582.226048 197.721747 
L 582.809603 197.174172 
L 583.258492 197.032178 
L 583.653514 197.140132 
L 584.066492 197.503202 
L 584.551291 198.253628 
L 585.188713 199.695162 
L 587.388268 205.063563 
L 587.917957 205.647739 
L 588.375824 205.846544 
L 588.815735 205.796936 
L 589.31849 205.499957 
L 589.96489 204.835992 
L 590.952445 203.459249 
L 593.421333 199.916806 
L 594.247288 199.157201 
L 594.893688 198.846736 
L 595.441332 198.819623 
L 595.971021 199.017306 
L 596.554577 199.487614 
L 597.272799 200.376962 
L 600.082842 204.195464 
L 600.720264 204.530831 
L 601.330753 204.605617 
L 601.98613 204.455629 
L 602.785152 204.029731 
L 603.970219 203.113278 
L 606.519907 201.098857 
L 607.552351 200.59338 
L 608.423195 200.405664 
L 609.240173 200.455723 
L 610.084083 200.736061 
L 611.089594 201.320832 
L 614.581949 203.574911 
L 615.578482 203.821197 
L 616.628881 203.848931 
L 617.921681 203.646635 
L 620.363636 202.980318 
L 622.599102 202.478623 
L 624.322835 202.319613 
L 626.028612 202.388573 
L 627.9319 202.696449 
L 630.63421 203.384201 
L 635.850298 204.964836 
L 638.004964 205.837294 
L 639.629941 206.731785 
L 641.021496 207.750083 
L 642.29634 208.960873 
L 643.50834 210.422597 
L 644.720339 212.241791 
L 645.986206 214.557174 
L 647.431627 217.691582 
L 649.774827 223.414207 
L 651.740959 227.958008 
L 653.078648 230.506221 
L 654.263714 232.304123 
L 655.412869 233.652834 
L 656.57998 234.683899 
L 657.836869 235.496291 
L 659.264335 236.150144 
L 661.023979 236.702231 
L 663.421045 237.20463 
L 667.182732 237.741581 
L 673.951975 238.455486 
L 682.795083 239.167268 
L 691.718991 239.666274 
L 700.669833 239.945876 
L 709.602719 240.004093 
L 718.661294 239.838594 
L 727.621114 239.454384 
L 736.7156 238.843276 
L 745.908841 238.003519 
L 755.245727 236.927926 
L 764.744213 235.610435 
L 774.44021 234.041308 
L 784.306785 232.220344 
L 794.317004 230.148714 
L 804.434956 227.827606 
L 813.340909 225.588349 
L 813.340909 225.588349 
" style="fill:none;stroke:#54518f;stroke-linecap:round;stroke-width:2;"/>
   </g>
   <g id="line2d_22">
    <path d="M 49.8 219.996004 
L 849.7 219.996004 
" style="fill:none;stroke:#54518f;stroke-linecap:round;stroke-width:2;"/>
   </g>
   <g id="text_2">
    <!-- v -->
    <defs>
     <path d="M 1.515625 54.6875 
L 19 54.6875 
L 32.625 16.890625 
L 46.1875 54.6875 
L 63.71875 54.6875 
L 42.1875 0 
L 23 0 
z
" id="DejaVuSans-Bold-118"/>
    </defs>
    <g style="fill:#54518f;" transform="translate(49.8 246.56182)scale(0.28 -0.28)">
     <use xlink:href="#DejaVuSans-Bold-118"/>
    </g>
   </g>
  </g>
  <g id="axes_3">
   <g id="patch_4">
    <path d="M 49.8 354.2 
L 849.7 354.2 
L 849.7 248.361074 
L 49.8 248.361074 
z
" style="fill:#eaeaf2;"/>
   </g>
   <g id="matplotlib.axis_5">
    <g id="xtick_19">
     <g id="line2d_23">
      <path clip-path="url(#p6e7489eed8)" d="M 77.172338 354.2 
L 77.172338 248.361074 
" style="fill:none;stroke:#ffffff;stroke-linecap:round;stroke-width:0.8;"/>
     </g>
     <g id="text_3">
      <!-- 0 -->
      <defs>
       <path d="M 31.78125 66.40625 
Q 24.171875 66.40625 20.328125 58.90625 
Q 16.5 51.421875 16.5 36.375 
Q 16.5 21.390625 20.328125 13.890625 
Q 24.171875 6.390625 31.78125 6.390625 
Q 39.453125 6.390625 43.28125 13.890625 
Q 47.125 21.390625 47.125 36.375 
Q 47.125 51.421875 43.28125 58.90625 
Q 39.453125 66.40625 31.78125 66.40625 
z
M 31.78125 74.21875 
Q 44.046875 74.21875 50.515625 64.515625 
Q 56.984375 54.828125 56.984375 36.375 
Q 56.984375 17.96875 50.515625 8.265625 
Q 44.046875 -1.421875 31.78125 -1.421875 
Q 19.53125 -1.421875 13.0625 8.265625 
Q 6.59375 17.96875 6.59375 36.375 
Q 6.59375 54.828125 13.0625 64.515625 
Q 19.53125 74.21875 31.78125 74.21875 
z
" id="DejaVuSans-48"/>
      </defs>
      <g style="fill:#262626;" transform="translate(68.264838 382.475625)scale(0.28 -0.28)">
       <use xlink:href="#DejaVuSans-48"/>
      </g>
     </g>
    </g>
    <g id="xtick_20">
     <g id="line2d_24">
      <path clip-path="url(#p6e7489eed8)" d="M 166.950088 354.2 
L 166.950088 248.361074 
" style="fill:none;stroke:#ffffff;stroke-linecap:round;stroke-width:0.8;"/>
     </g>
     <g id="text_4">
      <!-- 10 -->
      <defs>
       <path d="M 12.40625 8.296875 
L 28.515625 8.296875 
L 28.515625 63.921875 
L 10.984375 60.40625 
L 10.984375 69.390625 
L 28.421875 72.90625 
L 38.28125 72.90625 
L 38.28125 8.296875 
L 54.390625 8.296875 
L 54.390625 0 
L 12.40625 0 
z
" id="DejaVuSans-49"/>
      </defs>
      <g style="fill:#262626;" transform="translate(149.135088 382.475625)scale(0.28 -0.28)">
       <use xlink:href="#DejaVuSans-49"/>
       <use x="63.623047" xlink:href="#DejaVuSans-48"/>
      </g>
     </g>
    </g>
    <g id="xtick_21">
     <g id="line2d_25">
      <path clip-path="url(#p6e7489eed8)" d="M 256.727838 354.2 
L 256.727838 248.361074 
" style="fill:none;stroke:#ffffff;stroke-linecap:round;stroke-width:0.8;"/>
     </g>
     <g id="text_5">
      <!-- 20 -->
      <defs>
       <path d="M 19.1875 8.296875 
L 53.609375 8.296875 
L 53.609375 0 
L 7.328125 0 
L 7.328125 8.296875 
Q 12.9375 14.109375 22.625 23.890625 
Q 32.328125 33.6875 34.8125 36.53125 
Q 39.546875 41.84375 41.421875 45.53125 
Q 43.3125 49.21875 43.3125 52.78125 
Q 43.3125 58.59375 39.234375 62.25 
Q 35.15625 65.921875 28.609375 65.921875 
Q 23.96875 65.921875 18.8125 64.3125 
Q 13.671875 62.703125 7.8125 59.421875 
L 7.8125 69.390625 
Q 13.765625 71.78125 18.9375 73 
Q 24.125 74.21875 28.421875 74.21875 
Q 39.75 74.21875 46.484375 68.546875 
Q 53.21875 62.890625 53.21875 53.421875 
Q 53.21875 48.921875 51.53125 44.890625 
Q 49.859375 40.875 45.40625 35.40625 
Q 44.1875 33.984375 37.640625 27.21875 
Q 31.109375 20.453125 19.1875 8.296875 
z
" id="DejaVuSans-50"/>
      </defs>
      <g style="fill:#262626;" transform="translate(238.912838 382.475625)scale(0.28 -0.28)">
       <use xlink:href="#DejaVuSans-50"/>
       <use x="63.623047" xlink:href="#DejaVuSans-48"/>
      </g>
     </g>
    </g>
    <g id="xtick_22">
     <g id="line2d_26">
      <path clip-path="url(#p6e7489eed8)" d="M 346.505588 354.2 
L 346.505588 248.361074 
" style="fill:none;stroke:#ffffff;stroke-linecap:round;stroke-width:0.8;"/>
     </g>
     <g id="text_6">
      <!-- 30 -->
      <defs>
       <path d="M 40.578125 39.3125 
Q 47.65625 37.796875 51.625 33 
Q 55.609375 28.21875 55.609375 21.1875 
Q 55.609375 10.40625 48.1875 4.484375 
Q 40.765625 -1.421875 27.09375 -1.421875 
Q 22.515625 -1.421875 17.65625 -0.515625 
Q 12.796875 0.390625 7.625 2.203125 
L 7.625 11.71875 
Q 11.71875 9.328125 16.59375 8.109375 
Q 21.484375 6.890625 26.8125 6.890625 
Q 36.078125 6.890625 40.9375 10.546875 
Q 45.796875 14.203125 45.796875 21.1875 
Q 45.796875 27.640625 41.28125 31.265625 
Q 36.765625 34.90625 28.71875 34.90625 
L 20.21875 34.90625 
L 20.21875 43.015625 
L 29.109375 43.015625 
Q 36.375 43.015625 40.234375 45.921875 
Q 44.09375 48.828125 44.09375 54.296875 
Q 44.09375 59.90625 40.109375 62.90625 
Q 36.140625 65.921875 28.71875 65.921875 
Q 24.65625 65.921875 20.015625 65.03125 
Q 15.375 64.15625 9.8125 62.3125 
L 9.8125 71.09375 
Q 15.4375 72.65625 20.34375 73.4375 
Q 25.25 74.21875 29.59375 74.21875 
Q 40.828125 74.21875 47.359375 69.109375 
Q 53.90625 64.015625 53.90625 55.328125 
Q 53.90625 49.265625 50.4375 45.09375 
Q 46.96875 40.921875 40.578125 39.3125 
z
" id="DejaVuSans-51"/>
      </defs>
      <g style="fill:#262626;" transform="translate(328.690588 382.475625)scale(0.28 -0.28)">
       <use xlink:href="#DejaVuSans-51"/>
       <use x="63.623047" xlink:href="#DejaVuSans-48"/>
      </g>
     </g>
    </g>
    <g id="xtick_23">
     <g id="line2d_27">
      <path clip-path="url(#p6e7489eed8)" d="M 436.283338 354.2 
L 436.283338 248.361074 
" style="fill:none;stroke:#ffffff;stroke-linecap:round;stroke-width:0.8;"/>
     </g>
     <g id="text_7">
      <!-- 40 -->
      <defs>
       <path d="M 37.796875 64.3125 
L 12.890625 25.390625 
L 37.796875 25.390625 
z
M 35.203125 72.90625 
L 47.609375 72.90625 
L 47.609375 25.390625 
L 58.015625 25.390625 
L 58.015625 17.1875 
L 47.609375 17.1875 
L 47.609375 0 
L 37.796875 0 
L 37.796875 17.1875 
L 4.890625 17.1875 
L 4.890625 26.703125 
z
" id="DejaVuSans-52"/>
      </defs>
      <g style="fill:#262626;" transform="translate(418.468338 382.475625)scale(0.28 -0.28)">
       <use xlink:href="#DejaVuSans-52"/>
       <use x="63.623047" xlink:href="#DejaVuSans-48"/>
      </g>
     </g>
    </g>
    <g id="xtick_24">
     <g id="line2d_28">
      <path clip-path="url(#p6e7489eed8)" d="M 526.061087 354.2 
L 526.061087 248.361074 
" style="fill:none;stroke:#ffffff;stroke-linecap:round;stroke-width:0.8;"/>
     </g>
     <g id="text_8">
      <!-- 50 -->
      <defs>
       <path d="M 10.796875 72.90625 
L 49.515625 72.90625 
L 49.515625 64.59375 
L 19.828125 64.59375 
L 19.828125 46.734375 
Q 21.96875 47.46875 24.109375 47.828125 
Q 26.265625 48.1875 28.421875 48.1875 
Q 40.625 48.1875 47.75 41.5 
Q 54.890625 34.8125 54.890625 23.390625 
Q 54.890625 11.625 47.5625 5.09375 
Q 40.234375 -1.421875 26.90625 -1.421875 
Q 22.3125 -1.421875 17.546875 -0.640625 
Q 12.796875 0.140625 7.71875 1.703125 
L 7.71875 11.625 
Q 12.109375 9.234375 16.796875 8.0625 
Q 21.484375 6.890625 26.703125 6.890625 
Q 35.15625 6.890625 40.078125 11.328125 
Q 45.015625 15.765625 45.015625 23.390625 
Q 45.015625 31 40.078125 35.4375 
Q 35.15625 39.890625 26.703125 39.890625 
Q 22.75 39.890625 18.8125 39.015625 
Q 14.890625 38.140625 10.796875 36.28125 
z
" id="DejaVuSans-53"/>
      </defs>
      <g style="fill:#262626;" transform="translate(508.246087 382.475625)scale(0.28 -0.28)">
       <use xlink:href="#DejaVuSans-53"/>
       <use x="63.623047" xlink:href="#DejaVuSans-48"/>
      </g>
     </g>
    </g>
    <g id="xtick_25">
     <g id="line2d_29">
      <path clip-path="url(#p6e7489eed8)" d="M 615.838837 354.2 
L 615.838837 248.361074 
" style="fill:none;stroke:#ffffff;stroke-linecap:round;stroke-width:0.8;"/>
     </g>
     <g id="text_9">
      <!-- 60 -->
      <defs>
       <path d="M 33.015625 40.375 
Q 26.375 40.375 22.484375 35.828125 
Q 18.609375 31.296875 18.609375 23.390625 
Q 18.609375 15.53125 22.484375 10.953125 
Q 26.375 6.390625 33.015625 6.390625 
Q 39.65625 6.390625 43.53125 10.953125 
Q 47.40625 15.53125 47.40625 23.390625 
Q 47.40625 31.296875 43.53125 35.828125 
Q 39.65625 40.375 33.015625 40.375 
z
M 52.59375 71.296875 
L 52.59375 62.3125 
Q 48.875 64.0625 45.09375 64.984375 
Q 41.3125 65.921875 37.59375 65.921875 
Q 27.828125 65.921875 22.671875 59.328125 
Q 17.53125 52.734375 16.796875 39.40625 
Q 19.671875 43.65625 24.015625 45.921875 
Q 28.375 48.1875 33.59375 48.1875 
Q 44.578125 48.1875 50.953125 41.515625 
Q 57.328125 34.859375 57.328125 23.390625 
Q 57.328125 12.15625 50.6875 5.359375 
Q 44.046875 -1.421875 33.015625 -1.421875 
Q 20.359375 -1.421875 13.671875 8.265625 
Q 6.984375 17.96875 6.984375 36.375 
Q 6.984375 53.65625 15.1875 63.9375 
Q 23.390625 74.21875 37.203125 74.21875 
Q 40.921875 74.21875 44.703125 73.484375 
Q 48.484375 72.75 52.59375 71.296875 
z
" id="DejaVuSans-54"/>
      </defs>
      <g style="fill:#262626;" transform="translate(598.023837 382.475625)scale(0.28 -0.28)">
       <use xlink:href="#DejaVuSans-54"/>
       <use x="63.623047" xlink:href="#DejaVuSans-48"/>
      </g>
     </g>
    </g>
    <g id="xtick_26">
     <g id="line2d_30">
      <path clip-path="url(#p6e7489eed8)" d="M 705.616587 354.2 
L 705.616587 248.361074 
" style="fill:none;stroke:#ffffff;stroke-linecap:round;stroke-width:0.8;"/>
     </g>
     <g id="text_10">
      <!-- 70 -->
      <defs>
       <path d="M 8.203125 72.90625 
L 55.078125 72.90625 
L 55.078125 68.703125 
L 28.609375 0 
L 18.3125 0 
L 43.21875 64.59375 
L 8.203125 64.59375 
z
" id="DejaVuSans-55"/>
      </defs>
      <g style="fill:#262626;" transform="translate(687.801587 382.475625)scale(0.28 -0.28)">
       <use xlink:href="#DejaVuSans-55"/>
       <use x="63.623047" xlink:href="#DejaVuSans-48"/>
      </g>
     </g>
    </g>
    <g id="xtick_27">
     <g id="line2d_31">
      <path clip-path="url(#p6e7489eed8)" d="M 795.394337 354.2 
L 795.394337 248.361074 
" style="fill:none;stroke:#ffffff;stroke-linecap:round;stroke-width:0.8;"/>
     </g>
     <g id="text_11">
      <!-- 80 -->
      <defs>
       <path d="M 31.78125 34.625 
Q 24.75 34.625 20.71875 30.859375 
Q 16.703125 27.09375 16.703125 20.515625 
Q 16.703125 13.921875 20.71875 10.15625 
Q 24.75 6.390625 31.78125 6.390625 
Q 38.8125 6.390625 42.859375 10.171875 
Q 46.921875 13.96875 46.921875 20.515625 
Q 46.921875 27.09375 42.890625 30.859375 
Q 38.875 34.625 31.78125 34.625 
z
M 21.921875 38.8125 
Q 15.578125 40.375 12.03125 44.71875 
Q 8.5 49.078125 8.5 55.328125 
Q 8.5 64.0625 14.71875 69.140625 
Q 20.953125 74.21875 31.78125 74.21875 
Q 42.671875 74.21875 48.875 69.140625 
Q 55.078125 64.0625 55.078125 55.328125 
Q 55.078125 49.078125 51.53125 44.71875 
Q 48 40.375 41.703125 38.8125 
Q 48.828125 37.15625 52.796875 32.3125 
Q 56.78125 27.484375 56.78125 20.515625 
Q 56.78125 9.90625 50.3125 4.234375 
Q 43.84375 -1.421875 31.78125 -1.421875 
Q 19.734375 -1.421875 13.25 4.234375 
Q 6.78125 9.90625 6.78125 20.515625 
Q 6.78125 27.484375 10.78125 32.3125 
Q 14.796875 37.15625 21.921875 38.8125 
z
M 18.3125 54.390625 
Q 18.3125 48.734375 21.84375 45.5625 
Q 25.390625 42.390625 31.78125 42.390625 
Q 38.140625 42.390625 41.71875 45.5625 
Q 45.3125 48.734375 45.3125 54.390625 
Q 45.3125 60.0625 41.71875 63.234375 
Q 38.140625 66.40625 31.78125 66.40625 
Q 25.390625 66.40625 21.84375 63.234375 
Q 18.3125 60.0625 18.3125 54.390625 
z
" id="DejaVuSans-56"/>
      </defs>
      <g style="fill:#262626;" transform="translate(777.579337 382.475625)scale(0.28 -0.28)">
       <use xlink:href="#DejaVuSans-56"/>
       <use x="63.623047" xlink:href="#DejaVuSans-48"/>
      </g>
     </g>
    </g>
    <g id="text_12">
     <!-- time -->
     <defs>
      <path d="M 27.484375 70.21875 
L 27.484375 54.6875 
L 45.515625 54.6875 
L 45.515625 42.1875 
L 27.484375 42.1875 
L 27.484375 19 
Q 27.484375 15.1875 29 13.84375 
Q 30.515625 12.5 35.015625 12.5 
L 44 12.5 
L 44 0 
L 29 0 
Q 18.65625 0 14.328125 4.3125 
Q 10.015625 8.640625 10.015625 19 
L 10.015625 42.1875 
L 1.3125 42.1875 
L 1.3125 54.6875 
L 10.015625 54.6875 
L 10.015625 70.21875 
z
" id="DejaVuSans-Bold-116"/>
      <path d="M 8.40625 54.6875 
L 25.875 54.6875 
L 25.875 0 
L 8.40625 0 
z
M 8.40625 75.984375 
L 25.875 75.984375 
L 25.875 61.71875 
L 8.40625 61.71875 
z
" id="DejaVuSans-Bold-105"/>
      <path d="M 59.078125 45.609375 
Q 62.40625 50.6875 66.96875 53.34375 
Q 71.53125 56 77 56 
Q 86.421875 56 91.359375 50.1875 
Q 96.296875 44.390625 96.296875 33.296875 
L 96.296875 0 
L 78.71875 0 
L 78.71875 28.515625 
Q 78.765625 29.15625 78.78125 29.828125 
Q 78.8125 30.515625 78.8125 31.78125 
Q 78.8125 37.59375 77.09375 40.203125 
Q 75.390625 42.828125 71.578125 42.828125 
Q 66.609375 42.828125 63.890625 38.71875 
Q 61.1875 34.625 61.078125 26.859375 
L 61.078125 0 
L 43.5 0 
L 43.5 28.515625 
Q 43.5 37.59375 41.9375 40.203125 
Q 40.375 42.828125 36.375 42.828125 
Q 31.34375 42.828125 28.609375 38.703125 
Q 25.875 34.578125 25.875 26.90625 
L 25.875 0 
L 8.296875 0 
L 8.296875 54.6875 
L 25.875 54.6875 
L 25.875 46.6875 
Q 29.109375 51.3125 33.28125 53.65625 
Q 37.453125 56 42.484375 56 
Q 48.140625 56 52.484375 53.265625 
Q 56.84375 50.53125 59.078125 45.609375 
z
" id="DejaVuSans-Bold-109"/>
      <path d="M 62.984375 27.484375 
L 62.984375 22.515625 
L 22.125 22.515625 
Q 22.75 16.359375 26.5625 13.28125 
Q 30.375 10.203125 37.203125 10.203125 
Q 42.71875 10.203125 48.5 11.84375 
Q 54.296875 13.484375 60.40625 16.796875 
L 60.40625 3.328125 
Q 54.203125 0.984375 48 -0.21875 
Q 41.796875 -1.421875 35.59375 -1.421875 
Q 20.75 -1.421875 12.515625 6.125 
Q 4.296875 13.671875 4.296875 27.296875 
Q 4.296875 40.671875 12.375 48.328125 
Q 20.453125 56 34.625 56 
Q 47.515625 56 55.25 48.234375 
Q 62.984375 40.484375 62.984375 27.484375 
z
M 45.015625 33.296875 
Q 45.015625 38.28125 42.109375 41.328125 
Q 39.203125 44.390625 34.515625 44.390625 
Q 29.4375 44.390625 26.265625 41.53125 
Q 23.09375 38.671875 22.3125 33.296875 
z
" id="DejaVuSans-Bold-101"/>
     </defs>
     <g style="fill:#262626;" transform="translate(414.174688 413.574375)scale(0.28 -0.28)">
      <use xlink:href="#DejaVuSans-Bold-116"/>
      <use x="47.802734" xlink:href="#DejaVuSans-Bold-105"/>
      <use x="82.080078" xlink:href="#DejaVuSans-Bold-109"/>
      <use x="186.279297" xlink:href="#DejaVuSans-Bold-101"/>
     </g>
    </g>
   </g>
   <g id="matplotlib.axis_6"/>
   <g id="line2d_32">
    <path clip-path="url(#p6e7489eed8)" d="M 86.159091 324.498714 
L 113.07446 324.498714 
L 113.191171 309.830558 
L 120.238725 307.468597 
L 126.801478 305.500971 
L 133.014099 303.868475 
L 138.966363 302.532591 
L 144.721117 301.467213 
L 150.341204 300.651871 
L 155.853558 300.075931 
L 161.303068 299.72968 
L 166.716666 299.608496 
L 172.121286 299.710098 
L 177.543862 300.034634 
L 183.020305 300.585717 
L 188.577548 301.369158 
L 194.251502 302.394417 
L 200.096033 303.677957 
L 206.156031 305.238327 
L 212.512296 307.107089 
L 219.263583 309.326745 
L 226.589447 311.973453 
L 234.813089 315.187084 
L 244.73353 319.313506 
L 261.665614 326.646418 
L 275.500365 332.527857 
L 284.702585 336.200935 
L 292.531204 339.090956 
L 299.596713 341.465999 
L 306.168445 343.443305 
L 312.390043 345.085102 
L 318.351285 346.429803 
L 324.115017 347.503436 
L 329.735104 348.325297 
L 335.247458 348.907821 
L 340.696967 349.260707 
L 346.110566 349.388545 
L 351.515186 349.293589 
L 356.937762 348.975666 
L 362.414205 348.431144 
L 367.971448 347.654177 
L 373.645401 346.635276 
L 379.480955 345.360085 
L 385.531976 343.808536 
L 391.879262 341.948981 
L 398.621571 339.73878 
L 405.92948 337.104974 
L 414.117211 333.911778 
L 423.96583 329.821503 
L 440.206625 322.791482 
L 454.660843 316.632595 
L 463.934884 312.920905 
L 471.799415 310.008012 
L 478.891858 307.614562 
L 485.481544 305.622763 
L 491.71212 303.969636 
L 497.682341 302.614019 
L 503.45505 301.529982 
L 509.084115 300.698296 
L 514.605446 300.106586 
L 520.054956 299.745596 
L 525.468554 299.609626 
L 530.873175 299.696457 
L 536.295751 300.006295 
L 541.763216 300.541732 
L 547.311481 301.308996 
L 552.976457 302.317633 
L 558.803033 303.582067 
L 564.845075 305.122456 
L 571.174407 306.967776 
L 577.89876 309.163001 
L 585.179736 311.778012 
L 593.322578 314.94467 
L 603.072441 318.985125 
L 618.541147 325.675119 
L 633.839276 332.208868 
L 643.194118 335.962152 
L 651.09456 338.897078 
L 658.204957 341.305151 
L 664.803622 343.308246 
L 671.043176 344.972363 
L 677.022374 346.338553 
L 682.795083 347.431128 
L 688.424148 348.271499 
L 693.94548 348.871987 
L 699.394989 349.241814 
L 704.808587 349.386652 
L 710.213208 349.308686 
L 715.635784 349.007672 
L 721.103249 348.480982 
L 726.651514 347.722357 
L 732.31649 346.722211 
L 738.143066 345.466074 
L 744.176131 343.936176 
L 750.496484 342.101667 
L 757.202882 339.920505 
L 764.456924 337.323444 
L 772.563855 334.178972 
L 782.232919 330.179927 
L 797.145003 323.736426 
L 813.188287 316.874111 
L 813.340909 316.810868 
L 813.340909 316.810868 
" style="fill:none;stroke:#1d132d;stroke-linecap:round;stroke-width:2;"/>
   </g>
   <g id="line2d_33">
    <path d="M 49.8 324.776541 
L 849.7 324.776541 
" style="fill:none;stroke:#1d132d;stroke-linecap:round;stroke-width:2;"/>
   </g>
   <g id="text_13">
    <!-- input -->
    <defs>
     <path d="M 63.375 33.296875 
L 63.375 0 
L 45.796875 0 
L 45.796875 5.421875 
L 45.796875 25.484375 
Q 45.796875 32.5625 45.484375 35.25 
Q 45.171875 37.9375 44.390625 39.203125 
Q 43.359375 40.921875 41.59375 41.875 
Q 39.84375 42.828125 37.59375 42.828125 
Q 32.125 42.828125 29 38.59375 
Q 25.875 34.375 25.875 26.90625 
L 25.875 0 
L 8.40625 0 
L 8.40625 54.6875 
L 25.875 54.6875 
L 25.875 46.6875 
Q 29.828125 51.46875 34.265625 53.734375 
Q 38.71875 56 44.09375 56 
Q 53.5625 56 58.46875 50.1875 
Q 63.375 44.390625 63.375 33.296875 
z
" id="DejaVuSans-Bold-110"/>
     <path d="M 25.875 7.90625 
L 25.875 -20.796875 
L 8.40625 -20.796875 
L 8.40625 54.6875 
L 25.875 54.6875 
L 25.875 46.6875 
Q 29.5 51.46875 33.890625 53.734375 
Q 38.28125 56 44 56 
Q 54.109375 56 60.59375 47.96875 
Q 67.09375 39.9375 67.09375 27.296875 
Q 67.09375 14.65625 60.59375 6.609375 
Q 54.109375 -1.421875 44 -1.421875 
Q 38.28125 -1.421875 33.890625 0.84375 
Q 29.5 3.125 25.875 7.90625 
z
M 37.5 43.3125 
Q 31.890625 43.3125 28.875 39.1875 
Q 25.875 35.0625 25.875 27.296875 
Q 25.875 19.53125 28.875 15.40625 
Q 31.890625 11.28125 37.5 11.28125 
Q 43.109375 11.28125 46.0625 15.375 
Q 49.03125 19.484375 49.03125 27.296875 
Q 49.03125 35.109375 46.0625 39.203125 
Q 43.109375 43.3125 37.5 43.3125 
z
" id="DejaVuSans-Bold-112"/>
     <path d="M 7.8125 21.296875 
L 7.8125 54.6875 
L 25.390625 54.6875 
L 25.390625 49.21875 
Q 25.390625 44.78125 25.34375 38.0625 
Q 25.296875 31.34375 25.296875 29.109375 
Q 25.296875 22.515625 25.640625 19.609375 
Q 25.984375 16.703125 26.8125 15.375 
Q 27.875 13.671875 29.609375 12.734375 
Q 31.34375 11.8125 33.59375 11.8125 
Q 39.0625 11.8125 42.1875 16.015625 
Q 45.3125 20.21875 45.3125 27.6875 
L 45.3125 54.6875 
L 62.796875 54.6875 
L 62.796875 0 
L 45.3125 0 
L 45.3125 7.90625 
Q 41.359375 3.125 36.9375 0.84375 
Q 32.515625 -1.421875 27.203125 -1.421875 
Q 17.71875 -1.421875 12.765625 4.390625 
Q 7.8125 10.203125 7.8125 21.296875 
z
" id="DejaVuSans-Bold-117"/>
    </defs>
    <g style="fill:#1d132d;" transform="translate(49.8 351.342357)scale(0.28 -0.28)">
     <use xlink:href="#DejaVuSans-Bold-105"/>
     <use x="34.277344" xlink:href="#DejaVuSans-Bold-110"/>
     <use x="105.46875" xlink:href="#DejaVuSans-Bold-112"/>
     <use x="177.050781" xlink:href="#DejaVuSans-Bold-117"/>
     <use x="248.242188" xlink:href="#DejaVuSans-Bold-116"/>
    </g>
   </g>
  </g>
 </g>
 <defs>
  <clipPath id="p31b130ba67">
   <rect height="105.838926" width="799.9" x="49.8" y="38.8"/>
  </clipPath>
  <clipPath id="p2bd54d342d">
   <rect height="105.838926" width="799.9" x="49.8" y="143.580537"/>
  </clipPath>
  <clipPath id="p6e7489eed8">
   <rect height="105.838926" width="799.9" x="49.8" y="248.361074"/>
  </clipPath>
 </defs>
</svg>
