<?xml version="1.0" encoding="utf-8" standalone="no"?>
<!DOCTYPE svg PUBLIC "-//W3C//DTD SVG 1.1//EN"
  "http://www.w3.org/Graphics/SVG/1.1/DTD/svg11.dtd">
<!-- Created with matplotlib (https://matplotlib.org/) -->
<svg height="396pt" version="1.1" viewBox="0 0 720 396" width="720pt" xmlns="http://www.w3.org/2000/svg" xmlns:xlink="http://www.w3.org/1999/xlink">
 <defs>
  <style type="text/css">
*{stroke-linecap:butt;stroke-linejoin:round;}
  </style>
 </defs>
 <g id="figure_1">
  <g id="patch_1">
   <path d="M 0 396 
L 720 396 
L 720 0 
L 0 0 
z
" style="fill:#ffffff;"/>
  </g>
  <g id="axes_1">
   <g id="patch_2">
    <path d="M 41.5 132.585682 
L 708.083333 132.585682 
L 708.083333 35.566667 
L 41.5 35.566667 
z
" style="fill:#eaeaf2;"/>
   </g>
   <g id="matplotlib.axis_1">
    <g id="xtick_1">
     <g id="line2d_1">
      <path clip-path="url(#paedc1c239e)" d="M 64.310282 132.585682 
L 64.310282 35.566667 
" style="fill:none;stroke:#ffffff;stroke-linecap:round;stroke-width:0.8;"/>
     </g>
    </g>
    <g id="xtick_2">
     <g id="line2d_2">
      <path clip-path="url(#paedc1c239e)" d="M 213.939865 132.585682 
L 213.939865 35.566667 
" style="fill:none;stroke:#ffffff;stroke-linecap:round;stroke-width:0.8;"/>
     </g>
    </g>
    <g id="xtick_3">
     <g id="line2d_3">
      <path clip-path="url(#paedc1c239e)" d="M 363.569448 132.585682 
L 363.569448 35.566667 
" style="fill:none;stroke:#ffffff;stroke-linecap:round;stroke-width:0.8;"/>
     </g>
    </g>
    <g id="xtick_4">
     <g id="line2d_4">
      <path clip-path="url(#paedc1c239e)" d="M 513.199031 132.585682 
L 513.199031 35.566667 
" style="fill:none;stroke:#ffffff;stroke-linecap:round;stroke-width:0.8;"/>
     </g>
    </g>
    <g id="xtick_5">
     <g id="line2d_5">
      <path clip-path="url(#paedc1c239e)" d="M 662.828614 132.585682 
L 662.828614 35.566667 
" style="fill:none;stroke:#ffffff;stroke-linecap:round;stroke-width:0.8;"/>
     </g>
    </g>
   </g>
   <g id="matplotlib.axis_2"/>
   <g id="line2d_6">
    <path clip-path="url(#paedc1c239e)" d="M 71.799242 113.09584 
L 74.395316 112.806158 
L 79.983981 112.458736 
L 94.138939 111.583706 
L 94.991828 111.404614 
L 95.814791 110.98689 
L 96.645235 110.312882 
L 97.438271 109.376264 
L 98.163975 108.167477 
L 98.829827 106.613575 
L 99.443308 104.592591 
L 100.0119 101.908752 
L 100.535604 98.30811 
L 101.029381 93.274026 
L 101.500715 86.030126 
L 101.972048 75.069535 
L 102.555603 55.507865 
L 103.064344 41.032788 
L 103.221455 39.976923 
L 103.243899 40.008643 
L 103.326196 40.516435 
L 103.490788 43.245356 
L 103.819973 53.359197 
L 104.680343 80.092095 
L 105.204047 89.322825 
L 105.720269 94.792995 
L 106.236491 98.09368 
L 106.745232 100.022245 
L 107.209083 101.001378 
L 107.613083 101.393211 
L 107.94975 101.439967 
L 108.278935 101.256327 
L 108.653009 100.772672 
L 109.086935 99.818498 
L 109.565749 98.19185 
L 110.07449 95.616078 
L 110.590712 91.769119 
L 111.114415 86.055963 
L 111.660563 77.46635 
L 113.067081 53.489784 
L 113.126933 53.463322 
L 113.164341 53.52187 
L 113.284044 54.08993 
L 113.501007 56.461347 
L 113.905007 63.901718 
L 114.892562 82.24165 
L 115.468636 88.748763 
L 116.007303 92.524171 
L 116.508562 94.616636 
L 116.949969 95.609401 
L 117.301599 95.929622 
L 117.585895 95.912029 
L 117.877673 95.645561 
L 118.229302 94.985695 
L 118.648265 93.682424 
L 119.12708 91.40442 
L 119.650783 87.73961 
L 120.219376 82.055144 
L 120.930116 72.430605 
L 121.730634 62.210614 
L 122.022412 60.751295 
L 122.127153 60.693607 
L 122.157079 60.724029 
L 122.291745 61.114315 
L 122.51619 62.617631 
L 122.897745 66.976617 
L 124.319226 84.527581 
L 124.8953 88.536338 
L 125.404041 90.684911 
L 125.837966 91.674042 
L 126.174633 91.975376 
L 126.443966 91.94346 
L 126.728262 91.65339 
L 127.079892 90.92808 
L 127.506336 89.480609 
L 128.007595 86.913672 
L 128.583669 82.696654 
L 129.331817 75.360163 
L 130.237076 66.875148 
L 130.566261 65.522947 
L 130.730854 65.409253 
L 130.745817 65.418347 
L 130.887965 65.664184 
L 131.112409 66.606514 
L 131.47152 69.246327 
L 133.484038 86.021099 
L 134.007742 87.975661 
L 134.434186 88.816518 
L 134.763371 89.043718 
L 135.025223 88.974414 
L 135.317 88.641744 
L 135.683593 87.843243 
L 136.132482 86.280463 
L 136.67863 83.498845 
L 137.381889 78.626237 
L 138.616333 69.948665 
L 138.960481 68.935194 
L 139.162481 68.842416 
L 139.327073 69.04999 
L 139.573962 69.808274 
L 139.955518 71.835238 
L 140.823369 78.07232 
L 141.631369 83.042901 
L 142.214924 85.379047 
L 142.686257 86.466682 
L 143.060331 86.846016 
L 143.352109 86.856997 
L 143.643887 86.625242 
L 143.995516 86.02992 
L 144.436924 84.804207 
L 144.990553 82.552255 
L 145.768627 78.332816 
L 146.823515 72.776405 
L 147.227515 71.707574 
L 147.481886 71.53295 
L 147.668923 71.664145 
L 147.915811 72.158411 
L 148.282404 73.464709 
L 148.933292 76.77983 
L 150.048033 82.291988 
L 150.654033 84.216634 
L 151.132847 85.077569 
L 151.506921 85.34766 
L 151.813662 85.312662 
L 152.135366 85.034882 
L 152.531884 84.365515 
L 153.033143 83.036892 
L 153.706476 80.548746 
L 155.277587 74.498299 
L 155.659142 73.895066 
L 155.920994 73.827654 
L 156.160401 74.018124 
L 156.474623 74.605776 
L 156.938475 76.025101 
L 159.130549 83.49295 
L 159.616845 84.182248 
L 160.005882 84.395033 
L 160.35003 84.336955 
L 160.716622 84.030367 
L 161.165511 83.333615 
L 161.749066 81.970119 
L 162.72914 78.993679 
L 163.582029 76.697439 
L 164.038399 76.023388 
L 164.367584 75.880557 
L 164.65188 76.002046 
L 164.988547 76.421981 
L 165.45988 77.419406 
L 166.365139 79.995349 
L 167.322768 82.455346 
L 167.93625 83.46622 
L 168.422546 83.878244 
L 168.834027 83.95186 
L 169.230545 83.791725 
L 169.686916 83.346806 
L 170.26299 82.444388 
L 171.183212 80.5135 
L 172.193211 78.542569 
L 172.701952 77.987601 
L 173.083507 77.862086 
L 173.435137 77.981256 
L 173.839137 78.377496 
L 174.392766 79.274101 
L 176.771876 83.546135 
L 177.318024 83.929287 
L 177.796839 84.006678 
L 178.275654 83.852233 
L 178.821802 83.424078 
L 179.547505 82.539678 
L 181.387949 80.16589 
L 181.911653 79.901443 
L 182.360541 79.918327 
L 182.824393 80.170002 
L 183.400467 80.759915 
L 184.373059 82.13842 
L 185.577577 83.734568 
L 186.295799 84.32992 
L 186.901799 84.559984 
L 187.485355 84.545447 
L 188.113799 84.298671 
L 188.921799 83.720437 
L 190.896909 82.20889 
L 191.525353 82.059555 
L 192.101427 82.149787 
L 192.729871 82.483465 
L 193.567797 83.207015 
L 195.804759 85.253855 
L 196.612759 85.634284 
L 197.37587 85.750644 
L 198.191351 85.642718 
L 199.276166 85.251798 
L 201.049276 84.614488 
L 201.894683 84.568838 
L 202.695202 84.750676 
L 203.615424 85.200311 
L 205.223942 86.292184 
L 206.712756 87.184662 
L 207.820015 87.590428 
L 208.934755 87.7585 
L 210.348755 87.72807 
L 212.80268 87.659127 
L 214.037124 87.880866 
L 215.353864 88.354078 
L 217.426234 89.378094 
L 219.865196 90.506388 
L 221.817862 91.149157 
L 229.000082 93.241648 
L 231.394156 94.377695 
L 234.379266 96.053311 
L 237.446672 98.022572 
L 239.990375 99.91326 
L 242.242301 101.864458 
L 244.456818 104.083911 
L 247.180077 107.157105 
L 250.516816 110.875292 
L 252.162742 112.365637 
L 253.614149 113.38779 
L 255.050593 114.130121 
L 256.599259 114.677084 
L 258.417258 115.075063 
L 260.788887 115.353115 
L 264.454812 115.535402 
L 272.392661 115.657879 
L 293.894433 115.735513 
L 318.478573 115.611755 
L 337.960345 115.304516 
L 351.314785 114.888297 
L 360.300042 114.40136 
L 366.375003 113.863597 
L 370.594557 113.27931 
L 373.617074 112.647038 
L 375.854037 111.961262 
L 377.567295 111.211304 
L 378.928925 110.37743 
L 380.043665 109.436356 
L 380.986331 108.349385 
L 381.809294 107.056543 
L 382.542479 105.482612 
L 383.215812 103.48939 
L 383.836775 100.921701 
L 384.412849 97.554733 
L 384.966478 92.918201 
L 385.505145 86.393389 
L 386.066256 76.670289 
L 387.315663 53.594048 
L 387.420403 53.387482 
L 387.465292 53.446792 
L 387.584996 54.031498 
L 387.794477 56.411182 
L 388.190996 64.036137 
L 389.186033 83.416503 
L 389.769588 90.347035 
L 390.330699 94.556691 
L 390.876847 97.105749 
L 391.393069 98.544756 
L 391.849439 99.228686 
L 392.238476 99.451532 
L 392.582624 99.399086 
L 392.941735 99.103132 
L 393.360698 98.439406 
L 393.832031 97.245025 
L 394.348253 95.295967 
L 394.894401 92.313996 
L 395.462994 87.898126 
L 396.076475 81.263806 
L 397.692474 62.402493 
L 397.834622 62.236903 
L 397.864548 62.258393 
L 397.991734 62.565696 
L 398.201215 63.78736 
L 398.552844 67.400905 
L 400.288548 87.391734 
L 400.872103 90.862689 
L 401.395807 92.7624 
L 401.844695 93.653068 
L 402.203806 93.941851 
L 402.503065 93.916139 
L 402.809806 93.645612 
L 403.176399 92.995661 
L 403.617806 91.717959 
L 404.126546 89.507676 
L 404.70262 85.92614 
L 405.375953 80.205511 
L 406.797434 67.62274 
L 407.081731 66.871536 
L 407.223879 66.893377 
L 407.388471 67.249448 
L 407.642842 68.437814 
L 408.061804 71.652896 
L 409.722693 85.513266 
L 410.306248 88.196896 
L 410.800026 89.528323 
L 411.196544 90.039651 
L 411.503285 90.117896 
L 411.787581 89.951866 
L 412.124248 89.461818 
L 412.535729 88.427073 
L 413.036988 86.501705 
L 413.635506 83.234614 
L 414.465951 77.285006 
L 415.37121 71.199202 
L 415.752765 69.931635 
L 415.977209 69.755211 
L 416.141802 69.908024 
L 416.373728 70.50888 
L 416.725357 72.145234 
L 417.376246 76.47025 
L 418.40869 83.016562 
L 419.022171 85.564362 
L 419.523431 86.796936 
L 419.912467 87.248963 
L 420.219208 87.307116 
L 420.510986 87.124954 
L 420.855134 86.617821 
L 421.28906 85.534729 
L 421.827726 83.525118 
L 422.538467 79.907819 
L 423.907577 72.779422 
L 424.281651 71.922706 
L 424.521059 71.809076 
L 424.715577 71.975014 
L 424.977429 72.542087 
L 425.373947 74.019111 
L 426.14454 77.971386 
L 427.087206 82.395926 
L 427.685724 84.217717 
L 428.149576 85.008106 
L 428.516168 85.249274 
L 428.822909 85.196339 
L 429.152094 84.887817 
L 429.556094 84.165 
L 430.064835 82.749845 
L 430.753131 80.097052 
L 432.241945 74.166176 
L 432.630982 73.493902 
L 432.892834 73.401677 
L 433.12476 73.568801 
L 433.424019 74.105725 
L 433.865426 75.427848 
L 434.8455 79.310705 
L 435.660981 82.04933 
L 436.222092 83.233947 
L 436.656018 83.699191 
L 437.007647 83.784065 
L 437.336832 83.630972 
L 437.718388 83.183042 
L 438.197202 82.240754 
L 438.84061 80.425932 
L 440.583794 75.218609 
L 440.96535 74.793523 
L 441.249646 74.768028 
L 441.526461 74.9826 
L 441.885572 75.577551 
L 442.424238 76.963245 
L 444.189867 81.816875 
L 444.721052 82.553713 
L 445.140015 82.796547 
L 445.506608 82.762405 
L 445.888163 82.490855 
L 446.352015 81.861855 
L 446.965496 80.61438 
L 448.948088 76.255504 
L 449.337125 76.00351 
L 449.658829 76.048803 
L 450.002977 76.343113 
L 450.459347 77.063306 
L 451.229939 78.776399 
L 452.352161 81.160529 
L 452.950679 81.942929 
L 453.429494 82.234741 
L 453.848457 82.237465 
L 454.274901 82.006992 
L 454.783642 81.455827 
L 455.479419 80.332903 
L 457.095419 77.615599 
L 457.574234 77.267382 
L 457.96327 77.242682 
L 458.352307 77.451029 
L 458.831122 77.984252 
L 459.57927 79.204142 
L 460.89601 81.325146 
L 461.516973 81.911325 
L 462.025714 82.109926 
L 462.504528 82.059613 
L 463.013269 81.772112 
L 463.656676 81.127768 
L 465.916083 78.606922 
L 466.394897 78.516323 
L 466.851268 78.658148 
L 467.382453 79.073237 
L 468.168008 80.011514 
L 469.641859 81.779707 
L 470.315193 82.230017 
L 470.891266 82.359702 
L 471.459859 82.258519 
L 472.110747 81.903101 
L 473.098303 81.068879 
L 474.257932 80.163888 
L 474.893858 79.942622 
L 475.454969 79.980132 
L 476.046006 80.251286 
L 476.824079 80.879496 
L 478.911412 82.68385 
L 479.644597 82.962744 
L 480.332893 82.987935 
L 481.088522 82.783475 
L 482.218226 82.209581 
L 483.475114 81.64072 
L 484.223262 81.545715 
L 484.926521 81.680986 
L 485.734521 82.07607 
L 487.260743 83.142116 
L 488.427854 83.808893 
L 489.325631 84.068976 
L 490.215927 84.092624 
L 491.330667 83.880554 
L 493.410519 83.453144 
L 494.345704 83.523626 
L 495.318296 83.827501 
L 496.724814 84.533711 
L 498.602665 85.428606 
L 499.79222 85.737371 
L 501.064072 85.829482 
L 504.902071 85.938149 
L 506.2637 86.335053 
L 508.597921 87.305032 
L 510.632884 88.032062 
L 512.503253 88.451584 
L 517.523326 89.435258 
L 519.76777 90.228392 
L 531.700729 95.039595 
L 534.356654 96.428886 
L 536.847987 97.983027 
L 539.182208 99.700769 
L 541.389244 101.602155 
L 543.596281 103.803678 
L 546.229761 106.769981 
L 549.910649 110.902069 
L 551.549093 112.384489 
L 553.0005 113.404056 
L 554.436944 114.143063 
L 555.98561 114.686624 
L 557.80361 115.081515 
L 560.190202 115.358228 
L 563.893534 115.539058 
L 572.130642 115.661914 
L 593.168562 115.735505 
L 617.737739 115.611755 
L 637.219511 115.304516 
L 650.573951 114.888297 
L 659.559208 114.40136 
L 665.634169 113.863597 
L 669.853723 113.27931 
L 672.876241 112.647038 
L 675.113203 111.961262 
L 676.826462 111.211304 
L 677.784091 110.654212 
L 677.784091 110.654212 
" style="fill:none;stroke:#6daea0;stroke-linecap:round;stroke-width:2;"/>
   </g>
   <g id="line2d_7">
    <path d="M 41.5 99.308799 
L 708.083333 99.308799 
" style="fill:none;stroke:#6daea0;stroke-linecap:round;stroke-width:2;"/>
   </g>
   <g id="text_1">
    <!-- r -->
    <defs>
     <path d="M 49.03125 39.796875 
Q 46.734375 40.875 44.453125 41.375 
Q 42.1875 41.890625 39.890625 41.890625 
Q 33.15625 41.890625 29.515625 37.5625 
Q 25.875 33.25 25.875 25.203125 
L 25.875 0 
L 8.40625 0 
L 8.40625 54.6875 
L 25.875 54.6875 
L 25.875 45.703125 
Q 29.25 51.078125 33.609375 53.53125 
Q 37.984375 56 44.09375 56 
Q 44.96875 56 45.984375 55.921875 
Q 47.015625 55.859375 48.96875 55.609375 
z
" id="DejaVuSans-Bold-114"/>
    </defs>
    <g style="fill:#6daea0;" transform="translate(41.5 130.610031)scale(0.28 -0.28)">
     <use xlink:href="#DejaVuSans-Bold-114"/>
    </g>
   </g>
  </g>
  <g id="axes_2">
   <g id="patch_3">
    <path d="M 41.5 228.634508 
L 708.083333 228.634508 
L 708.083333 131.615492 
L 41.5 131.615492 
z
" style="fill:#eaeaf2;"/>
   </g>
   <g id="matplotlib.axis_3">
    <g id="xtick_6">
     <g id="line2d_8">
      <path clip-path="url(#p8ad4b18f82)" d="M 64.310282 228.634508 
L 64.310282 131.615492 
" style="fill:none;stroke:#ffffff;stroke-linecap:round;stroke-width:0.8;"/>
     </g>
    </g>
    <g id="xtick_7">
     <g id="line2d_9">
      <path clip-path="url(#p8ad4b18f82)" d="M 213.939865 228.634508 
L 213.939865 131.615492 
" style="fill:none;stroke:#ffffff;stroke-linecap:round;stroke-width:0.8;"/>
     </g>
    </g>
    <g id="xtick_8">
     <g id="line2d_10">
      <path clip-path="url(#p8ad4b18f82)" d="M 363.569448 228.634508 
L 363.569448 131.615492 
" style="fill:none;stroke:#ffffff;stroke-linecap:round;stroke-width:0.8;"/>
     </g>
    </g>
    <g id="xtick_9">
     <g id="line2d_11">
      <path clip-path="url(#p8ad4b18f82)" d="M 513.199031 228.634508 
L 513.199031 131.615492 
" style="fill:none;stroke:#ffffff;stroke-linecap:round;stroke-width:0.8;"/>
     </g>
    </g>
    <g id="xtick_10">
     <g id="line2d_12">
      <path clip-path="url(#p8ad4b18f82)" d="M 662.828614 228.634508 
L 662.828614 131.615492 
" style="fill:none;stroke:#ffffff;stroke-linecap:round;stroke-width:0.8;"/>
     </g>
    </g>
   </g>
   <g id="matplotlib.axis_4"/>
   <g id="line2d_13">
    <path clip-path="url(#p8ad4b18f82)" d="M 71.799242 195.392114 
L 73.205761 195.486466 
L 75.255686 195.38165 
L 79.026351 194.930324 
L 87.734793 193.630689 
L 94.101532 192.482997 
L 94.251161 192.358452 
L 95.949457 185.412093 
L 97.48316 178.77503 
L 98.478197 173.444189 
L 99.323604 167.674637 
L 100.094197 160.833903 
L 100.864789 151.886431 
L 102.076789 137.463354 
L 102.159085 137.343244 
L 102.203974 137.40751 
L 102.308714 137.982257 
L 102.473307 140.370331 
L 102.697751 147.39453 
L 103.011973 165.522119 
L 103.872344 219.369145 
L 104.141677 223.841688 
L 104.268862 224.223535 
L 104.306269 224.179751 
L 104.425973 223.660809 
L 104.672862 221.311949 
L 105.323751 212.215348 
L 106.33375 199.281702 
L 107.336268 189.365392 
L 111.690489 151.414789 
L 111.825156 151.259667 
L 111.855082 151.281837 
L 111.967304 151.577972 
L 112.139378 152.792559 
L 112.378785 156.353789 
L 112.693007 164.813527 
L 113.269081 187.990472 
L 113.792785 204.889727 
L 114.12197 209.578765 
L 114.353896 210.513788 
L 114.451155 210.467327 
L 114.458637 210.454836 
L 114.615748 209.940811 
L 114.907525 208.033362 
L 115.513525 202.243266 
L 117.45871 183.298095 
L 119.927598 162.14548 
L 120.398931 159.686352 
L 120.638338 159.288213 
L 120.758042 159.403808 
L 120.922635 159.983071 
L 121.15456 161.769187 
L 121.461301 166.117091 
L 121.902708 176.078901 
L 122.867819 198.430687 
L 123.22693 201.950914 
L 123.4813 202.751431 
L 123.615967 202.72348 
L 123.78056 202.351786 
L 124.064856 201.048537 
L 124.573596 197.47388 
L 126.15967 183.975381 
L 127.962706 169.684539 
L 128.628558 165.882814 
L 128.987669 164.877704 
L 129.174706 164.817301 
L 129.324336 165.05542 
L 129.533817 165.882227 
L 129.818113 168.035407 
L 130.199669 172.837456 
L 130.940335 185.812757 
L 131.531372 194.149542 
L 131.912927 196.856238 
L 132.182261 197.529717 
L 132.346853 197.520229 
L 132.526409 197.209789 
L 132.818186 196.179213 
L 133.304483 193.501929 
L 134.292038 186.526948 
L 136.214778 173.106179 
L 136.865667 169.952537 
L 137.247222 168.991035 
L 137.471666 168.877952 
L 137.636259 169.05438 
L 137.860703 169.693737 
L 138.159963 171.322417 
L 138.563962 174.912458 
L 139.319592 184.167842 
L 139.97048 190.87196 
L 140.381962 193.126916 
L 140.67374 193.7418 
L 140.860776 193.760219 
L 141.055295 193.514497 
L 141.354554 192.705852 
L 141.818406 190.714168 
L 142.64885 185.992231 
L 144.579072 174.888835 
L 145.170108 172.727944 
L 145.536701 172.075138 
L 145.761145 172.02129 
L 145.955664 172.220772 
L 146.210034 172.857494 
L 146.546701 174.38039 
L 147.018034 177.692923 
L 148.589144 189.688578 
L 148.963218 190.737228 
L 149.22507 190.946238 
L 149.42707 190.846735 
L 149.696403 190.412951 
L 150.092922 189.279496 
L 150.713885 186.732367 
L 153.27255 175.488026 
L 153.713958 174.647059 
L 154.005735 174.48257 
L 154.23018 174.602478 
L 154.492032 175.034763 
L 154.83618 176.091842 
L 155.307513 178.354259 
L 157.140475 188.063001 
L 157.507068 188.680544 
L 157.776401 188.76871 
L 158.030771 188.598942 
L 158.359956 188.070173 
L 158.838771 186.825171 
L 159.631808 184.039427 
L 161.285215 178.176906 
L 161.861288 176.919698 
L 162.257807 176.507945 
L 162.542103 176.489118 
L 162.818918 176.713489 
L 163.155584 177.317279 
L 163.596992 178.623065 
L 164.292769 181.495653 
L 165.317732 185.569839 
L 165.811509 186.697436 
L 166.178102 187.066265 
L 166.477361 187.083083 
L 166.791583 186.855739 
L 167.203065 186.242966 
L 167.801583 184.894611 
L 170.397656 178.511163 
L 170.839063 178.127192 
L 171.183212 178.094279 
L 171.512397 178.297963 
L 171.901433 178.833944 
L 172.410174 179.960432 
L 173.360322 182.748506 
L 174.175803 184.81991 
L 174.692025 185.583194 
L 175.096025 185.82358 
L 175.455136 185.784596 
L 175.851654 185.49886 
L 176.367877 184.823897 
L 177.168395 183.357186 
L 178.821802 180.289748 
L 179.435283 179.621186 
L 179.906616 179.4085 
L 180.310616 179.462678 
L 180.729579 179.753923 
L 181.245801 180.412558 
L 182.008912 181.803264 
L 183.280763 184.093313 
L 183.864319 184.694839 
L 184.343133 184.89022 
L 184.792022 184.83638 
L 185.300763 184.536208 
L 185.966614 183.859004 
L 187.560169 181.784934 
L 188.428021 180.908314 
L 189.056465 180.567118 
L 189.58765 180.519281 
L 190.111354 180.697664 
L 190.709872 181.150779 
L 191.570242 182.118406 
L 193.006686 183.719007 
L 193.687501 184.137326 
L 194.286019 184.251893 
L 194.8995 184.137769 
L 195.632685 183.758693 
L 196.814759 182.852567 
L 198.228759 181.846087 
L 199.051721 181.529477 
L 199.769943 181.48552 
L 200.503128 181.669441 
L 201.378461 182.135212 
L 204.10172 183.75547 
L 204.947127 183.897153 
L 205.829941 183.814512 
L 206.952163 183.46887 
L 209.847496 182.480174 
L 210.939792 182.407065 
L 212.054532 182.561519 
L 213.528384 183.013639 
L 215.98979 183.768387 
L 217.388827 183.937757 
L 218.997345 183.896531 
L 224.069788 183.60497 
L 226.142157 183.826172 
L 229.284379 184.420286 
L 236.107488 185.939192 
L 238.29208 186.684457 
L 240.080153 187.526817 
L 241.651264 188.512225 
L 243.087708 189.677172 
L 244.449337 191.071327 
L 245.796003 192.776248 
L 247.187558 194.907934 
L 248.758669 197.742118 
L 251.212594 202.712618 
L 253.457038 207.062264 
L 254.930889 209.442999 
L 256.247629 211.159953 
L 257.526962 212.470272 
L 258.843703 213.503936 
L 260.280147 214.346987 
L 261.941035 215.057264 
L 263.99096 215.682288 
L 266.744145 216.275032 
L 270.694366 216.881321 
L 275.97629 217.46067 
L 281.924066 217.888306 
L 288.021471 218.101387 
L 294.13384 218.091388 
L 300.223764 217.860896 
L 306.381021 217.40472 
L 312.523316 216.725515 
L 318.568351 215.836315 
L 324.628349 214.720877 
L 330.583606 213.399044 
L 336.441605 211.869208 
L 342.052714 210.173469 
L 347.349601 208.342064 
L 352.257451 206.413142 
L 356.716413 204.425827 
L 360.689078 202.416178 
L 364.160485 200.416295 
L 367.175521 198.42734 
L 369.764113 196.458563 
L 372.001075 194.481493 
L 373.931297 192.481593 
L 375.607148 190.427857 
L 377.080999 188.270573 
L 378.390258 185.95668 
L 379.557369 183.438621 
L 380.612257 180.628958 
L 381.577368 177.417485 
L 382.475146 173.639539 
L 383.328034 169.051645 
L 384.16596 163.276248 
L 385.265737 153.89791 
L 385.864256 149.713235 
L 386.096182 149.204744 
L 386.193441 149.333345 
L 386.34307 150.050489 
L 386.552552 152.371357 
L 386.829367 158.348654 
L 387.210922 172.196708 
L 388.131144 207.125903 
L 388.452848 211.592127 
L 388.677292 212.459732 
L 388.782033 212.401394 
L 388.939144 211.901895 
L 389.230921 210.074844 
L 389.896773 204.102384 
L 391.280847 192.034741 
L 392.732254 181.614784 
L 396.076475 159.440395 
L 396.300919 159.180407 
L 396.428104 159.328945 
L 396.60766 159.988008 
L 396.854549 161.915832 
L 397.176252 166.465368 
L 397.632623 176.578218 
L 398.58277 198.019598 
L 398.956844 201.793745 
L 399.226178 202.750863 
L 399.375807 202.779752 
L 399.383289 202.773249 
L 399.547881 202.464308 
L 399.824696 201.367988 
L 400.318474 198.328669 
L 401.777362 187.33147 
L 404.036769 171.203723 
L 404.867213 166.518785 
L 405.278694 165.229243 
L 405.51062 165.047723 
L 405.66025 165.204324 
L 405.86225 165.81712 
L 406.131583 167.449704 
L 406.490694 171.184382 
L 407.02936 179.526991 
L 407.927138 193.120895 
L 408.338619 196.267718 
L 408.637878 197.160247 
L 408.824915 197.217296 
L 409.004471 196.974979 
L 409.281286 196.149058 
L 409.737656 193.964373 
L 410.598026 188.531037 
L 413.081877 172.528921 
L 413.70284 169.904958 
L 414.069432 169.145191 
L 414.278914 169.089142 
L 414.458469 169.305108 
L 414.697876 170.019782 
L 415.012099 171.759156 
L 415.438543 175.534707 
L 417.159283 192.494723 
L 417.480987 193.363027 
L 417.69795 193.473437 
L 417.884987 193.306017 
L 418.15432 192.710498 
L 418.573283 191.159304 
L 419.26906 187.593784 
L 421.842689 173.703959 
L 422.328985 172.361831 
L 422.635726 172.044112 
L 422.837726 172.112998 
L 423.06217 172.481509 
L 423.353948 173.452916 
L 423.750466 175.661611 
L 424.356466 180.533679 
L 425.33654 188.237243 
L 425.785429 190.142086 
L 426.107132 190.709577 
L 426.331577 190.744951 
L 426.556021 190.522098 
L 426.877725 189.827591 
L 427.356539 188.186327 
L 428.17202 184.46253 
L 429.900242 176.500663 
L 430.468835 174.870638 
L 430.842908 174.358782 
L 431.089797 174.329328 
L 431.321723 174.553249 
L 431.613501 175.20191 
L 431.995056 176.660758 
L 432.556167 179.819287 
L 433.813056 187.087802 
L 434.254463 188.357128 
L 434.568685 188.708949 
L 434.808092 188.690925 
L 435.069944 188.421259 
L 435.436537 187.678762 
L 435.982685 185.999901 
L 437.030092 181.893239 
L 438.137351 177.879898 
L 438.705943 176.554593 
L 439.09498 176.129165 
L 439.364313 176.114868 
L 439.626165 176.342231 
L 439.947869 176.95654 
L 440.374313 178.306185 
L 441.047646 181.302786 
L 442.057646 185.637996 
L 442.53646 186.792966 
L 442.88809 187.148447 
L 443.164905 187.146162 
L 443.464164 186.893715 
L 443.860682 186.225213 
L 444.444238 184.743288 
L 446.898163 177.960155 
L 447.317126 177.559922 
L 447.631348 177.53617 
L 447.930607 177.751619 
L 448.289718 178.317349 
L 448.768533 179.536521 
L 449.651347 182.548461 
L 450.444384 184.905049 
L 450.93068 185.729829 
L 451.297272 185.972011 
L 451.611495 185.928617 
L 451.963124 185.635374 
L 452.434457 184.913088 
L 453.152679 183.340628 
L 454.843494 179.529886 
L 455.389642 178.856724 
L 455.793641 178.673343 
L 456.13779 178.75539 
L 456.504382 179.089022 
L 456.968234 179.845884 
L 457.671493 181.490597 
L 458.846085 184.196066 
L 459.369788 184.864704 
L 459.78127 185.061754 
L 460.155344 184.995936 
L 460.574307 184.678103 
L 461.135418 183.938779 
L 462.10801 182.212331 
L 463.215269 180.387996 
L 463.813787 179.794838 
L 464.270157 179.624865 
L 464.681639 179.706925 
L 465.123046 180.041876 
L 465.676675 180.772963 
L 466.768971 182.698423 
L 467.562008 183.852113 
L 468.100675 184.279244 
L 468.557045 184.374789 
L 469.013415 184.237904 
L 469.552082 183.826567 
L 470.330155 182.917545 
L 472.035933 180.868824 
L 472.656895 180.490872 
L 473.173118 180.425578 
L 473.674377 180.591605 
L 474.250451 181.035869 
L 475.103339 182.01975 
L 476.352746 183.413929 
L 476.988672 183.793466 
L 477.542301 183.873102 
L 478.110894 183.72398 
L 478.79919 183.296564 
L 480.071041 182.178416 
L 481.12593 181.392349 
L 481.829189 181.131338 
L 482.457633 181.132335 
L 483.108522 181.365581 
L 483.931485 181.920723 
L 485.906595 183.341299 
L 486.632299 183.536727 
L 487.335558 183.494549 
L 488.151039 183.209461 
L 489.602446 182.40723 
L 490.806964 181.863308 
L 491.659853 181.717542 
L 492.475334 181.80543 
L 493.418 182.144002 
L 496.290888 183.337232 
L 497.226073 183.379333 
L 498.288443 183.194129 
L 502.096516 182.313814 
L 503.248664 182.422823 
L 504.79733 182.818809 
L 507.004366 183.355903 
L 508.395921 183.445135 
L 510.086736 183.31258 
L 513.475846 183.006626 
L 515.286364 183.116246 
L 518.226585 183.568778 
L 521.069547 183.903058 
L 524.997324 184.082226 
L 528.363989 184.346015 
L 531.341618 184.809447 
L 534.289321 185.490416 
L 536.758209 186.279077 
L 538.748282 187.141054 
L 540.439097 188.112959 
L 541.935392 189.228403 
L 543.326948 190.544897 
L 544.673614 192.1302 
L 546.042724 194.096029 
L 547.524057 196.628609 
L 549.416872 200.344878 
L 552.880796 207.194733 
L 554.339685 209.535895 
L 555.648944 211.230555 
L 556.928277 212.530041 
L 558.245017 213.553986 
L 559.681461 214.388522 
L 561.349831 215.09421 
L 563.422201 215.717983 
L 566.197829 216.307269 
L 570.177976 216.909822 
L 575.519752 217.486147 
L 581.430121 217.901307 
L 587.452712 218.104157 
L 593.56508 218.087893 
L 599.744782 217.846058 
L 605.85715 217.384551 
L 611.954556 216.703245 
L 618.036998 215.80153 
L 624.096997 214.678235 
L 630.037291 213.351976 
L 635.8504 211.827006 
L 641.446547 210.129808 
L 646.728471 208.297835 
L 651.62884 206.366081 
L 656.072838 204.379569 
L 660.030541 202.37169 
L 663.494466 200.370112 
L 666.494539 198.384893 
L 669.083131 196.409428 
L 671.30513 194.438486 
L 673.22787 192.439398 
L 674.903721 190.377709 
L 676.370091 188.222416 
L 677.671869 185.91284 
L 677.784091 185.691221 
L 677.784091 185.691221 
" style="fill:none;stroke:#3b7973;stroke-linecap:round;stroke-width:2;"/>
   </g>
   <g id="line2d_14">
    <path d="M 41.5 195.357624 
L 708.083333 195.357624 
" style="fill:none;stroke:#3b7973;stroke-linecap:round;stroke-width:2;"/>
   </g>
   <g id="text_2">
    <!-- v -->
    <defs>
     <path d="M 1.515625 54.6875 
L 19 54.6875 
L 32.625 16.890625 
L 46.1875 54.6875 
L 63.71875 54.6875 
L 42.1875 0 
L 23 0 
z
" id="DejaVuSans-Bold-118"/>
    </defs>
    <g style="fill:#3b7973;" transform="translate(41.5 226.658856)scale(0.28 -0.28)">
     <use xlink:href="#DejaVuSans-Bold-118"/>
    </g>
   </g>
  </g>
  <g id="axes_3">
   <g id="patch_4">
    <path d="M 41.5 324.683333 
L 708.083333 324.683333 
L 708.083333 227.664318 
L 41.5 227.664318 
z
" style="fill:#eaeaf2;"/>
   </g>
   <g id="matplotlib.axis_5">
    <g id="xtick_11">
     <g id="line2d_15">
      <path clip-path="url(#p1efb302d6f)" d="M 64.310282 324.683333 
L 64.310282 227.664318 
" style="fill:none;stroke:#ffffff;stroke-linecap:round;stroke-width:0.8;"/>
     </g>
     <g id="text_3">
      <!-- 0 -->
      <defs>
       <path d="M 31.78125 66.40625 
Q 24.171875 66.40625 20.328125 58.90625 
Q 16.5 51.421875 16.5 36.375 
Q 16.5 21.390625 20.328125 13.890625 
Q 24.171875 6.390625 31.78125 6.390625 
Q 39.453125 6.390625 43.28125 13.890625 
Q 47.125 21.390625 47.125 36.375 
Q 47.125 51.421875 43.28125 58.90625 
Q 39.453125 66.40625 31.78125 66.40625 
z
M 31.78125 74.21875 
Q 44.046875 74.21875 50.515625 64.515625 
Q 56.984375 54.828125 56.984375 36.375 
Q 56.984375 17.96875 50.515625 8.265625 
Q 44.046875 -1.421875 31.78125 -1.421875 
Q 19.53125 -1.421875 13.0625 8.265625 
Q 6.59375 17.96875 6.59375 36.375 
Q 6.59375 54.828125 13.0625 64.515625 
Q 19.53125 74.21875 31.78125 74.21875 
z
" id="DejaVuSans-48"/>
      </defs>
      <g style="fill:#262626;" transform="translate(55.402782 352.958958)scale(0.28 -0.28)">
       <use xlink:href="#DejaVuSans-48"/>
      </g>
     </g>
    </g>
    <g id="xtick_12">
     <g id="line2d_16">
      <path clip-path="url(#p1efb302d6f)" d="M 213.939865 324.683333 
L 213.939865 227.664318 
" style="fill:none;stroke:#ffffff;stroke-linecap:round;stroke-width:0.8;"/>
     </g>
     <g id="text_4">
      <!-- 20 -->
      <defs>
       <path d="M 19.1875 8.296875 
L 53.609375 8.296875 
L 53.609375 0 
L 7.328125 0 
L 7.328125 8.296875 
Q 12.9375 14.109375 22.625 23.890625 
Q 32.328125 33.6875 34.8125 36.53125 
Q 39.546875 41.84375 41.421875 45.53125 
Q 43.3125 49.21875 43.3125 52.78125 
Q 43.3125 58.59375 39.234375 62.25 
Q 35.15625 65.921875 28.609375 65.921875 
Q 23.96875 65.921875 18.8125 64.3125 
Q 13.671875 62.703125 7.8125 59.421875 
L 7.8125 69.390625 
Q 13.765625 71.78125 18.9375 73 
Q 24.125 74.21875 28.421875 74.21875 
Q 39.75 74.21875 46.484375 68.546875 
Q 53.21875 62.890625 53.21875 53.421875 
Q 53.21875 48.921875 51.53125 44.890625 
Q 49.859375 40.875 45.40625 35.40625 
Q 44.1875 33.984375 37.640625 27.21875 
Q 31.109375 20.453125 19.1875 8.296875 
z
" id="DejaVuSans-50"/>
      </defs>
      <g style="fill:#262626;" transform="translate(196.124865 352.958958)scale(0.28 -0.28)">
       <use xlink:href="#DejaVuSans-50"/>
       <use x="63.623047" xlink:href="#DejaVuSans-48"/>
      </g>
     </g>
    </g>
    <g id="xtick_13">
     <g id="line2d_17">
      <path clip-path="url(#p1efb302d6f)" d="M 363.569448 324.683333 
L 363.569448 227.664318 
" style="fill:none;stroke:#ffffff;stroke-linecap:round;stroke-width:0.8;"/>
     </g>
     <g id="text_5">
      <!-- 40 -->
      <defs>
       <path d="M 37.796875 64.3125 
L 12.890625 25.390625 
L 37.796875 25.390625 
z
M 35.203125 72.90625 
L 47.609375 72.90625 
L 47.609375 25.390625 
L 58.015625 25.390625 
L 58.015625 17.1875 
L 47.609375 17.1875 
L 47.609375 0 
L 37.796875 0 
L 37.796875 17.1875 
L 4.890625 17.1875 
L 4.890625 26.703125 
z
" id="DejaVuSans-52"/>
      </defs>
      <g style="fill:#262626;" transform="translate(345.754448 352.958958)scale(0.28 -0.28)">
       <use xlink:href="#DejaVuSans-52"/>
       <use x="63.623047" xlink:href="#DejaVuSans-48"/>
      </g>
     </g>
    </g>
    <g id="xtick_14">
     <g id="line2d_18">
      <path clip-path="url(#p1efb302d6f)" d="M 513.199031 324.683333 
L 513.199031 227.664318 
" style="fill:none;stroke:#ffffff;stroke-linecap:round;stroke-width:0.8;"/>
     </g>
     <g id="text_6">
      <!-- 60 -->
      <defs>
       <path d="M 33.015625 40.375 
Q 26.375 40.375 22.484375 35.828125 
Q 18.609375 31.296875 18.609375 23.390625 
Q 18.609375 15.53125 22.484375 10.953125 
Q 26.375 6.390625 33.015625 6.390625 
Q 39.65625 6.390625 43.53125 10.953125 
Q 47.40625 15.53125 47.40625 23.390625 
Q 47.40625 31.296875 43.53125 35.828125 
Q 39.65625 40.375 33.015625 40.375 
z
M 52.59375 71.296875 
L 52.59375 62.3125 
Q 48.875 64.0625 45.09375 64.984375 
Q 41.3125 65.921875 37.59375 65.921875 
Q 27.828125 65.921875 22.671875 59.328125 
Q 17.53125 52.734375 16.796875 39.40625 
Q 19.671875 43.65625 24.015625 45.921875 
Q 28.375 48.1875 33.59375 48.1875 
Q 44.578125 48.1875 50.953125 41.515625 
Q 57.328125 34.859375 57.328125 23.390625 
Q 57.328125 12.15625 50.6875 5.359375 
Q 44.046875 -1.421875 33.015625 -1.421875 
Q 20.359375 -1.421875 13.671875 8.265625 
Q 6.984375 17.96875 6.984375 36.375 
Q 6.984375 53.65625 15.1875 63.9375 
Q 23.390625 74.21875 37.203125 74.21875 
Q 40.921875 74.21875 44.703125 73.484375 
Q 48.484375 72.75 52.59375 71.296875 
z
" id="DejaVuSans-54"/>
      </defs>
      <g style="fill:#262626;" transform="translate(495.384031 352.958958)scale(0.28 -0.28)">
       <use xlink:href="#DejaVuSans-54"/>
       <use x="63.623047" xlink:href="#DejaVuSans-48"/>
      </g>
     </g>
    </g>
    <g id="xtick_15">
     <g id="line2d_19">
      <path clip-path="url(#p1efb302d6f)" d="M 662.828614 324.683333 
L 662.828614 227.664318 
" style="fill:none;stroke:#ffffff;stroke-linecap:round;stroke-width:0.8;"/>
     </g>
     <g id="text_7">
      <!-- 80 -->
      <defs>
       <path d="M 31.78125 34.625 
Q 24.75 34.625 20.71875 30.859375 
Q 16.703125 27.09375 16.703125 20.515625 
Q 16.703125 13.921875 20.71875 10.15625 
Q 24.75 6.390625 31.78125 6.390625 
Q 38.8125 6.390625 42.859375 10.171875 
Q 46.921875 13.96875 46.921875 20.515625 
Q 46.921875 27.09375 42.890625 30.859375 
Q 38.875 34.625 31.78125 34.625 
z
M 21.921875 38.8125 
Q 15.578125 40.375 12.03125 44.71875 
Q 8.5 49.078125 8.5 55.328125 
Q 8.5 64.0625 14.71875 69.140625 
Q 20.953125 74.21875 31.78125 74.21875 
Q 42.671875 74.21875 48.875 69.140625 
Q 55.078125 64.0625 55.078125 55.328125 
Q 55.078125 49.078125 51.53125 44.71875 
Q 48 40.375 41.703125 38.8125 
Q 48.828125 37.15625 52.796875 32.3125 
Q 56.78125 27.484375 56.78125 20.515625 
Q 56.78125 9.90625 50.3125 4.234375 
Q 43.84375 -1.421875 31.78125 -1.421875 
Q 19.734375 -1.421875 13.25 4.234375 
Q 6.78125 9.90625 6.78125 20.515625 
Q 6.78125 27.484375 10.78125 32.3125 
Q 14.796875 37.15625 21.921875 38.8125 
z
M 18.3125 54.390625 
Q 18.3125 48.734375 21.84375 45.5625 
Q 25.390625 42.390625 31.78125 42.390625 
Q 38.140625 42.390625 41.71875 45.5625 
Q 45.3125 48.734375 45.3125 54.390625 
Q 45.3125 60.0625 41.71875 63.234375 
Q 38.140625 66.40625 31.78125 66.40625 
Q 25.390625 66.40625 21.84375 63.234375 
Q 18.3125 60.0625 18.3125 54.390625 
z
" id="DejaVuSans-56"/>
      </defs>
      <g style="fill:#262626;" transform="translate(645.013614 352.958958)scale(0.28 -0.28)">
       <use xlink:href="#DejaVuSans-56"/>
       <use x="63.623047" xlink:href="#DejaVuSans-48"/>
      </g>
     </g>
    </g>
    <g id="text_8">
     <!-- time in s -->
     <defs>
      <path d="M 27.484375 70.21875 
L 27.484375 54.6875 
L 45.515625 54.6875 
L 45.515625 42.1875 
L 27.484375 42.1875 
L 27.484375 19 
Q 27.484375 15.1875 29 13.84375 
Q 30.515625 12.5 35.015625 12.5 
L 44 12.5 
L 44 0 
L 29 0 
Q 18.65625 0 14.328125 4.3125 
Q 10.015625 8.640625 10.015625 19 
L 10.015625 42.1875 
L 1.3125 42.1875 
L 1.3125 54.6875 
L 10.015625 54.6875 
L 10.015625 70.21875 
z
" id="DejaVuSans-Bold-116"/>
      <path d="M 8.40625 54.6875 
L 25.875 54.6875 
L 25.875 0 
L 8.40625 0 
z
M 8.40625 75.984375 
L 25.875 75.984375 
L 25.875 61.71875 
L 8.40625 61.71875 
z
" id="DejaVuSans-Bold-105"/>
      <path d="M 59.078125 45.609375 
Q 62.40625 50.6875 66.96875 53.34375 
Q 71.53125 56 77 56 
Q 86.421875 56 91.359375 50.1875 
Q 96.296875 44.390625 96.296875 33.296875 
L 96.296875 0 
L 78.71875 0 
L 78.71875 28.515625 
Q 78.765625 29.15625 78.78125 29.828125 
Q 78.8125 30.515625 78.8125 31.78125 
Q 78.8125 37.59375 77.09375 40.203125 
Q 75.390625 42.828125 71.578125 42.828125 
Q 66.609375 42.828125 63.890625 38.71875 
Q 61.1875 34.625 61.078125 26.859375 
L 61.078125 0 
L 43.5 0 
L 43.5 28.515625 
Q 43.5 37.59375 41.9375 40.203125 
Q 40.375 42.828125 36.375 42.828125 
Q 31.34375 42.828125 28.609375 38.703125 
Q 25.875 34.578125 25.875 26.90625 
L 25.875 0 
L 8.296875 0 
L 8.296875 54.6875 
L 25.875 54.6875 
L 25.875 46.6875 
Q 29.109375 51.3125 33.28125 53.65625 
Q 37.453125 56 42.484375 56 
Q 48.140625 56 52.484375 53.265625 
Q 56.84375 50.53125 59.078125 45.609375 
z
" id="DejaVuSans-Bold-109"/>
      <path d="M 62.984375 27.484375 
L 62.984375 22.515625 
L 22.125 22.515625 
Q 22.75 16.359375 26.5625 13.28125 
Q 30.375 10.203125 37.203125 10.203125 
Q 42.71875 10.203125 48.5 11.84375 
Q 54.296875 13.484375 60.40625 16.796875 
L 60.40625 3.328125 
Q 54.203125 0.984375 48 -0.21875 
Q 41.796875 -1.421875 35.59375 -1.421875 
Q 20.75 -1.421875 12.515625 6.125 
Q 4.296875 13.671875 4.296875 27.296875 
Q 4.296875 40.671875 12.375 48.328125 
Q 20.453125 56 34.625 56 
Q 47.515625 56 55.25 48.234375 
Q 62.984375 40.484375 62.984375 27.484375 
z
M 45.015625 33.296875 
Q 45.015625 38.28125 42.109375 41.328125 
Q 39.203125 44.390625 34.515625 44.390625 
Q 29.4375 44.390625 26.265625 41.53125 
Q 23.09375 38.671875 22.3125 33.296875 
z
" id="DejaVuSans-Bold-101"/>
      <path id="DejaVuSans-Bold-32"/>
      <path d="M 63.375 33.296875 
L 63.375 0 
L 45.796875 0 
L 45.796875 5.421875 
L 45.796875 25.484375 
Q 45.796875 32.5625 45.484375 35.25 
Q 45.171875 37.9375 44.390625 39.203125 
Q 43.359375 40.921875 41.59375 41.875 
Q 39.84375 42.828125 37.59375 42.828125 
Q 32.125 42.828125 29 38.59375 
Q 25.875 34.375 25.875 26.90625 
L 25.875 0 
L 8.40625 0 
L 8.40625 54.6875 
L 25.875 54.6875 
L 25.875 46.6875 
Q 29.828125 51.46875 34.265625 53.734375 
Q 38.71875 56 44.09375 56 
Q 53.5625 56 58.46875 50.1875 
Q 63.375 44.390625 63.375 33.296875 
z
" id="DejaVuSans-Bold-110"/>
      <path d="M 51.125 52.984375 
L 51.125 39.703125 
Q 45.515625 42.046875 40.28125 43.21875 
Q 35.0625 44.390625 30.421875 44.390625 
Q 25.4375 44.390625 23.015625 43.140625 
Q 20.609375 41.890625 20.609375 39.3125 
Q 20.609375 37.203125 22.4375 36.078125 
Q 24.265625 34.96875 29 34.421875 
L 32.078125 33.984375 
Q 45.515625 32.28125 50.140625 28.375 
Q 54.78125 24.46875 54.78125 16.109375 
Q 54.78125 7.375 48.328125 2.96875 
Q 41.890625 -1.421875 29.109375 -1.421875 
Q 23.6875 -1.421875 17.890625 -0.5625 
Q 12.109375 0.296875 6 2 
L 6 15.28125 
Q 11.234375 12.75 16.71875 11.46875 
Q 22.21875 10.203125 27.875 10.203125 
Q 33.015625 10.203125 35.59375 11.609375 
Q 38.1875 13.03125 38.1875 15.828125 
Q 38.1875 18.171875 36.40625 19.3125 
Q 34.625 20.453125 29.296875 21.09375 
L 26.21875 21.484375 
Q 14.546875 22.953125 9.859375 26.90625 
Q 5.171875 30.859375 5.171875 38.921875 
Q 5.171875 47.609375 11.125 51.796875 
Q 17.09375 56 29.390625 56 
Q 34.234375 56 39.546875 55.265625 
Q 44.875 54.546875 51.125 52.984375 
z
" id="DejaVuSans-Bold-115"/>
     </defs>
     <g style="fill:#262626;" transform="translate(306.371042 384.057708)scale(0.28 -0.28)">
      <use xlink:href="#DejaVuSans-Bold-116"/>
      <use x="47.802734" xlink:href="#DejaVuSans-Bold-105"/>
      <use x="82.080078" xlink:href="#DejaVuSans-Bold-109"/>
      <use x="186.279297" xlink:href="#DejaVuSans-Bold-101"/>
      <use x="254.101562" xlink:href="#DejaVuSans-Bold-32"/>
      <use x="288.916016" xlink:href="#DejaVuSans-Bold-105"/>
      <use x="323.193359" xlink:href="#DejaVuSans-Bold-110"/>
      <use x="394.384766" xlink:href="#DejaVuSans-Bold-32"/>
      <use x="429.199219" xlink:href="#DejaVuSans-Bold-115"/>
     </g>
    </g>
   </g>
   <g id="matplotlib.axis_6"/>
   <g id="line2d_20">
    <path clip-path="url(#p1efb302d6f)" d="M 71.799242 291.147687 
L 94.228717 291.147687 
L 94.340939 277.48019 
L 100.460789 275.193483 
L 106.13175 273.308558 
L 111.488489 271.759661 
L 116.620784 270.50524 
L 121.581005 269.520293 
L 126.41404 268.78595 
L 131.16478 268.288294 
L 135.855667 268.019861 
L 140.52411 267.975266 
L 145.192553 268.15312 
L 149.890922 268.554978 
L 154.649143 269.185818 
L 159.497141 270.053756 
L 164.479806 271.173242 
L 169.634545 272.56107 
L 175.028692 274.245936 
L 180.744542 276.26709 
L 186.924244 278.692122 
L 193.807204 281.637667 
L 201.969498 285.382453 
L 214.007198 291.180461 
L 229.082379 298.394517 
L 237.177339 302.014738 
L 243.992967 304.824007 
L 250.112817 307.109815 
L 255.783778 308.993791 
L 261.140517 310.5417 
L 266.272812 311.795104 
L 271.233032 312.779013 
L 276.066068 313.512304 
L 280.816807 314.008896 
L 285.507694 314.27626 
L 290.176137 314.319785 
L 294.84458 314.140864 
L 299.542949 313.737946 
L 304.30117 313.106056 
L 309.149169 312.237085 
L 314.131834 311.116586 
L 319.286573 309.727774 
L 324.680719 308.041959 
L 330.404051 306.017112 
L 336.583753 303.590965 
L 343.474195 300.6411 
L 351.64397 296.891756 
L 363.726559 291.071216 
L 378.711962 283.900858 
L 386.806922 280.280636 
L 393.62255 277.471368 
L 399.7424 275.185559 
L 405.413361 273.301583 
L 410.7701 271.753674 
L 415.902395 270.50027 
L 420.862615 269.516362 
L 425.695651 268.783071 
L 430.44639 268.286479 
L 435.137278 268.019115 
L 439.805721 267.975589 
L 444.474164 268.154511 
L 449.172532 268.557429 
L 453.930753 269.189318 
L 458.778752 270.05829 
L 463.761417 271.178789 
L 468.916156 272.567601 
L 474.310302 274.253415 
L 480.033634 276.278262 
L 486.213336 278.70441 
L 493.103778 281.654275 
L 501.273553 285.403618 
L 513.356142 291.224158 
L 528.341545 298.394517 
L 536.436505 302.014738 
L 543.252133 304.824007 
L 549.371983 307.109815 
L 555.042944 308.993791 
L 560.399683 310.5417 
L 565.531978 311.795104 
L 570.492198 312.779013 
L 575.325234 313.512304 
L 580.075973 314.008896 
L 584.766861 314.27626 
L 589.435304 314.319785 
L 594.103747 314.140864 
L 598.802115 313.737946 
L 603.560336 313.106056 
L 608.408335 312.237085 
L 613.391 311.116586 
L 618.545739 309.727774 
L 623.939885 308.041959 
L 629.663217 306.017112 
L 635.842919 303.590965 
L 642.733361 300.6411 
L 650.903136 296.891756 
L 662.985725 291.071216 
L 677.784091 283.987388 
L 677.784091 283.987388 
" style="fill:none;stroke:#173f3f;stroke-linecap:round;stroke-width:2;"/>
   </g>
   <g id="line2d_21">
    <path d="M 41.5 291.40645 
L 708.083333 291.40645 
" style="fill:none;stroke:#173f3f;stroke-linecap:round;stroke-width:2;"/>
   </g>
   <g id="text_9">
    <!-- input -->
    <defs>
     <path d="M 25.875 7.90625 
L 25.875 -20.796875 
L 8.40625 -20.796875 
L 8.40625 54.6875 
L 25.875 54.6875 
L 25.875 46.6875 
Q 29.5 51.46875 33.890625 53.734375 
Q 38.28125 56 44 56 
Q 54.109375 56 60.59375 47.96875 
Q 67.09375 39.9375 67.09375 27.296875 
Q 67.09375 14.65625 60.59375 6.609375 
Q 54.109375 -1.421875 44 -1.421875 
Q 38.28125 -1.421875 33.890625 0.84375 
Q 29.5 3.125 25.875 7.90625 
z
M 37.5 43.3125 
Q 31.890625 43.3125 28.875 39.1875 
Q 25.875 35.0625 25.875 27.296875 
Q 25.875 19.53125 28.875 15.40625 
Q 31.890625 11.28125 37.5 11.28125 
Q 43.109375 11.28125 46.0625 15.375 
Q 49.03125 19.484375 49.03125 27.296875 
Q 49.03125 35.109375 46.0625 39.203125 
Q 43.109375 43.3125 37.5 43.3125 
z
" id="DejaVuSans-Bold-112"/>
     <path d="M 7.8125 21.296875 
L 7.8125 54.6875 
L 25.390625 54.6875 
L 25.390625 49.21875 
Q 25.390625 44.78125 25.34375 38.0625 
Q 25.296875 31.34375 25.296875 29.109375 
Q 25.296875 22.515625 25.640625 19.609375 
Q 25.984375 16.703125 26.8125 15.375 
Q 27.875 13.671875 29.609375 12.734375 
Q 31.34375 11.8125 33.59375 11.8125 
Q 39.0625 11.8125 42.1875 16.015625 
Q 45.3125 20.21875 45.3125 27.6875 
L 45.3125 54.6875 
L 62.796875 54.6875 
L 62.796875 0 
L 45.3125 0 
L 45.3125 7.90625 
Q 41.359375 3.125 36.9375 0.84375 
Q 32.515625 -1.421875 27.203125 -1.421875 
Q 17.71875 -1.421875 12.765625 4.390625 
Q 7.8125 10.203125 7.8125 21.296875 
z
" id="DejaVuSans-Bold-117"/>
    </defs>
    <g style="fill:#173f3f;" transform="translate(41.5 322.707682)scale(0.28 -0.28)">
     <use xlink:href="#DejaVuSans-Bold-105"/>
     <use x="34.277344" xlink:href="#DejaVuSans-Bold-110"/>
     <use x="105.46875" xlink:href="#DejaVuSans-Bold-112"/>
     <use x="177.050781" xlink:href="#DejaVuSans-Bold-117"/>
     <use x="248.242188" xlink:href="#DejaVuSans-Bold-116"/>
    </g>
   </g>
  </g>
 </g>
 <defs>
  <clipPath id="paedc1c239e">
   <rect height="97.019016" width="666.583333" x="41.5" y="35.566667"/>
  </clipPath>
  <clipPath id="p8ad4b18f82">
   <rect height="97.019016" width="666.583333" x="41.5" y="131.615492"/>
  </clipPath>
  <clipPath id="p1efb302d6f">
   <rect height="97.019016" width="666.583333" x="41.5" y="227.664318"/>
  </clipPath>
 </defs>
</svg>
