<?xml version="1.0" encoding="utf-8" standalone="no"?>
<!DOCTYPE svg PUBLIC "-//W3C//DTD SVG 1.1//EN"
  "http://www.w3.org/Graphics/SVG/1.1/DTD/svg11.dtd">
<!-- Created with matplotlib (https://matplotlib.org/) -->
<svg height="432pt" version="1.1" viewBox="0 0 864 432" width="864pt" xmlns="http://www.w3.org/2000/svg" xmlns:xlink="http://www.w3.org/1999/xlink">
 <defs>
  <style type="text/css">
*{stroke-linecap:butt;stroke-linejoin:round;}
  </style>
 </defs>
 <g id="figure_1">
  <g id="patch_1">
   <path d="M 0 432 
L 864 432 
L 864 0 
L 0 0 
z
" style="fill:#ffffff;"/>
  </g>
  <g id="axes_1">
   <g id="patch_2">
    <path d="M 66.3 144.638926 
L 849.7 144.638926 
L 849.7 38.8 
L 66.3 38.8 
z
" style="fill:#eaeaf2;"/>
   </g>
   <g id="matplotlib.axis_1">
    <g id="xtick_1">
     <g id="line2d_1">
      <path clip-path="url(#p7f8eda6857)" d="M 84.520584 144.638926 
L 84.520584 38.8 
" style="fill:none;stroke:#ffffff;stroke-linecap:round;stroke-width:0.8;"/>
     </g>
    </g>
    <g id="xtick_2">
     <g id="line2d_2">
      <path clip-path="url(#p7f8eda6857)" d="M 258.23194 144.638926 
L 258.23194 38.8 
" style="fill:none;stroke:#ffffff;stroke-linecap:round;stroke-width:0.8;"/>
     </g>
    </g>
    <g id="xtick_3">
     <g id="line2d_3">
      <path clip-path="url(#p7f8eda6857)" d="M 431.943297 144.638926 
L 431.943297 38.8 
" style="fill:none;stroke:#ffffff;stroke-linecap:round;stroke-width:0.8;"/>
     </g>
    </g>
    <g id="xtick_4">
     <g id="line2d_4">
      <path clip-path="url(#p7f8eda6857)" d="M 605.654653 144.638926 
L 605.654653 38.8 
" style="fill:none;stroke:#ffffff;stroke-linecap:round;stroke-width:0.8;"/>
     </g>
    </g>
    <g id="xtick_5">
     <g id="line2d_5">
      <path clip-path="url(#p7f8eda6857)" d="M 779.366009 144.638926 
L 779.366009 38.8 
" style="fill:none;stroke:#ffffff;stroke-linecap:round;stroke-width:0.8;"/>
     </g>
    </g>
   </g>
   <g id="matplotlib.axis_2"/>
   <g id="line2d_6">
    <path clip-path="url(#p7f8eda6857)" d="M 101.909091 122.746506 
L 113.82569 122.924258 
L 136.825074 122.972081 
L 191.23147 122.876158 
L 196.164873 122.433756 
L 206.135905 121.299069 
L 212.424256 120.387613 
L 216.558586 119.575515 
L 219.598535 118.760585 
L 221.943638 117.90842 
L 223.819721 116.995184 
L 225.365752 115.999015 
L 226.668587 114.899574 
L 227.815082 113.639714 
L 228.822608 112.202285 
L 229.743278 110.497243 
L 230.594464 108.441173 
L 231.393536 105.905852 
L 232.140495 102.772022 
L 232.852711 98.796748 
L 233.547557 93.599031 
L 234.242402 86.600676 
L 234.954619 77.050331 
L 235.962144 60.001513 
L 236.674361 49.528272 
L 237.021784 46.983159 
L 237.212866 46.625512 
L 237.230237 46.631962 
L 237.351835 46.859133 
L 237.542918 47.842917 
L 237.838227 50.713972 
L 238.34199 58.251026 
L 239.957506 83.889083 
L 240.704465 91.732411 
L 241.434052 97.192482 
L 242.181011 101.173007 
L 242.92797 104.018556 
L 243.6923 106.107649 
L 244.474001 107.628906 
L 245.273073 108.711287 
L 246.072145 109.428967 
L 246.871218 109.854907 
L 247.67029 110.034082 
L 248.486733 109.987967 
L 249.303177 109.719227 
L 250.136991 109.208263 
L 250.970806 108.434457 
L 251.80462 107.353763 
L 252.638435 105.896473 
L 253.454878 104.004495 
L 254.25395 101.570504 
L 255.035651 98.45326 
L 255.817353 94.378617 
L 256.616425 88.952014 
L 257.46761 81.554511 
L 259.673745 61.283091 
L 260.003796 60.288088 
L 260.194879 60.189191 
L 260.351219 60.374744 
L 260.577044 61.054371 
L 260.907095 62.843037 
L 261.410858 66.966085 
L 264.103384 91.30034 
L 264.919828 95.787404 
L 265.7189 99.010045 
L 266.517972 101.347047 
L 267.299673 102.976524 
L 268.064003 104.077074 
L 268.793591 104.756597 
L 269.488436 105.115282 
L 270.165911 105.221026 
L 270.843385 105.09908 
L 271.53823 104.739623 
L 272.250447 104.115395 
L 272.997406 103.158058 
L 273.779107 101.778833 
L 274.578179 99.897929 
L 275.394622 97.380827 
L 276.228437 94.056181 
L 277.096994 89.641667 
L 278.087148 83.385475 
L 280.171685 69.791061 
L 280.640705 68.265351 
L 280.953386 67.869009 
L 281.161839 67.900995 
L 281.387664 68.202198 
L 281.700345 69.053106 
L 282.134623 70.958825 
L 282.812097 75.086731 
L 285.105087 89.809274 
L 286.008386 93.881893 
L 286.859572 96.751325 
L 287.676015 98.763087 
L 288.457716 100.126605 
L 289.187304 100.979977 
L 289.882149 101.463961 
L 290.524881 101.651958 
L 291.150242 101.608467 
L 291.792974 101.335836 
L 292.470449 100.795068 
L 293.182665 99.93266 
L 293.946995 98.644125 
L 294.763439 96.805595 
L 295.614624 94.316487 
L 296.535294 90.899749 
L 297.594934 86.050495 
L 299.99215 74.678762 
L 300.513284 73.375437 
L 300.878078 72.963374 
L 301.156016 72.948994 
L 301.433955 73.194363 
L 301.781377 73.848346 
L 302.250398 75.267484 
L 302.945243 78.191352 
L 305.933079 91.694967 
L 306.853749 94.460626 
L 307.704935 96.351322 
L 308.504007 97.608107 
L 309.233595 98.365233 
L 309.911069 98.764508 
L 310.553801 98.890068 
L 311.179162 98.784415 
L 311.821894 98.444714 
L 312.516739 97.811119 
L 313.263698 96.811041 
L 314.080141 95.320271 
L 314.966069 93.207175 
L 315.956224 90.226054 
L 317.189575 85.738417 
L 319.083028 78.850045 
L 319.743132 77.280813 
L 320.212152 76.663112 
L 320.576946 76.510103 
L 320.889627 76.614206 
L 321.25442 77.002703 
L 321.70607 77.847675 
L 322.331431 79.555658 
L 323.338957 83.075482 
L 325.267153 89.798109 
L 326.29205 92.537269 
L 327.195349 94.35052 
L 328.011792 95.521988 
L 328.758751 96.229606 
L 329.453596 96.594001 
L 330.096328 96.690306 
L 330.73906 96.56197 
L 331.399164 96.199656 
L 332.11138 95.546967 
L 332.893081 94.515406 
L 333.761638 92.980333 
L 334.751793 90.745876 
L 335.985143 87.361241 
L 338.243391 81.066114 
L 338.938236 79.810591 
L 339.459371 79.280042 
L 339.876278 79.144717 
L 340.258443 79.253176 
L 340.67535 79.616968 
L 341.196484 80.396967 
L 341.89133 81.884214 
L 343.037824 84.959967 
L 344.896536 89.869169 
L 345.938804 92.001819 
L 346.842103 93.380175 
L 347.658547 94.245643 
L 348.405505 94.729159 
L 349.100351 94.922765 
L 349.777825 94.880215 
L 350.472671 94.604332 
L 351.202258 94.065845 
L 352.00133 93.18919 
L 352.904629 91.850331 
L 353.964269 89.855106 
L 355.492929 86.434531 
L 357.073702 83.045652 
L 357.872774 81.831692 
L 358.463393 81.297339 
L 358.949785 81.127988 
L 359.401434 81.198994 
L 359.887826 81.514412 
L 360.461073 82.173241 
L 361.208032 83.402474 
L 362.424012 85.908015 
L 364.369579 89.857169 
L 365.446589 91.533227 
L 366.36726 92.572712 
L 367.183703 93.17706 
L 367.930662 93.468846 
L 368.66025 93.516729 
L 369.389837 93.335268 
L 370.154167 92.905819 
L 370.987982 92.168984 
L 371.926023 91.028973 
L 373.072518 89.258563 
L 376.650972 83.421438 
L 377.345817 82.850109 
L 377.919065 82.645778 
L 378.45757 82.687262 
L 379.013446 82.961741 
L 379.656178 83.542804 
L 380.489993 84.627445 
L 381.879684 86.874039 
L 383.703653 89.72302 
L 384.798034 91.026962 
L 385.736076 91.81328 
L 386.56989 92.237036 
L 387.351591 92.395854 
L 388.133293 92.326453 
L 388.932365 92.026272 
L 389.800922 91.450241 
L 390.773705 90.524309 
L 391.972314 89.053227 
L 395.463912 84.542835 
L 396.245613 84.005371 
L 396.905716 83.807823 
L 397.531077 83.851981 
L 398.173809 84.125108 
L 398.920768 84.697906 
L 399.893551 85.750575 
L 403.906284 90.435108 
L 404.896438 91.087523 
L 405.782366 91.415307 
L 406.633552 91.49659 
L 407.484738 91.351819 
L 408.370666 90.971853 
L 409.36082 90.295266 
L 410.542057 89.203134 
L 412.939274 86.578076 
L 414.172625 85.448494 
L 415.058553 84.91914 
L 415.822883 84.712507 
L 416.535099 84.74625 
L 417.282058 85.009071 
L 418.150615 85.567256 
L 419.29711 86.594169 
L 422.614997 89.716158 
L 423.709378 90.365326 
L 424.682162 90.693907 
L 425.620203 90.776907 
L 426.558245 90.632042 
L 427.548399 90.24645 
L 428.660152 89.565474 
L 430.119327 88.387509 
L 432.863967 86.132404 
L 433.871493 85.618137 
L 434.740049 85.415529 
L 435.556493 85.449029 
L 436.42505 85.714222 
L 437.432575 86.269261 
L 438.891751 87.362028 
L 441.375823 89.218956 
L 442.591803 89.83626 
L 443.668813 90.139766 
L 444.69371 90.198597 
L 445.718607 90.035066 
L 446.83036 89.627029 
L 448.150566 88.891285 
L 452.614948 86.178117 
L 453.605103 85.968573 
L 454.543144 85.994356 
L 455.533299 86.249304 
L 456.697165 86.789996 
L 458.677474 88.005664 
L 460.588299 89.07576 
L 461.873763 89.545504 
L 463.037629 89.736631 
L 464.166753 89.696053 
L 465.34799 89.42689 
L 466.702939 88.880172 
L 468.85696 87.727182 
L 470.750414 86.813074 
L 471.966393 86.467389 
L 473.060775 86.386374 
L 474.155156 86.532785 
L 475.388507 86.931478 
L 477.212476 87.786969 
L 479.644435 88.884516 
L 481.051497 89.267407 
L 482.31959 89.383994 
L 483.587683 89.274627 
L 484.960002 88.927487 
L 486.766601 88.219585 
L 489.771807 87.02937 
L 491.109384 86.761341 
L 492.325364 86.741342 
L 493.593457 86.945745 
L 495.156859 87.438053 
L 499.412787 88.899906 
L 500.854592 89.085169 
L 502.261654 89.039174 
L 503.772942 88.758998 
L 505.770623 88.13896 
L 508.793201 87.207784 
L 510.269747 87.0032 
L 511.659438 87.036743 
L 513.170727 87.30354 
L 515.446345 87.966819 
L 517.999902 88.647427 
L 519.65016 88.851562 
L 521.213563 88.818694 
L 522.915934 88.551927 
L 525.486862 87.886465 
L 527.918821 87.338127 
L 529.551708 87.200512 
L 531.132481 87.29291 
L 533.025935 87.641623 
L 537.750884 88.613879 
L 539.505368 88.677961 
L 541.311966 88.517074 
L 543.726554 88.054486 
L 546.974957 87.458662 
L 548.798926 87.366944 
L 550.622895 87.502885 
L 553.159081 87.942901 
L 556.35537 88.454899 
L 558.335679 88.536469 
L 560.368102 88.39101 
L 563.373309 87.915115 
L 566.222175 87.543667 
L 568.237227 87.510386 
L 570.42599 87.70752 
L 576.679599 88.422248 
L 578.903104 88.341652 
L 581.925682 87.979917 
L 585.330424 87.627147 
L 587.588672 87.627586 
L 590.263827 87.868245 
L 595.006147 88.318582 
L 597.472848 88.289348 
L 600.634395 88.004489 
L 604.5429 87.693247 
L 606.07156 87.756697 
L 606.644808 88.071331 
L 607.304911 88.710238 
L 608.138725 89.858899 
L 609.354705 91.963426 
L 612.603107 97.737531 
L 614.010169 99.703628 
L 615.330375 101.175503 
L 616.63321 102.299993 
L 617.936046 103.136237 
L 619.273623 103.733426 
L 620.645943 104.105583 
L 622.070376 104.263158 
L 623.546922 104.20244 
L 625.058211 103.917677 
L 626.604242 103.398776 
L 628.167645 102.638723 
L 629.765789 101.613169 
L 631.450789 100.261159 
L 633.344243 98.44291 
L 638.590326 93.197776 
L 639.667336 92.558514 
L 640.605378 92.253607 
L 641.473934 92.200812 
L 642.359862 92.373325 
L 643.315275 92.792485 
L 644.46177 93.552563 
L 646.077285 94.920119 
L 649.951049 98.277519 
L 651.636049 99.395196 
L 653.199451 100.171827 
L 654.728111 100.686492 
L 656.256771 100.968373 
L 657.820173 101.029154 
L 659.418318 100.868078 
L 661.085947 100.475739 
L 662.875174 99.822485 
L 664.890225 98.841991 
L 667.739091 97.177599 
L 670.709556 95.509797 
L 672.325071 94.856911 
L 673.697391 94.536754 
L 674.982855 94.46325 
L 676.28569 94.612446 
L 677.727494 95.007437 
L 679.551464 95.753981 
L 685.909299 98.554738 
L 687.854867 99.058737 
L 689.730949 99.316951 
L 691.624403 99.351553 
L 693.587341 99.162761 
L 695.741362 98.725949 
L 698.364404 97.952688 
L 704.444301 96.068163 
L 706.389868 95.761966 
L 708.196466 95.700518 
L 710.072549 95.862315 
L 712.278683 96.286494 
L 716.760436 97.450638 
L 719.765643 98.085123 
L 722.232344 98.378837 
L 724.61219 98.438566 
L 727.113633 98.276279 
L 730.049355 97.853253 
L 738.648067 96.458361 
L 741.149511 96.38692 
L 743.772552 96.539928 
L 747.26415 96.988499 
L 753.257192 97.765428 
L 756.418739 97.924836 
L 759.580286 97.858553 
L 763.419306 97.540452 
L 771.444771 96.813361 
L 774.849514 96.784932 
L 778.705906 96.988031 
L 788.729051 97.629716 
L 792.880752 97.585968 
L 798.682712 97.271463 
L 804.918949 96.999176 
L 809.557043 97.034929 
L 814.090909 97.221653 
L 814.090909 97.221653 
" style="fill:none;stroke:#849acf;stroke-linecap:round;stroke-width:2;"/>
   </g>
   <g id="line2d_7">
    <path d="M 66.3 97.329581 
L 849.7 97.329581 
" style="fill:none;stroke:#849acf;stroke-linecap:round;stroke-width:2;"/>
   </g>
   <g id="text_1">
    <!-- r -->
    <defs>
     <path d="M 49.03125 39.796875 
Q 46.734375 40.875 44.453125 41.375 
Q 42.1875 41.890625 39.890625 41.890625 
Q 33.15625 41.890625 29.515625 37.5625 
Q 25.875 33.25 25.875 25.203125 
L 25.875 0 
L 8.40625 0 
L 8.40625 54.6875 
L 25.875 54.6875 
L 25.875 45.703125 
Q 29.25 51.078125 33.609375 53.53125 
Q 37.984375 56 44.09375 56 
Q 44.96875 56 45.984375 55.921875 
Q 47.015625 55.859375 48.96875 55.609375 
z
" id="DejaVuSans-Bold-114"/>
    </defs>
    <g style="fill:#849acf;" transform="translate(66.3 141.781284)scale(0.28 -0.28)">
     <use xlink:href="#DejaVuSans-Bold-114"/>
    </g>
   </g>
  </g>
  <g id="axes_2">
   <g id="patch_3">
    <path d="M 66.3 249.419463 
L 849.7 249.419463 
L 849.7 143.580537 
L 66.3 143.580537 
z
" style="fill:#eaeaf2;"/>
   </g>
   <g id="matplotlib.axis_3">
    <g id="xtick_6">
     <g id="line2d_8">
      <path clip-path="url(#p855bb37099)" d="M 84.520584 249.419463 
L 84.520584 143.580537 
" style="fill:none;stroke:#ffffff;stroke-linecap:round;stroke-width:0.8;"/>
     </g>
    </g>
    <g id="xtick_7">
     <g id="line2d_9">
      <path clip-path="url(#p855bb37099)" d="M 258.23194 249.419463 
L 258.23194 143.580537 
" style="fill:none;stroke:#ffffff;stroke-linecap:round;stroke-width:0.8;"/>
     </g>
    </g>
    <g id="xtick_8">
     <g id="line2d_10">
      <path clip-path="url(#p855bb37099)" d="M 431.943297 249.419463 
L 431.943297 143.580537 
" style="fill:none;stroke:#ffffff;stroke-linecap:round;stroke-width:0.8;"/>
     </g>
    </g>
    <g id="xtick_9">
     <g id="line2d_11">
      <path clip-path="url(#p855bb37099)" d="M 605.654653 249.419463 
L 605.654653 143.580537 
" style="fill:none;stroke:#ffffff;stroke-linecap:round;stroke-width:0.8;"/>
     </g>
    </g>
    <g id="xtick_10">
     <g id="line2d_12">
      <path clip-path="url(#p855bb37099)" d="M 779.366009 249.419463 
L 779.366009 143.580537 
" style="fill:none;stroke:#ffffff;stroke-linecap:round;stroke-width:0.8;"/>
     </g>
    </g>
   </g>
   <g id="matplotlib.axis_4"/>
   <g id="line2d_13">
    <path clip-path="url(#p855bb37099)" d="M 101.909091 228.302858 
L 104.34105 228.832419 
L 107.415741 229.264702 
L 111.480587 229.599021 
L 117.265175 229.834417 
L 126.715073 229.970598 
L 149.245435 230.017288 
L 188.747398 229.96602 
L 189.824408 227.045041 
L 190.988274 224.519362 
L 192.256367 222.29212 
L 193.663429 220.270564 
L 195.244203 218.392517 
L 197.050801 216.594642 
L 199.204822 214.771849 
L 201.914719 212.782536 
L 205.927451 210.141022 
L 212.632709 205.728814 
L 215.568431 203.507559 
L 217.913535 201.459738 
L 219.911215 199.42461 
L 221.6657 197.322527 
L 223.246473 195.079091 
L 224.670906 192.670574 
L 225.991113 189.995803 
L 227.224463 186.980776 
L 228.370958 183.581297 
L 229.46534 179.626562 
L 230.524979 174.937263 
L 231.567247 169.28991 
L 232.696371 161.88097 
L 234.555083 149.44157 
L 234.902505 148.462085 
L 235.076217 148.414802 
L 235.215186 148.652266 
L 235.423639 149.561106 
L 235.684206 151.825533 
L 236.014258 156.888376 
L 236.413794 166.795165 
L 236.96967 186.935972 
L 238.150908 231.027419 
L 238.619928 240.180834 
L 238.984722 243.614768 
L 239.26266 244.551301 
L 239.419 244.585826 
L 239.592712 244.294804 
L 239.87065 243.271259 
L 240.339671 240.534569 
L 241.486166 232.056635 
L 242.875856 222.530897 
L 244.074465 215.838981 
L 245.342558 209.998405 
L 246.836475 204.182131 
L 249.164208 196.1423 
L 251.578795 187.560683 
L 253.142198 181.140639 
L 254.740342 173.575104 
L 256.54694 165.111343 
L 257.085445 163.573057 
L 257.398126 163.211774 
L 257.589208 163.25633 
L 257.797662 163.584436 
L 258.058229 164.477034 
L 258.388281 166.516003 
L 258.787817 170.56097 
L 259.274208 177.990725 
L 259.969054 192.545067 
L 261.202405 218.42687 
L 261.74091 225.300636 
L 262.175188 228.431985 
L 262.522611 229.618027 
L 262.783178 229.886316 
L 262.97426 229.80731 
L 263.234827 229.39393 
L 263.616992 228.299588 
L 264.242353 225.71752 
L 265.684158 218.504233 
L 267.542869 209.678322 
L 269.349467 202.219394 
L 276.541117 174.572302 
L 277.253334 172.66218 
L 277.687612 172.019991 
L 277.982922 171.909564 
L 278.226117 172.065324 
L 278.504056 172.564023 
L 278.834107 173.668876 
L 279.233643 175.853949 
L 279.720035 179.876822 
L 280.345396 187.144323 
L 282.673128 216.586256 
L 283.194262 219.633763 
L 283.61117 220.9254 
L 283.941221 221.336946 
L 284.201788 221.344106 
L 284.479726 221.095186 
L 284.861891 220.406334 
L 285.417768 218.887181 
L 286.321067 215.674465 
L 293.25215 189.438848 
L 295.527769 181.733614 
L 296.46581 179.26329 
L 297.0738 178.218349 
L 297.490707 177.88814 
L 297.803387 177.906047 
L 298.098697 178.170411 
L 298.446119 178.833101 
L 298.845655 180.121653 
L 299.332047 182.514665 
L 299.922666 186.634354 
L 300.75648 194.21285 
L 302.319883 208.533182 
L 302.979986 212.508791 
L 303.50112 214.456413 
L 303.935398 215.332195 
L 304.282821 215.606372 
L 304.57813 215.584099 
L 304.908182 215.324042 
L 305.34246 214.673637 
L 305.95045 213.325523 
L 306.87112 210.681686 
L 308.695089 204.617509 
L 312.759935 191.146801 
L 314.497049 186.061814 
L 315.487203 183.768934 
L 316.164678 182.694038 
L 316.651069 182.284894 
L 317.033234 182.23377 
L 317.363286 182.414368 
L 317.72808 182.887151 
L 318.162358 183.861179 
L 318.666121 185.586505 
L 319.291482 188.605334 
L 320.142668 193.959905 
L 322.053493 206.302072 
L 322.730967 209.144025 
L 323.286843 210.612333 
L 323.738493 211.259762 
L 324.120658 211.465995 
L 324.46808 211.416 
L 324.867617 211.119373 
L 325.388751 210.418356 
L 326.083596 209.070306 
L 327.108493 206.536211 
L 328.967205 201.230129 
L 332.441432 191.347232 
L 333.779009 188.182333 
L 334.682308 186.564142 
L 335.342411 185.799992 
L 335.828803 185.537816 
L 336.228339 185.552272 
L 336.627875 185.802167 
L 337.062154 186.367003 
L 337.565917 187.429351 
L 338.156535 189.23587 
L 338.903494 192.293367 
L 340.258443 199.012006 
L 341.370195 204.003829 
L 342.099783 206.35111 
L 342.690402 207.585042 
L 343.194165 208.172368 
L 343.628443 208.363042 
L 344.04535 208.302049 
L 344.514371 207.987104 
L 345.087618 207.310513 
L 345.851948 206.030193 
L 346.928959 203.747178 
L 348.839784 199.081108 
L 351.549681 192.573808 
L 352.783032 190.160142 
L 353.668959 188.876117 
L 354.329063 188.27324 
L 354.850197 188.067353 
L 355.301846 188.113737 
L 355.753496 188.391847 
L 356.239888 188.968774 
L 356.813135 190.028082 
L 357.490609 191.784098 
L 358.411279 194.860839 
L 360.756383 202.990737 
L 361.503342 204.662968 
L 362.111331 205.523975 
L 362.632465 205.908877 
L 363.101486 205.997025 
L 363.587878 205.857551 
L 364.143754 205.450345 
L 364.8386 204.639541 
L 365.75927 203.185757 
L 367.114218 200.575099 
L 371.10958 192.640438 
L 372.134477 191.179225 
L 372.916178 190.417696 
L 373.541539 190.09304 
L 374.080044 190.05266 
L 374.583807 190.237741 
L 375.122312 190.689247 
L 375.730302 191.519077 
L 376.442518 192.897251 
L 377.397931 195.284922 
L 379.934117 201.878101 
L 380.698446 203.153755 
L 381.341179 203.827931 
L 381.914426 204.121459 
L 382.452931 204.14982 
L 383.008808 203.953863 
L 383.65154 203.482954 
L 384.450612 202.605034 
L 385.527622 201.059495 
L 387.316849 198.034749 
L 389.592468 194.286161 
L 390.738963 192.809609 
L 391.60752 192.026617 
L 392.319736 191.668049 
L 392.927726 191.600466 
L 393.500973 191.759046 
L 394.091592 192.15933 
L 394.751695 192.889304 
L 395.550767 194.134373 
L 396.66252 196.335866 
L 398.781799 200.579206 
L 399.632984 201.767212 
L 400.345201 202.40604 
L 400.970562 202.688736 
L 401.578552 202.72472 
L 402.221284 202.530541 
L 402.950871 202.061993 
L 403.836799 201.211864 
L 405.035407 199.727281 
L 409.447676 193.958475 
L 410.385717 193.226399 
L 411.167418 192.887207 
L 411.844893 192.827035 
L 412.487625 192.988868 
L 413.165099 193.396607 
L 413.929429 194.136205 
L 414.86747 195.383486 
L 416.569842 198.115695 
L 417.890048 200.023385 
L 418.775976 200.939215 
L 419.540306 201.424412 
L 420.235151 201.609949 
L 420.929997 201.563243 
L 421.676955 201.281194 
L 422.545512 200.701885 
L 423.657265 199.669784 
L 425.463863 197.635911 
L 427.56577 195.357523 
L 428.712265 194.430591 
L 429.632936 193.958065 
L 430.432008 193.791443 
L 431.178967 193.864419 
L 431.925925 194.166613 
L 432.742369 194.747857 
L 433.732524 195.74696 
L 435.469637 197.892716 
L 436.89407 199.489024 
L 437.849483 200.243099 
L 438.665926 200.620821 
L 439.447627 200.740901 
L 440.229328 200.636147 
L 441.097885 200.287733 
L 442.140153 199.613088 
L 443.564586 198.399487 
L 446.83036 195.539084 
L 447.959484 194.890973 
L 448.897525 194.600714 
L 449.748711 194.566768 
L 450.582525 194.758486 
L 451.468453 195.198874 
L 452.510721 195.981667 
L 454.17835 197.564725 
L 455.845979 199.042896 
L 456.888247 199.679782 
L 457.791546 199.982626 
L 458.660103 200.043669 
L 459.563402 199.881489 
L 460.588299 199.459859 
L 461.873763 198.670212 
L 466.598712 195.521627 
L 467.658351 195.215275 
L 468.613764 195.167053 
L 469.551805 195.343237 
L 470.559331 195.766374 
L 471.792682 196.545075 
L 475.510105 199.069737 
L 476.552373 199.411494 
L 477.542528 199.502868 
L 478.550053 199.369818 
L 479.679177 198.989047 
L 481.120982 198.25163 
L 485.203198 196.026304 
L 486.401807 195.704253 
L 487.478817 195.642277 
L 488.538456 195.805552 
L 489.684951 196.213703 
L 491.178869 197.00404 
L 494.09722 198.590633 
L 495.313199 198.963384 
L 496.424952 199.073638 
L 497.554076 198.960401 
L 498.822169 198.602527 
L 500.52454 197.869452 
L 503.842427 196.405977 
L 505.197375 196.083038 
L 506.413355 196.021313 
L 507.611963 196.186043 
L 508.949541 196.60384 
L 510.999335 197.517025 
L 513.083871 198.364497 
L 514.421448 198.669371 
L 515.67217 198.727313 
L 516.975005 198.560059 
L 518.521037 198.124598 
L 523.92346 196.390875 
L 525.278408 196.318574 
L 526.633357 196.47169 
L 528.179388 196.880849 
L 533.164904 198.390162 
L 534.571966 198.461738 
L 536.031141 198.309412 
L 537.802997 197.88789 
L 542.510575 196.6514 
L 544.056606 196.552753 
L 545.585266 196.682806 
L 547.374493 197.073178 
L 551.890988 198.169605 
L 553.489133 198.250889 
L 555.13939 198.105826 
L 557.241298 197.678323 
L 561.167174 196.848324 
L 562.921659 196.74007 
L 564.641402 196.861632 
L 566.76068 197.253621 
L 570.617072 197.997717 
L 572.42367 198.083729 
L 574.282382 197.943403 
L 576.85331 197.498548 
L 580.136455 196.968872 
L 582.082022 196.891617 
L 584.04496 197.041359 
L 586.980682 197.526069 
L 589.760064 197.900389 
L 591.775115 197.941617 
L 593.963879 197.753794 
L 600.651766 197.006038 
L 602.840529 197.115089 
L 605.637282 197.472981 
L 607.304911 202.424035 
L 608.260323 204.583259 
L 609.059395 205.871481 
L 609.771612 206.622801 
L 610.431715 207.016332 
L 611.091818 207.160296 
L 611.804035 207.087489 
L 612.65522 206.764023 
L 613.749602 206.091421 
L 615.417231 204.773725 
L 622.226716 199.168636 
L 626.534758 196.054354 
L 629.870016 193.877734 
L 631.780841 192.878105 
L 633.170532 192.38857 
L 634.299655 192.215417 
L 635.307181 192.283604 
L 636.245223 192.571779 
L 637.183264 193.098862 
L 638.173419 193.918551 
L 639.319914 195.171233 
L 640.970171 197.346554 
L 643.263161 200.316272 
L 644.46177 201.500581 
L 645.504038 202.229328 
L 646.494193 202.653934 
L 647.484347 202.837065 
L 648.543987 202.803942 
L 649.759966 202.535097 
L 651.253884 201.965186 
L 653.33842 200.911905 
L 662.770947 195.86438 
L 664.716514 195.195824 
L 666.314658 194.874112 
L 667.72172 194.811119 
L 669.041927 194.970913 
L 670.362133 195.355507 
L 671.786566 196.008402 
L 673.575793 197.092388 
L 677.640639 199.639231 
L 679.134556 200.25933 
L 680.524247 200.600722 
L 681.931309 200.71865 
L 683.459969 200.619748 
L 685.231825 200.274984 
L 687.542186 199.58334 
L 696.644661 196.621346 
L 698.694455 196.314612 
L 700.553167 196.259411 
L 702.359765 196.43025 
L 704.27059 196.839876 
L 706.71992 197.612396 
L 711.166931 199.041036 
L 713.199353 199.427427 
L 715.144921 199.569562 
L 717.212086 199.491627 
L 719.626674 199.168838 
L 723.222499 198.435417 
L 728.29487 197.430113 
L 731.022139 197.126788 
L 733.454098 197.078248 
L 735.903428 197.254047 
L 738.83915 197.701256 
L 745.440181 198.78329 
L 748.115336 198.934852 
L 750.877347 198.86415 
L 754.316831 198.53861 
L 763.245595 197.587563 
L 766.459255 197.541345 
L 769.846627 197.721656 
L 781.763226 198.584308 
L 785.636989 198.462748 
L 799.533897 197.802199 
L 804.328331 197.984288 
L 813.621888 198.381929 
L 814.090909 198.385054 
L 814.090909 198.385054 
" style="fill:none;stroke:#54518f;stroke-linecap:round;stroke-width:2;"/>
   </g>
   <g id="line2d_14">
    <path d="M 66.3 202.110118 
L 849.7 202.110118 
" style="fill:none;stroke:#54518f;stroke-linecap:round;stroke-width:2;"/>
   </g>
   <g id="text_2">
    <!-- v -->
    <defs>
     <path d="M 1.515625 54.6875 
L 19 54.6875 
L 32.625 16.890625 
L 46.1875 54.6875 
L 63.71875 54.6875 
L 42.1875 0 
L 23 0 
z
" id="DejaVuSans-Bold-118"/>
    </defs>
    <g style="fill:#54518f;" transform="translate(66.3 246.56182)scale(0.28 -0.28)">
     <use xlink:href="#DejaVuSans-Bold-118"/>
    </g>
   </g>
  </g>
  <g id="axes_3">
   <g id="patch_4">
    <path d="M 66.3 354.2 
L 849.7 354.2 
L 849.7 248.361074 
L 66.3 248.361074 
z
" style="fill:#eaeaf2;"/>
   </g>
   <g id="matplotlib.axis_5">
    <g id="xtick_11">
     <g id="line2d_15">
      <path clip-path="url(#p1f45d1b95b)" d="M 84.520584 354.2 
L 84.520584 248.361074 
" style="fill:none;stroke:#ffffff;stroke-linecap:round;stroke-width:0.8;"/>
     </g>
     <g id="text_3">
      <!-- 0 -->
      <defs>
       <path d="M 31.78125 66.40625 
Q 24.171875 66.40625 20.328125 58.90625 
Q 16.5 51.421875 16.5 36.375 
Q 16.5 21.390625 20.328125 13.890625 
Q 24.171875 6.390625 31.78125 6.390625 
Q 39.453125 6.390625 43.28125 13.890625 
Q 47.125 21.390625 47.125 36.375 
Q 47.125 51.421875 43.28125 58.90625 
Q 39.453125 66.40625 31.78125 66.40625 
z
M 31.78125 74.21875 
Q 44.046875 74.21875 50.515625 64.515625 
Q 56.984375 54.828125 56.984375 36.375 
Q 56.984375 17.96875 50.515625 8.265625 
Q 44.046875 -1.421875 31.78125 -1.421875 
Q 19.53125 -1.421875 13.0625 8.265625 
Q 6.59375 17.96875 6.59375 36.375 
Q 6.59375 54.828125 13.0625 64.515625 
Q 19.53125 74.21875 31.78125 74.21875 
z
" id="DejaVuSans-48"/>
      </defs>
      <g style="fill:#262626;" transform="translate(75.613084 382.475625)scale(0.28 -0.28)">
       <use xlink:href="#DejaVuSans-48"/>
      </g>
     </g>
    </g>
    <g id="xtick_12">
     <g id="line2d_16">
      <path clip-path="url(#p1f45d1b95b)" d="M 258.23194 354.2 
L 258.23194 248.361074 
" style="fill:none;stroke:#ffffff;stroke-linecap:round;stroke-width:0.8;"/>
     </g>
     <g id="text_4">
      <!-- 10 -->
      <defs>
       <path d="M 12.40625 8.296875 
L 28.515625 8.296875 
L 28.515625 63.921875 
L 10.984375 60.40625 
L 10.984375 69.390625 
L 28.421875 72.90625 
L 38.28125 72.90625 
L 38.28125 8.296875 
L 54.390625 8.296875 
L 54.390625 0 
L 12.40625 0 
z
" id="DejaVuSans-49"/>
      </defs>
      <g style="fill:#262626;" transform="translate(240.41694 382.475625)scale(0.28 -0.28)">
       <use xlink:href="#DejaVuSans-49"/>
       <use x="63.623047" xlink:href="#DejaVuSans-48"/>
      </g>
     </g>
    </g>
    <g id="xtick_13">
     <g id="line2d_17">
      <path clip-path="url(#p1f45d1b95b)" d="M 431.943297 354.2 
L 431.943297 248.361074 
" style="fill:none;stroke:#ffffff;stroke-linecap:round;stroke-width:0.8;"/>
     </g>
     <g id="text_5">
      <!-- 20 -->
      <defs>
       <path d="M 19.1875 8.296875 
L 53.609375 8.296875 
L 53.609375 0 
L 7.328125 0 
L 7.328125 8.296875 
Q 12.9375 14.109375 22.625 23.890625 
Q 32.328125 33.6875 34.8125 36.53125 
Q 39.546875 41.84375 41.421875 45.53125 
Q 43.3125 49.21875 43.3125 52.78125 
Q 43.3125 58.59375 39.234375 62.25 
Q 35.15625 65.921875 28.609375 65.921875 
Q 23.96875 65.921875 18.8125 64.3125 
Q 13.671875 62.703125 7.8125 59.421875 
L 7.8125 69.390625 
Q 13.765625 71.78125 18.9375 73 
Q 24.125 74.21875 28.421875 74.21875 
Q 39.75 74.21875 46.484375 68.546875 
Q 53.21875 62.890625 53.21875 53.421875 
Q 53.21875 48.921875 51.53125 44.890625 
Q 49.859375 40.875 45.40625 35.40625 
Q 44.1875 33.984375 37.640625 27.21875 
Q 31.109375 20.453125 19.1875 8.296875 
z
" id="DejaVuSans-50"/>
      </defs>
      <g style="fill:#262626;" transform="translate(414.128297 382.475625)scale(0.28 -0.28)">
       <use xlink:href="#DejaVuSans-50"/>
       <use x="63.623047" xlink:href="#DejaVuSans-48"/>
      </g>
     </g>
    </g>
    <g id="xtick_14">
     <g id="line2d_18">
      <path clip-path="url(#p1f45d1b95b)" d="M 605.654653 354.2 
L 605.654653 248.361074 
" style="fill:none;stroke:#ffffff;stroke-linecap:round;stroke-width:0.8;"/>
     </g>
     <g id="text_6">
      <!-- 30 -->
      <defs>
       <path d="M 40.578125 39.3125 
Q 47.65625 37.796875 51.625 33 
Q 55.609375 28.21875 55.609375 21.1875 
Q 55.609375 10.40625 48.1875 4.484375 
Q 40.765625 -1.421875 27.09375 -1.421875 
Q 22.515625 -1.421875 17.65625 -0.515625 
Q 12.796875 0.390625 7.625 2.203125 
L 7.625 11.71875 
Q 11.71875 9.328125 16.59375 8.109375 
Q 21.484375 6.890625 26.8125 6.890625 
Q 36.078125 6.890625 40.9375 10.546875 
Q 45.796875 14.203125 45.796875 21.1875 
Q 45.796875 27.640625 41.28125 31.265625 
Q 36.765625 34.90625 28.71875 34.90625 
L 20.21875 34.90625 
L 20.21875 43.015625 
L 29.109375 43.015625 
Q 36.375 43.015625 40.234375 45.921875 
Q 44.09375 48.828125 44.09375 54.296875 
Q 44.09375 59.90625 40.109375 62.90625 
Q 36.140625 65.921875 28.71875 65.921875 
Q 24.65625 65.921875 20.015625 65.03125 
Q 15.375 64.15625 9.8125 62.3125 
L 9.8125 71.09375 
Q 15.4375 72.65625 20.34375 73.4375 
Q 25.25 74.21875 29.59375 74.21875 
Q 40.828125 74.21875 47.359375 69.109375 
Q 53.90625 64.015625 53.90625 55.328125 
Q 53.90625 49.265625 50.4375 45.09375 
Q 46.96875 40.921875 40.578125 39.3125 
z
" id="DejaVuSans-51"/>
      </defs>
      <g style="fill:#262626;" transform="translate(587.839653 382.475625)scale(0.28 -0.28)">
       <use xlink:href="#DejaVuSans-51"/>
       <use x="63.623047" xlink:href="#DejaVuSans-48"/>
      </g>
     </g>
    </g>
    <g id="xtick_15">
     <g id="line2d_19">
      <path clip-path="url(#p1f45d1b95b)" d="M 779.366009 354.2 
L 779.366009 248.361074 
" style="fill:none;stroke:#ffffff;stroke-linecap:round;stroke-width:0.8;"/>
     </g>
     <g id="text_7">
      <!-- 40 -->
      <defs>
       <path d="M 37.796875 64.3125 
L 12.890625 25.390625 
L 37.796875 25.390625 
z
M 35.203125 72.90625 
L 47.609375 72.90625 
L 47.609375 25.390625 
L 58.015625 25.390625 
L 58.015625 17.1875 
L 47.609375 17.1875 
L 47.609375 0 
L 37.796875 0 
L 37.796875 17.1875 
L 4.890625 17.1875 
L 4.890625 26.703125 
z
" id="DejaVuSans-52"/>
      </defs>
      <g style="fill:#262626;" transform="translate(761.551009 382.475625)scale(0.28 -0.28)">
       <use xlink:href="#DejaVuSans-52"/>
       <use x="63.623047" xlink:href="#DejaVuSans-48"/>
      </g>
     </g>
    </g>
    <g id="text_8">
     <!-- time -->
     <defs>
      <path d="M 27.484375 70.21875 
L 27.484375 54.6875 
L 45.515625 54.6875 
L 45.515625 42.1875 
L 27.484375 42.1875 
L 27.484375 19 
Q 27.484375 15.1875 29 13.84375 
Q 30.515625 12.5 35.015625 12.5 
L 44 12.5 
L 44 0 
L 29 0 
Q 18.65625 0 14.328125 4.3125 
Q 10.015625 8.640625 10.015625 19 
L 10.015625 42.1875 
L 1.3125 42.1875 
L 1.3125 54.6875 
L 10.015625 54.6875 
L 10.015625 70.21875 
z
" id="DejaVuSans-Bold-116"/>
      <path d="M 8.40625 54.6875 
L 25.875 54.6875 
L 25.875 0 
L 8.40625 0 
z
M 8.40625 75.984375 
L 25.875 75.984375 
L 25.875 61.71875 
L 8.40625 61.71875 
z
" id="DejaVuSans-Bold-105"/>
      <path d="M 59.078125 45.609375 
Q 62.40625 50.6875 66.96875 53.34375 
Q 71.53125 56 77 56 
Q 86.421875 56 91.359375 50.1875 
Q 96.296875 44.390625 96.296875 33.296875 
L 96.296875 0 
L 78.71875 0 
L 78.71875 28.515625 
Q 78.765625 29.15625 78.78125 29.828125 
Q 78.8125 30.515625 78.8125 31.78125 
Q 78.8125 37.59375 77.09375 40.203125 
Q 75.390625 42.828125 71.578125 42.828125 
Q 66.609375 42.828125 63.890625 38.71875 
Q 61.1875 34.625 61.078125 26.859375 
L 61.078125 0 
L 43.5 0 
L 43.5 28.515625 
Q 43.5 37.59375 41.9375 40.203125 
Q 40.375 42.828125 36.375 42.828125 
Q 31.34375 42.828125 28.609375 38.703125 
Q 25.875 34.578125 25.875 26.90625 
L 25.875 0 
L 8.296875 0 
L 8.296875 54.6875 
L 25.875 54.6875 
L 25.875 46.6875 
Q 29.109375 51.3125 33.28125 53.65625 
Q 37.453125 56 42.484375 56 
Q 48.140625 56 52.484375 53.265625 
Q 56.84375 50.53125 59.078125 45.609375 
z
" id="DejaVuSans-Bold-109"/>
      <path d="M 62.984375 27.484375 
L 62.984375 22.515625 
L 22.125 22.515625 
Q 22.75 16.359375 26.5625 13.28125 
Q 30.375 10.203125 37.203125 10.203125 
Q 42.71875 10.203125 48.5 11.84375 
Q 54.296875 13.484375 60.40625 16.796875 
L 60.40625 3.328125 
Q 54.203125 0.984375 48 -0.21875 
Q 41.796875 -1.421875 35.59375 -1.421875 
Q 20.75 -1.421875 12.515625 6.125 
Q 4.296875 13.671875 4.296875 27.296875 
Q 4.296875 40.671875 12.375 48.328125 
Q 20.453125 56 34.625 56 
Q 47.515625 56 55.25 48.234375 
Q 62.984375 40.484375 62.984375 27.484375 
z
M 45.015625 33.296875 
Q 45.015625 38.28125 42.109375 41.328125 
Q 39.203125 44.390625 34.515625 44.390625 
Q 29.4375 44.390625 26.265625 41.53125 
Q 23.09375 38.671875 22.3125 33.296875 
z
" id="DejaVuSans-Bold-101"/>
     </defs>
     <g style="fill:#262626;" transform="translate(422.424688 413.574375)scale(0.28 -0.28)">
      <use xlink:href="#DejaVuSans-Bold-116"/>
      <use x="47.802734" xlink:href="#DejaVuSans-Bold-105"/>
      <use x="82.080078" xlink:href="#DejaVuSans-Bold-109"/>
      <use x="186.279297" xlink:href="#DejaVuSans-Bold-101"/>
     </g>
    </g>
   </g>
   <g id="matplotlib.axis_6"/>
   <g id="line2d_20">
    <path clip-path="url(#p1f45d1b95b)" d="M 101.909091 322.842795 
L 188.730027 322.842795 
L 188.851625 295.591886 
L 605.637282 295.591886 
L 605.75888 322.842795 
L 814.090909 322.842795 
L 814.090909 322.842795 
" style="fill:none;stroke:#1d132d;stroke-linecap:round;stroke-width:2;"/>
   </g>
   <g id="line2d_21">
    <path d="M 66.3 306.890655 
L 849.7 306.890655 
" style="fill:none;stroke:#1d132d;stroke-linecap:round;stroke-width:2;"/>
   </g>
   <g id="text_9">
    <!-- input -->
    <defs>
     <path d="M 63.375 33.296875 
L 63.375 0 
L 45.796875 0 
L 45.796875 5.421875 
L 45.796875 25.484375 
Q 45.796875 32.5625 45.484375 35.25 
Q 45.171875 37.9375 44.390625 39.203125 
Q 43.359375 40.921875 41.59375 41.875 
Q 39.84375 42.828125 37.59375 42.828125 
Q 32.125 42.828125 29 38.59375 
Q 25.875 34.375 25.875 26.90625 
L 25.875 0 
L 8.40625 0 
L 8.40625 54.6875 
L 25.875 54.6875 
L 25.875 46.6875 
Q 29.828125 51.46875 34.265625 53.734375 
Q 38.71875 56 44.09375 56 
Q 53.5625 56 58.46875 50.1875 
Q 63.375 44.390625 63.375 33.296875 
z
" id="DejaVuSans-Bold-110"/>
     <path d="M 25.875 7.90625 
L 25.875 -20.796875 
L 8.40625 -20.796875 
L 8.40625 54.6875 
L 25.875 54.6875 
L 25.875 46.6875 
Q 29.5 51.46875 33.890625 53.734375 
Q 38.28125 56 44 56 
Q 54.109375 56 60.59375 47.96875 
Q 67.09375 39.9375 67.09375 27.296875 
Q 67.09375 14.65625 60.59375 6.609375 
Q 54.109375 -1.421875 44 -1.421875 
Q 38.28125 -1.421875 33.890625 0.84375 
Q 29.5 3.125 25.875 7.90625 
z
M 37.5 43.3125 
Q 31.890625 43.3125 28.875 39.1875 
Q 25.875 35.0625 25.875 27.296875 
Q 25.875 19.53125 28.875 15.40625 
Q 31.890625 11.28125 37.5 11.28125 
Q 43.109375 11.28125 46.0625 15.375 
Q 49.03125 19.484375 49.03125 27.296875 
Q 49.03125 35.109375 46.0625 39.203125 
Q 43.109375 43.3125 37.5 43.3125 
z
" id="DejaVuSans-Bold-112"/>
     <path d="M 7.8125 21.296875 
L 7.8125 54.6875 
L 25.390625 54.6875 
L 25.390625 49.21875 
Q 25.390625 44.78125 25.34375 38.0625 
Q 25.296875 31.34375 25.296875 29.109375 
Q 25.296875 22.515625 25.640625 19.609375 
Q 25.984375 16.703125 26.8125 15.375 
Q 27.875 13.671875 29.609375 12.734375 
Q 31.34375 11.8125 33.59375 11.8125 
Q 39.0625 11.8125 42.1875 16.015625 
Q 45.3125 20.21875 45.3125 27.6875 
L 45.3125 54.6875 
L 62.796875 54.6875 
L 62.796875 0 
L 45.3125 0 
L 45.3125 7.90625 
Q 41.359375 3.125 36.9375 0.84375 
Q 32.515625 -1.421875 27.203125 -1.421875 
Q 17.71875 -1.421875 12.765625 4.390625 
Q 7.8125 10.203125 7.8125 21.296875 
z
" id="DejaVuSans-Bold-117"/>
    </defs>
    <g style="fill:#1d132d;" transform="translate(66.3 351.342357)scale(0.28 -0.28)">
     <use xlink:href="#DejaVuSans-Bold-105"/>
     <use x="34.277344" xlink:href="#DejaVuSans-Bold-110"/>
     <use x="105.46875" xlink:href="#DejaVuSans-Bold-112"/>
     <use x="177.050781" xlink:href="#DejaVuSans-Bold-117"/>
     <use x="248.242188" xlink:href="#DejaVuSans-Bold-116"/>
    </g>
   </g>
  </g>
 </g>
 <defs>
  <clipPath id="p7f8eda6857">
   <rect height="105.838926" width="783.4" x="66.3" y="38.8"/>
  </clipPath>
  <clipPath id="p855bb37099">
   <rect height="105.838926" width="783.4" x="66.3" y="143.580537"/>
  </clipPath>
  <clipPath id="p1f45d1b95b">
   <rect height="105.838926" width="783.4" x="66.3" y="248.361074"/>
  </clipPath>
 </defs>
</svg>
