<?xml version="1.0" encoding="utf-8" standalone="no"?>
<!DOCTYPE svg PUBLIC "-//W3C//DTD SVG 1.1//EN"
  "http://www.w3.org/Graphics/SVG/1.1/DTD/svg11.dtd">
<!-- Created with matplotlib (https://matplotlib.org/) -->
<svg height="396pt" version="1.1" viewBox="0 0 720 396" width="720pt" xmlns="http://www.w3.org/2000/svg" xmlns:xlink="http://www.w3.org/1999/xlink">
 <defs>
  <style type="text/css">
*{stroke-linecap:butt;stroke-linejoin:round;}
  </style>
 </defs>
 <g id="figure_1">
  <g id="patch_1">
   <path d="M 0 396 
L 720 396 
L 720 0 
L 0 0 
z
" style="fill:#ffffff;"/>
  </g>
  <g id="axes_1">
   <g id="patch_2">
    <path d="M 39.416667 132.585682 
L 708.083333 132.585682 
L 708.083333 35.566667 
L 39.416667 35.566667 
z
" style="fill:#eaeaf2;"/>
   </g>
   <g id="matplotlib.axis_1">
    <g id="xtick_1">
     <g id="line2d_1">
      <path clip-path="url(#p3cbc29ff3e)" d="M 54.968744 132.585682 
L 54.968744 35.566667 
" style="fill:none;stroke:#ffffff;stroke-linecap:round;stroke-width:0.8;"/>
     </g>
    </g>
    <g id="xtick_2">
     <g id="line2d_2">
      <path clip-path="url(#p3cbc29ff3e)" d="M 203.239096 132.585682 
L 203.239096 35.566667 
" style="fill:none;stroke:#ffffff;stroke-linecap:round;stroke-width:0.8;"/>
     </g>
    </g>
    <g id="xtick_3">
     <g id="line2d_3">
      <path clip-path="url(#p3cbc29ff3e)" d="M 351.509447 132.585682 
L 351.509447 35.566667 
" style="fill:none;stroke:#ffffff;stroke-linecap:round;stroke-width:0.8;"/>
     </g>
    </g>
    <g id="xtick_4">
     <g id="line2d_4">
      <path clip-path="url(#p3cbc29ff3e)" d="M 499.779799 132.585682 
L 499.779799 35.566667 
" style="fill:none;stroke:#ffffff;stroke-linecap:round;stroke-width:0.8;"/>
     </g>
    </g>
    <g id="xtick_5">
     <g id="line2d_5">
      <path clip-path="url(#p3cbc29ff3e)" d="M 648.050151 132.585682 
L 648.050151 35.566667 
" style="fill:none;stroke:#ffffff;stroke-linecap:round;stroke-width:0.8;"/>
     </g>
    </g>
   </g>
   <g id="matplotlib.axis_2"/>
   <g id="line2d_6">
    <path clip-path="url(#p3cbc29ff3e)" d="M 69.810606 102.922026 
L 76.616215 102.700013 
L 100.102239 102.275195 
L 121.660748 101.758641 
L 133.492722 101.268456 
L 141.143472 100.743185 
L 144.835404 100.309411 
L 146.00674 99.900481 
L 147.10394 99.283717 
L 148.097352 98.469901 
L 148.986974 97.452959 
L 149.802461 96.175586 
L 150.543813 94.595398 
L 151.240683 92.573808 
L 151.9079 89.917369 
L 152.545462 86.40482 
L 153.168198 81.640009 
L 153.80576 74.900205 
L 154.576766 64.07266 
L 155.421907 52.830126 
L 155.733275 51.069989 
L 155.866718 50.951982 
L 155.881545 50.963621 
L 156.000162 51.23374 
L 156.20774 52.429723 
L 156.533935 55.848823 
L 157.290114 66.948882 
L 158.120428 77.651605 
L 158.802471 83.728008 
L 159.469688 87.799957 
L 160.151731 90.650906 
L 160.848602 92.646987 
L 161.5603 94.037994 
L 162.286824 94.986898 
L 163.028176 95.597498 
L 163.769528 95.929011 
L 164.525707 96.028787 
L 165.296713 95.907209 
L 166.082545 95.55428 
L 166.868378 94.951095 
L 167.639384 94.073558 
L 168.395563 92.868914 
L 169.136915 91.255828 
L 169.863439 89.119049 
L 170.575137 86.30823 
L 171.301662 82.477484 
L 172.072668 77.143013 
L 174.089144 62.310842 
L 174.370858 61.818274 
L 174.533955 61.870961 
L 174.726707 62.251111 
L 175.008421 63.378647 
L 175.453232 66.240433 
L 177.944174 84.233706 
L 178.700352 87.336414 
L 179.441704 89.484634 
L 180.168229 90.949077 
L 180.894754 91.933516 
L 181.591624 92.522854 
L 182.273668 92.820341 
L 182.940884 92.875092 
L 183.608101 92.709633 
L 184.304972 92.300525 
L 185.016669 91.615978 
L 185.758021 90.577537 
L 186.5142 89.111389 
L 187.270379 87.143241 
L 188.056212 84.451145 
L 188.901353 80.717613 
L 190.072688 74.376064 
L 191.036446 69.594839 
L 191.510911 68.197615 
L 191.822278 67.820283 
L 192.044684 67.839859 
L 192.281917 68.125507 
L 192.608111 68.932444 
L 193.082576 70.799646 
L 193.957372 75.362483 
L 195.247324 81.800938 
L 196.122119 85.047228 
L 196.922779 87.209465 
L 197.693784 88.680475 
L 198.420309 89.616511 
L 199.11718 90.170172 
L 199.784396 90.424159 
L 200.421959 90.435312 
L 201.074348 90.2212 
L 201.756392 89.751359 
L 202.46809 88.978462 
L 203.224269 87.810865 
L 204.024928 86.138933 
L 204.884896 83.791402 
L 205.878308 80.375295 
L 208.028228 72.708433 
L 208.51752 71.847644 
L 208.858542 71.629257 
L 209.140256 71.701134 
L 209.451623 72.040084 
L 209.86678 72.87337 
L 210.459862 74.640294 
L 211.883257 79.871966 
L 212.980458 83.381958 
L 213.87008 85.519679 
L 214.685567 86.929391 
L 215.441745 87.816335 
L 216.153443 88.322504 
L 216.82066 88.533458 
L 217.473049 88.507714 
L 218.140266 88.250694 
L 218.837137 87.732547 
L 219.578488 86.893178 
L 220.379148 85.638827 
L 221.26877 83.811975 
L 222.351144 81.034978 
L 224.486237 75.409968 
L 225.064491 74.548745 
L 225.494475 74.265608 
L 225.850324 74.283859 
L 226.221 74.543536 
L 226.680638 75.175241 
L 227.303374 76.460231 
L 228.445055 79.446178 
L 229.868451 82.973772 
L 230.817381 84.75717 
L 231.662522 85.899729 
L 232.433528 86.58863 
L 233.145225 86.943079 
L 233.827269 87.042583 
L 234.509313 86.915719 
L 235.22101 86.546971 
L 235.977189 85.892995 
L 236.807503 84.867083 
L 237.756433 83.320274 
L 239.016731 80.789461 
L 240.736667 77.382769 
L 241.418711 76.505731 
L 241.937657 76.16319 
L 242.382468 76.123662 
L 242.827279 76.320377 
L 243.331399 76.805234 
L 243.998615 77.788781 
L 245.110643 79.900509 
L 246.786098 82.999124 
L 247.779509 84.370608 
L 248.639477 85.198848 
L 249.42531 85.660731 
L 250.166662 85.844578 
L 250.893187 85.794681 
L 251.634538 85.515903 
L 252.420371 84.97727 
L 253.295166 84.098901 
L 254.333059 82.723306 
L 256.230919 79.732231 
L 257.298466 78.298302 
L 257.995336 77.699931 
L 258.558764 77.48412 
L 259.07771 77.517019 
L 259.62631 77.786863 
L 260.2787 78.380078 
L 261.183149 79.543683 
L 264.02994 83.417308 
L 264.993697 84.258906 
L 265.853665 84.722939 
L 266.654325 84.907477 
L 267.440158 84.860249 
L 268.240818 84.587323 
L 269.115613 84.044682 
L 270.109024 83.153489 
L 271.443457 81.624865 
L 273.474761 79.308602 
L 274.290248 78.719716 
L 274.957465 78.495205 
L 275.5802 78.518911 
L 276.23259 78.778447 
L 277.003596 79.346526 
L 278.100796 80.46712 
L 280.458295 82.924725 
L 281.496187 83.659185 
L 282.415463 84.049376 
L 283.290258 84.181789 
L 284.150226 84.086798 
L 285.054676 83.757887 
L 286.062914 83.143672 
L 287.323212 82.096055 
L 290.051386 79.745206 
L 290.911355 79.34284 
L 291.652706 79.23128 
L 292.379231 79.345355 
L 293.179891 79.703524 
L 294.217783 80.433785 
L 297.642828 83.039768 
L 298.680721 83.454645 
L 299.644478 83.605463 
L 300.593408 83.530518 
L 301.601647 83.221924 
L 302.743329 82.629666 
L 304.418784 81.473642 
L 306.227682 80.29645 
L 307.23592 79.904119 
L 308.110715 79.800039 
L 308.970683 79.925381 
L 309.934441 80.301266 
L 311.283701 81.095499 
L 313.774643 82.576967 
L 314.960806 83.002597 
L 316.043179 83.157658 
L 317.110726 83.083902 
L 318.252407 82.774001 
L 319.616495 82.158233 
L 323.204637 80.411544 
L 324.24253 80.236397 
L 325.235941 80.296406 
L 326.318314 80.593214 
L 327.815845 81.262018 
L 330.410576 82.427085 
L 331.700528 82.742989 
L 332.886691 82.808396 
L 334.102508 82.650421 
L 335.496249 82.233145 
L 340.240901 80.5929 
L 341.382582 80.579766 
L 342.598399 80.795948 
L 344.214546 81.333681 
L 347.105818 82.309855 
L 348.514386 82.525117 
L 349.848819 82.504676 
L 351.287042 82.254328 
L 353.273864 81.655911 
L 355.720325 80.962076 
L 357.09924 80.810345 
L 358.433673 80.890896 
L 360.005338 81.224145 
L 364.334833 82.272142 
L 365.84719 82.327442 
L 367.418856 82.158524 
L 369.524295 81.68507 
L 372.296951 81.091908 
L 373.853789 81.000694 
L 375.425455 81.137951 
L 377.634683 81.584022 
L 380.362858 82.086702 
L 382.097621 82.171161 
L 383.876865 82.028954 
L 386.486423 81.560706 
L 388.992192 81.189794 
L 390.741782 81.161253 
L 392.669297 81.364298 
L 397.873586 82.04355 
L 399.830755 81.979648 
L 402.410659 81.647055 
L 405.568817 81.281676 
L 407.570467 81.289776 
L 410.016928 81.543232 
L 413.827476 81.935272 
L 416.036704 81.911264 
L 418.913149 81.63055 
L 422.264059 81.35238 
L 424.577077 81.401568 
L 432.791254 81.828573 
L 441.242664 81.46807 
L 448.967549 81.791798 
L 458.397544 81.541846 
L 464.699034 81.769919 
L 468.924739 81.587872 
L 472.86873 81.505301 
L 477.539246 81.683773 
L 481.527719 81.730703 
L 492.633168 81.626954 
L 497.956074 81.706976 
L 500.402534 81.77569 
L 501.040097 82.136223 
L 501.811103 82.848886 
L 502.908303 84.203963 
L 506.110943 88.321995 
L 507.400895 89.540844 
L 508.631539 90.405948 
L 509.847356 90.994802 
L 511.078 91.348242 
L 512.353125 91.482456 
L 513.657904 91.395962 
L 515.007164 91.083341 
L 516.415732 90.525991 
L 517.913263 89.688398 
L 519.618372 88.466527 
L 524.392677 84.85757 
L 525.415743 84.481198 
L 526.335019 84.375253 
L 527.254295 84.495796 
L 528.262534 84.861453 
L 529.522831 85.572237 
L 534.964353 88.938042 
L 536.461884 89.447658 
L 537.92976 89.715169 
L 539.427291 89.760404 
L 540.969303 89.583254 
L 542.629931 89.164895 
L 544.542618 88.444504 
L 550.577221 85.974084 
L 551.941309 85.7928 
L 553.260915 85.843 
L 554.699137 86.125982 
L 556.596998 86.745941 
L 561.119243 88.297601 
L 563.046758 88.671589 
L 564.88531 88.801864 
L 566.783171 88.709821 
L 568.873783 88.378815 
L 571.705747 87.681863 
L 575.412505 86.799319 
L 577.369674 86.574861 
L 579.208226 86.588614 
L 581.254357 86.834576 
L 584.664575 87.514732 
L 587.882042 88.06171 
L 590.298849 88.243087 
L 592.700828 88.196588 
L 595.473484 87.90976 
L 602.990791 86.999746 
L 605.511387 87.019752 
L 608.565756 87.283259 
L 615.059997 87.901278 
L 618.144021 87.921051 
L 621.74699 87.707871 
L 628.967756 87.228596 
L 632.437283 87.281057 
L 645.129225 87.725715 
L 659.437314 87.422027 
L 670.201741 87.651772 
L 677.689394 87.474884 
L 677.689394 87.474884 
" style="fill:none;stroke:#6daea0;stroke-linecap:round;stroke-width:2;"/>
   </g>
   <g id="line2d_7">
    <path d="M 39.416667 86.222611 
L 708.083333 86.222611 
" style="fill:none;stroke:#6daea0;stroke-linecap:round;stroke-width:2;"/>
   </g>
   <g id="text_1">
    <!-- r -->
    <defs>
     <path d="M 49.03125 39.796875 
Q 46.734375 40.875 44.453125 41.375 
Q 42.1875 41.890625 39.890625 41.890625 
Q 33.15625 41.890625 29.515625 37.5625 
Q 25.875 33.25 25.875 25.203125 
L 25.875 0 
L 8.40625 0 
L 8.40625 54.6875 
L 25.875 54.6875 
L 25.875 45.703125 
Q 29.25 51.078125 33.609375 53.53125 
Q 37.984375 56 44.09375 56 
Q 44.96875 56 45.984375 55.921875 
Q 47.015625 55.859375 48.96875 55.609375 
z
" id="DejaVuSans-Bold-114"/>
    </defs>
    <g style="fill:#6daea0;" transform="translate(39.416667 130.610031)scale(0.28 -0.28)">
     <use xlink:href="#DejaVuSans-Bold-114"/>
    </g>
   </g>
  </g>
  <g id="axes_2">
   <g id="patch_3">
    <path d="M 39.416667 228.634508 
L 708.083333 228.634508 
L 708.083333 131.615492 
L 39.416667 131.615492 
z
" style="fill:#eaeaf2;"/>
   </g>
   <g id="matplotlib.axis_3">
    <g id="xtick_6">
     <g id="line2d_8">
      <path clip-path="url(#peaf9770d68)" d="M 54.968744 228.634508 
L 54.968744 131.615492 
" style="fill:none;stroke:#ffffff;stroke-linecap:round;stroke-width:0.8;"/>
     </g>
    </g>
    <g id="xtick_7">
     <g id="line2d_9">
      <path clip-path="url(#peaf9770d68)" d="M 203.239096 228.634508 
L 203.239096 131.615492 
" style="fill:none;stroke:#ffffff;stroke-linecap:round;stroke-width:0.8;"/>
     </g>
    </g>
    <g id="xtick_8">
     <g id="line2d_10">
      <path clip-path="url(#peaf9770d68)" d="M 351.509447 228.634508 
L 351.509447 131.615492 
" style="fill:none;stroke:#ffffff;stroke-linecap:round;stroke-width:0.8;"/>
     </g>
    </g>
    <g id="xtick_9">
     <g id="line2d_11">
      <path clip-path="url(#peaf9770d68)" d="M 499.779799 228.634508 
L 499.779799 131.615492 
" style="fill:none;stroke:#ffffff;stroke-linecap:round;stroke-width:0.8;"/>
     </g>
    </g>
    <g id="xtick_10">
     <g id="line2d_12">
      <path clip-path="url(#peaf9770d68)" d="M 648.050151 228.634508 
L 648.050151 131.615492 
" style="fill:none;stroke:#ffffff;stroke-linecap:round;stroke-width:0.8;"/>
     </g>
    </g>
   </g>
   <g id="matplotlib.axis_4"/>
   <g id="line2d_13">
    <path clip-path="url(#peaf9770d68)" d="M 69.810606 192.538046 
L 72.850148 192.61825 
L 77.476183 192.495772 
L 86.906178 191.978982 
L 105.89961 190.712823 
L 117.820546 189.71159 
L 126.30161 188.785399 
L 132.810678 187.859149 
L 137.985314 186.905478 
L 142.211019 185.906668 
L 143.930955 185.376029 
L 147.9046 171.62854 
L 149.164898 166.1819 
L 150.276926 160.364075 
L 151.329645 153.639003 
L 152.589943 143.985404 
L 153.538874 137.295348 
L 153.879895 136.116421 
L 154.028166 136.035198 
L 154.042993 136.045319 
L 154.176436 136.306947 
L 154.369188 137.310033 
L 154.621247 139.99939 
L 154.932615 145.977558 
L 155.332945 158.498769 
L 156.044643 189.702954 
L 156.667378 212.662706 
L 157.082535 220.885186 
L 157.40873 223.690521 
L 157.631135 224.220766 
L 157.749752 224.155141 
L 157.927676 223.701167 
L 158.239044 222.157581 
L 158.832125 217.823857 
L 160.893083 202.115527 
L 162.079246 195.09957 
L 163.428506 188.460677 
L 165.415329 179.926624 
L 167.965579 168.826184 
L 169.641034 160.412625 
L 171.301662 152.20738 
L 171.790954 150.780607 
L 172.072668 150.49156 
L 172.250592 150.587804 
L 172.458171 151.035533 
L 172.725057 152.244497 
L 173.051252 154.873043 
L 173.451582 160.072993 
L 173.985355 170.307477 
L 175.601502 203.676697 
L 176.046313 207.876656 
L 176.402162 209.474804 
L 176.669049 209.854496 
L 176.846973 209.797346 
L 177.084206 209.413083 
L 177.440054 208.339207 
L 178.033136 205.736351 
L 179.693764 196.999988 
L 181.443354 188.499297 
L 183.652582 178.984029 
L 188.11552 160.814848 
L 188.708601 159.347119 
L 189.079277 158.910699 
L 189.331337 158.907562 
L 189.553742 159.146301 
L 189.835456 159.828876 
L 190.176478 161.310388 
L 190.591635 164.200515 
L 191.110581 169.525708 
L 191.911241 180.432133 
L 192.96396 194.082501 
L 193.527388 198.704642 
L 193.972199 200.769992 
L 194.328047 201.539443 
L 194.594934 201.689018 
L 194.832167 201.567847 
L 195.143534 201.11408 
L 195.603172 199.98536 
L 196.329697 197.510806 
L 197.886536 191.19853 
L 200.896424 179.199266 
L 203.520809 169.590838 
L 204.603183 166.355186 
L 205.255572 165.016656 
L 205.700383 164.548205 
L 206.011751 164.508497 
L 206.278638 164.702229 
L 206.590005 165.233156 
L 206.960681 166.345058 
L 207.420319 168.509377 
L 207.983747 172.334949 
L 208.843715 179.958904 
L 210.059532 190.397675 
L 210.66744 193.829956 
L 211.156732 195.48071 
L 211.557062 196.150912 
L 211.86843 196.306458 
L 212.164971 196.202548 
L 212.52082 195.808815 
L 213.010112 194.894899 
L 213.721809 193.042233 
L 214.922799 189.202164 
L 219.815721 173.036073 
L 220.883267 170.339191 
L 221.594965 169.081462 
L 222.099084 168.594165 
L 222.46976 168.514136 
L 222.795955 168.675123 
L 223.151804 169.129728 
L 223.566961 170.062904 
L 224.07108 171.806944 
L 224.708642 174.916305 
L 225.731708 181.24894 
L 226.87339 187.904147 
L 227.540606 190.565248 
L 228.074379 191.86072 
L 228.504363 192.388517 
L 228.860212 192.515172 
L 229.216061 192.398569 
L 229.631218 192.004099 
L 230.179818 191.145526 
L 230.950824 189.48273 
L 232.166641 186.261978 
L 236.422 174.603316 
L 237.370931 172.747813 
L 238.052974 171.855355 
L 238.557093 171.522417 
L 238.957423 171.500179 
L 239.342926 171.710202 
L 239.758083 172.214408 
L 240.247375 173.198442 
L 240.840457 174.946799 
L 241.62629 178.037121 
L 243.835518 187.140984 
L 244.47308 188.692412 
L 244.992027 189.43485 
L 245.436838 189.717664 
L 245.837168 189.721049 
L 246.267152 189.494122 
L 246.800925 188.936106 
L 247.497796 187.854155 
L 248.491207 185.85605 
L 250.359413 181.486343 
L 252.361063 177.000882 
L 253.413783 175.14547 
L 254.184788 174.199015 
L 254.77787 173.797768 
L 255.252335 173.726306 
L 255.697146 173.887685 
L 256.156784 174.304891 
L 256.690557 175.11809 
L 257.32812 176.529808 
L 258.202915 179.075654 
L 260.308354 185.41403 
L 261.005225 186.742635 
L 261.583479 187.404958 
L 262.072771 187.657685 
L 262.547236 187.654863 
L 263.051355 187.416423 
L 263.659264 186.859702 
L 264.445097 185.80649 
L 265.557124 183.903251 
L 269.426981 176.965804 
L 270.286949 175.99419 
L 270.954165 175.547848 
L 271.517593 175.426732 
L 272.021712 175.54218 
L 272.540658 175.896248 
L 273.118912 176.573728 
L 273.815783 177.754549 
L 274.794367 179.901611 
L 276.721882 184.188226 
L 277.492888 185.332265 
L 278.115623 185.892548 
L 278.67905 186.114164 
L 279.212824 186.089828 
L 279.791078 185.83539 
L 280.487949 185.266409 
L 281.377571 184.227685 
L 282.726831 182.263012 
L 285.306735 178.481102 
L 286.300147 177.432282 
L 287.071152 176.917145 
L 287.723542 176.736948 
L 288.316623 176.803689 
L 288.909705 177.102743 
L 289.562094 177.696511 
L 290.347927 178.736962 
L 291.53409 180.737032 
L 293.13541 183.361523 
L 293.965724 184.306528 
L 294.662594 184.779733 
L 295.28533 184.945114 
L 295.908065 184.880695 
L 296.590109 184.577434 
L 297.405596 183.955524 
L 298.487969 182.8261 
L 302.446788 178.425747 
L 303.306756 177.922196 
L 304.033281 177.741053 
L 304.700497 177.797385 
L 305.382541 178.084303 
L 306.13872 178.660729 
L 307.072823 179.678403 
L 310.275462 183.435869 
L 311.061295 183.885783 
L 311.772993 184.045314 
L 312.484691 183.977512 
L 313.270524 183.66943 
L 314.204627 183.050564 
L 315.524233 181.881258 
L 318.282061 179.386127 
L 319.305127 178.787384 
L 320.150268 178.535797 
L 320.921274 178.530869 
L 321.69228 178.750798 
L 322.537421 179.23566 
L 323.59014 180.119249 
L 326.600028 182.812705 
L 327.48965 183.223977 
L 328.305137 183.359512 
L 329.120624 183.269594 
L 330.025073 182.939946 
L 331.151928 182.275598 
L 333.301848 180.676448 
L 334.84386 179.678844 
L 335.911406 179.242361 
L 336.830682 179.099669 
L 337.705478 179.18845 
L 338.624754 179.513622 
L 339.707127 180.148084 
L 343.488021 182.595013 
L 344.436951 182.812308 
L 345.356228 182.796812 
L 346.349639 182.553168 
L 347.565456 182.009969 
L 352.206318 179.683921 
L 353.24421 179.555469 
L 354.237622 179.654889 
L 355.305168 179.991389 
L 356.684083 180.681647 
L 359.382603 182.072738 
L 360.509458 182.369392 
L 361.562177 182.418588 
L 362.674205 182.241582 
L 363.993811 181.794081 
L 368.679154 179.989904 
L 369.85049 179.909613 
L 371.006998 180.057999 
L 372.311778 180.459795 
L 376.804369 182.054678 
L 378.005359 182.108866 
L 379.265657 181.939797 
L 380.837323 181.489622 
L 384.662698 180.302527 
L 386.011958 180.177569 
L 387.316737 180.281319 
L 388.814268 180.635458 
L 393.188243 181.825808 
L 394.567157 181.865452 
L 396.035034 181.678702 
L 398.081165 181.167942 
L 400.838993 180.51307 
L 402.395832 180.38588 
L 403.893362 180.490437 
L 405.702261 180.855489 
L 409.275576 181.621356 
L 410.862069 181.688633 
L 412.522697 181.529776 
L 415.05812 181.025201 
L 417.549062 180.609759 
L 419.268998 180.553721 
L 421.048242 180.726109 
L 427.216289 181.549701 
L 429.114149 181.404226 
L 435.71218 180.676788 
L 437.773138 180.848129 
L 443.303622 181.44339 
L 445.423888 181.339307 
L 452.481557 180.781634 
L 455.031807 180.993234 
L 459.227858 181.353878 
L 461.600183 181.295974 
L 469.547474 180.87801 
L 473.595255 181.195543 
L 476.501354 181.294145 
L 479.466761 181.152885 
L 484.478299 180.89397 
L 487.547495 181.010554 
L 492.914882 181.245078 
L 496.384408 181.106717 
L 499.779799 180.99396 
L 501.351465 185.423313 
L 502.22626 187.243197 
L 502.952784 188.278438 
L 503.605174 188.844484 
L 504.213082 189.09374 
L 504.835818 189.112825 
L 505.532689 188.906109 
L 506.392657 188.404029 
L 507.549165 187.449646 
L 509.461853 185.538812 
L 514.72545 180.192101 
L 516.830889 178.389282 
L 518.343247 177.369129 
L 519.514583 176.834442 
L 520.47834 176.626871 
L 521.338308 176.662567 
L 522.153795 176.917878 
L 522.984109 177.415151 
L 523.903385 178.240078 
L 525.015413 179.561712 
L 528.92975 184.518144 
L 529.87868 185.206543 
L 530.768302 185.58181 
L 531.643098 185.712328 
L 532.592028 185.623607 
L 533.674401 185.2903 
L 535.038489 184.621726 
L 537.025311 183.371665 
L 542.022022 180.142382 
L 543.712304 179.356272 
L 545.091218 178.949614 
L 546.307035 178.816799 
L 547.448717 178.914866 
L 548.590399 179.239573 
L 549.83587 179.834508 
L 551.437189 180.868498 
L 554.669483 183.005527 
L 555.989089 183.57323 
L 557.204906 183.858669 
L 558.43555 183.91882 
L 559.78481 183.755586 
L 561.38613 183.32642 
L 563.639839 182.468888 
L 568.221393 180.688492 
L 570.074773 180.235507 
L 571.69092 180.066323 
L 573.218104 180.130601 
L 574.78977 180.422304 
L 576.68763 181.015471 
L 581.536071 182.643108 
L 583.226353 182.90005 
L 584.901808 182.929172 
L 586.770014 182.732021 
L 589.201648 182.233627 
L 594.999019 180.964815 
L 597.148939 180.777539 
L 599.180243 180.82577 
L 601.404298 181.110373 
L 609.485032 182.383902 
L 611.783223 182.350857 
L 614.555878 182.074888 
L 622.132493 181.198394 
L 624.816187 181.197206 
L 627.855729 181.430306 
L 635.046841 182.074686 
L 638.116037 182.048907 
L 642.25278 181.765016 
L 647.798091 181.417064 
L 651.371407 181.434665 
L 656.442253 181.719063 
L 661.394482 181.914702 
L 665.635014 181.843171 
L 676.547712 181.536857 
L 677.689394 181.558074 
L 677.689394 181.558074 
" style="fill:none;stroke:#3b7973;stroke-linecap:round;stroke-width:2;"/>
   </g>
   <g id="line2d_14">
    <path d="M 39.416667 182.271437 
L 708.083333 182.271437 
" style="fill:none;stroke:#3b7973;stroke-linecap:round;stroke-width:2;"/>
   </g>
   <g id="text_2">
    <!-- v -->
    <defs>
     <path d="M 1.515625 54.6875 
L 19 54.6875 
L 32.625 16.890625 
L 46.1875 54.6875 
L 63.71875 54.6875 
L 42.1875 0 
L 23 0 
z
" id="DejaVuSans-Bold-118"/>
    </defs>
    <g style="fill:#3b7973;" transform="translate(39.416667 226.658856)scale(0.28 -0.28)">
     <use xlink:href="#DejaVuSans-Bold-118"/>
    </g>
   </g>
  </g>
  <g id="axes_3">
   <g id="patch_4">
    <path d="M 39.416667 324.683333 
L 708.083333 324.683333 
L 708.083333 227.664318 
L 39.416667 227.664318 
z
" style="fill:#eaeaf2;"/>
   </g>
   <g id="matplotlib.axis_5">
    <g id="xtick_11">
     <g id="line2d_15">
      <path clip-path="url(#pd41681f37a)" d="M 54.968744 324.683333 
L 54.968744 227.664318 
" style="fill:none;stroke:#ffffff;stroke-linecap:round;stroke-width:0.8;"/>
     </g>
     <g id="text_3">
      <!-- 0 -->
      <defs>
       <path d="M 31.78125 66.40625 
Q 24.171875 66.40625 20.328125 58.90625 
Q 16.5 51.421875 16.5 36.375 
Q 16.5 21.390625 20.328125 13.890625 
Q 24.171875 6.390625 31.78125 6.390625 
Q 39.453125 6.390625 43.28125 13.890625 
Q 47.125 21.390625 47.125 36.375 
Q 47.125 51.421875 43.28125 58.90625 
Q 39.453125 66.40625 31.78125 66.40625 
z
M 31.78125 74.21875 
Q 44.046875 74.21875 50.515625 64.515625 
Q 56.984375 54.828125 56.984375 36.375 
Q 56.984375 17.96875 50.515625 8.265625 
Q 44.046875 -1.421875 31.78125 -1.421875 
Q 19.53125 -1.421875 13.0625 8.265625 
Q 6.59375 17.96875 6.59375 36.375 
Q 6.59375 54.828125 13.0625 64.515625 
Q 19.53125 74.21875 31.78125 74.21875 
z
" id="DejaVuSans-48"/>
      </defs>
      <g style="fill:#262626;" transform="translate(46.061244 352.958958)scale(0.28 -0.28)">
       <use xlink:href="#DejaVuSans-48"/>
      </g>
     </g>
    </g>
    <g id="xtick_12">
     <g id="line2d_16">
      <path clip-path="url(#pd41681f37a)" d="M 203.239096 324.683333 
L 203.239096 227.664318 
" style="fill:none;stroke:#ffffff;stroke-linecap:round;stroke-width:0.8;"/>
     </g>
     <g id="text_4">
      <!-- 10 -->
      <defs>
       <path d="M 12.40625 8.296875 
L 28.515625 8.296875 
L 28.515625 63.921875 
L 10.984375 60.40625 
L 10.984375 69.390625 
L 28.421875 72.90625 
L 38.28125 72.90625 
L 38.28125 8.296875 
L 54.390625 8.296875 
L 54.390625 0 
L 12.40625 0 
z
" id="DejaVuSans-49"/>
      </defs>
      <g style="fill:#262626;" transform="translate(185.424096 352.958958)scale(0.28 -0.28)">
       <use xlink:href="#DejaVuSans-49"/>
       <use x="63.623047" xlink:href="#DejaVuSans-48"/>
      </g>
     </g>
    </g>
    <g id="xtick_13">
     <g id="line2d_17">
      <path clip-path="url(#pd41681f37a)" d="M 351.509447 324.683333 
L 351.509447 227.664318 
" style="fill:none;stroke:#ffffff;stroke-linecap:round;stroke-width:0.8;"/>
     </g>
     <g id="text_5">
      <!-- 20 -->
      <defs>
       <path d="M 19.1875 8.296875 
L 53.609375 8.296875 
L 53.609375 0 
L 7.328125 0 
L 7.328125 8.296875 
Q 12.9375 14.109375 22.625 23.890625 
Q 32.328125 33.6875 34.8125 36.53125 
Q 39.546875 41.84375 41.421875 45.53125 
Q 43.3125 49.21875 43.3125 52.78125 
Q 43.3125 58.59375 39.234375 62.25 
Q 35.15625 65.921875 28.609375 65.921875 
Q 23.96875 65.921875 18.8125 64.3125 
Q 13.671875 62.703125 7.8125 59.421875 
L 7.8125 69.390625 
Q 13.765625 71.78125 18.9375 73 
Q 24.125 74.21875 28.421875 74.21875 
Q 39.75 74.21875 46.484375 68.546875 
Q 53.21875 62.890625 53.21875 53.421875 
Q 53.21875 48.921875 51.53125 44.890625 
Q 49.859375 40.875 45.40625 35.40625 
Q 44.1875 33.984375 37.640625 27.21875 
Q 31.109375 20.453125 19.1875 8.296875 
z
" id="DejaVuSans-50"/>
      </defs>
      <g style="fill:#262626;" transform="translate(333.694447 352.958958)scale(0.28 -0.28)">
       <use xlink:href="#DejaVuSans-50"/>
       <use x="63.623047" xlink:href="#DejaVuSans-48"/>
      </g>
     </g>
    </g>
    <g id="xtick_14">
     <g id="line2d_18">
      <path clip-path="url(#pd41681f37a)" d="M 499.779799 324.683333 
L 499.779799 227.664318 
" style="fill:none;stroke:#ffffff;stroke-linecap:round;stroke-width:0.8;"/>
     </g>
     <g id="text_6">
      <!-- 30 -->
      <defs>
       <path d="M 40.578125 39.3125 
Q 47.65625 37.796875 51.625 33 
Q 55.609375 28.21875 55.609375 21.1875 
Q 55.609375 10.40625 48.1875 4.484375 
Q 40.765625 -1.421875 27.09375 -1.421875 
Q 22.515625 -1.421875 17.65625 -0.515625 
Q 12.796875 0.390625 7.625 2.203125 
L 7.625 11.71875 
Q 11.71875 9.328125 16.59375 8.109375 
Q 21.484375 6.890625 26.8125 6.890625 
Q 36.078125 6.890625 40.9375 10.546875 
Q 45.796875 14.203125 45.796875 21.1875 
Q 45.796875 27.640625 41.28125 31.265625 
Q 36.765625 34.90625 28.71875 34.90625 
L 20.21875 34.90625 
L 20.21875 43.015625 
L 29.109375 43.015625 
Q 36.375 43.015625 40.234375 45.921875 
Q 44.09375 48.828125 44.09375 54.296875 
Q 44.09375 59.90625 40.109375 62.90625 
Q 36.140625 65.921875 28.71875 65.921875 
Q 24.65625 65.921875 20.015625 65.03125 
Q 15.375 64.15625 9.8125 62.3125 
L 9.8125 71.09375 
Q 15.4375 72.65625 20.34375 73.4375 
Q 25.25 74.21875 29.59375 74.21875 
Q 40.828125 74.21875 47.359375 69.109375 
Q 53.90625 64.015625 53.90625 55.328125 
Q 53.90625 49.265625 50.4375 45.09375 
Q 46.96875 40.921875 40.578125 39.3125 
z
" id="DejaVuSans-51"/>
      </defs>
      <g style="fill:#262626;" transform="translate(481.964799 352.958958)scale(0.28 -0.28)">
       <use xlink:href="#DejaVuSans-51"/>
       <use x="63.623047" xlink:href="#DejaVuSans-48"/>
      </g>
     </g>
    </g>
    <g id="xtick_15">
     <g id="line2d_19">
      <path clip-path="url(#pd41681f37a)" d="M 648.050151 324.683333 
L 648.050151 227.664318 
" style="fill:none;stroke:#ffffff;stroke-linecap:round;stroke-width:0.8;"/>
     </g>
     <g id="text_7">
      <!-- 40 -->
      <defs>
       <path d="M 37.796875 64.3125 
L 12.890625 25.390625 
L 37.796875 25.390625 
z
M 35.203125 72.90625 
L 47.609375 72.90625 
L 47.609375 25.390625 
L 58.015625 25.390625 
L 58.015625 17.1875 
L 47.609375 17.1875 
L 47.609375 0 
L 37.796875 0 
L 37.796875 17.1875 
L 4.890625 17.1875 
L 4.890625 26.703125 
z
" id="DejaVuSans-52"/>
      </defs>
      <g style="fill:#262626;" transform="translate(630.235151 352.958958)scale(0.28 -0.28)">
       <use xlink:href="#DejaVuSans-52"/>
       <use x="63.623047" xlink:href="#DejaVuSans-48"/>
      </g>
     </g>
    </g>
    <g id="text_8">
     <!-- time in s -->
     <defs>
      <path d="M 27.484375 70.21875 
L 27.484375 54.6875 
L 45.515625 54.6875 
L 45.515625 42.1875 
L 27.484375 42.1875 
L 27.484375 19 
Q 27.484375 15.1875 29 13.84375 
Q 30.515625 12.5 35.015625 12.5 
L 44 12.5 
L 44 0 
L 29 0 
Q 18.65625 0 14.328125 4.3125 
Q 10.015625 8.640625 10.015625 19 
L 10.015625 42.1875 
L 1.3125 42.1875 
L 1.3125 54.6875 
L 10.015625 54.6875 
L 10.015625 70.21875 
z
" id="DejaVuSans-Bold-116"/>
      <path d="M 8.40625 54.6875 
L 25.875 54.6875 
L 25.875 0 
L 8.40625 0 
z
M 8.40625 75.984375 
L 25.875 75.984375 
L 25.875 61.71875 
L 8.40625 61.71875 
z
" id="DejaVuSans-Bold-105"/>
      <path d="M 59.078125 45.609375 
Q 62.40625 50.6875 66.96875 53.34375 
Q 71.53125 56 77 56 
Q 86.421875 56 91.359375 50.1875 
Q 96.296875 44.390625 96.296875 33.296875 
L 96.296875 0 
L 78.71875 0 
L 78.71875 28.515625 
Q 78.765625 29.15625 78.78125 29.828125 
Q 78.8125 30.515625 78.8125 31.78125 
Q 78.8125 37.59375 77.09375 40.203125 
Q 75.390625 42.828125 71.578125 42.828125 
Q 66.609375 42.828125 63.890625 38.71875 
Q 61.1875 34.625 61.078125 26.859375 
L 61.078125 0 
L 43.5 0 
L 43.5 28.515625 
Q 43.5 37.59375 41.9375 40.203125 
Q 40.375 42.828125 36.375 42.828125 
Q 31.34375 42.828125 28.609375 38.703125 
Q 25.875 34.578125 25.875 26.90625 
L 25.875 0 
L 8.296875 0 
L 8.296875 54.6875 
L 25.875 54.6875 
L 25.875 46.6875 
Q 29.109375 51.3125 33.28125 53.65625 
Q 37.453125 56 42.484375 56 
Q 48.140625 56 52.484375 53.265625 
Q 56.84375 50.53125 59.078125 45.609375 
z
" id="DejaVuSans-Bold-109"/>
      <path d="M 62.984375 27.484375 
L 62.984375 22.515625 
L 22.125 22.515625 
Q 22.75 16.359375 26.5625 13.28125 
Q 30.375 10.203125 37.203125 10.203125 
Q 42.71875 10.203125 48.5 11.84375 
Q 54.296875 13.484375 60.40625 16.796875 
L 60.40625 3.328125 
Q 54.203125 0.984375 48 -0.21875 
Q 41.796875 -1.421875 35.59375 -1.421875 
Q 20.75 -1.421875 12.515625 6.125 
Q 4.296875 13.671875 4.296875 27.296875 
Q 4.296875 40.671875 12.375 48.328125 
Q 20.453125 56 34.625 56 
Q 47.515625 56 55.25 48.234375 
Q 62.984375 40.484375 62.984375 27.484375 
z
M 45.015625 33.296875 
Q 45.015625 38.28125 42.109375 41.328125 
Q 39.203125 44.390625 34.515625 44.390625 
Q 29.4375 44.390625 26.265625 41.53125 
Q 23.09375 38.671875 22.3125 33.296875 
z
" id="DejaVuSans-Bold-101"/>
      <path id="DejaVuSans-Bold-32"/>
      <path d="M 63.375 33.296875 
L 63.375 0 
L 45.796875 0 
L 45.796875 5.421875 
L 45.796875 25.484375 
Q 45.796875 32.5625 45.484375 35.25 
Q 45.171875 37.9375 44.390625 39.203125 
Q 43.359375 40.921875 41.59375 41.875 
Q 39.84375 42.828125 37.59375 42.828125 
Q 32.125 42.828125 29 38.59375 
Q 25.875 34.375 25.875 26.90625 
L 25.875 0 
L 8.40625 0 
L 8.40625 54.6875 
L 25.875 54.6875 
L 25.875 46.6875 
Q 29.828125 51.46875 34.265625 53.734375 
Q 38.71875 56 44.09375 56 
Q 53.5625 56 58.46875 50.1875 
Q 63.375 44.390625 63.375 33.296875 
z
" id="DejaVuSans-Bold-110"/>
      <path d="M 51.125 52.984375 
L 51.125 39.703125 
Q 45.515625 42.046875 40.28125 43.21875 
Q 35.0625 44.390625 30.421875 44.390625 
Q 25.4375 44.390625 23.015625 43.140625 
Q 20.609375 41.890625 20.609375 39.3125 
Q 20.609375 37.203125 22.4375 36.078125 
Q 24.265625 34.96875 29 34.421875 
L 32.078125 33.984375 
Q 45.515625 32.28125 50.140625 28.375 
Q 54.78125 24.46875 54.78125 16.109375 
Q 54.78125 7.375 48.328125 2.96875 
Q 41.890625 -1.421875 29.109375 -1.421875 
Q 23.6875 -1.421875 17.890625 -0.5625 
Q 12.109375 0.296875 6 2 
L 6 15.28125 
Q 11.234375 12.75 16.71875 11.46875 
Q 22.21875 10.203125 27.875 10.203125 
Q 33.015625 10.203125 35.59375 11.609375 
Q 38.1875 13.03125 38.1875 15.828125 
Q 38.1875 18.171875 36.40625 19.3125 
Q 34.625 20.453125 29.296875 21.09375 
L 26.21875 21.484375 
Q 14.546875 22.953125 9.859375 26.90625 
Q 5.171875 30.859375 5.171875 38.921875 
Q 5.171875 47.609375 11.125 51.796875 
Q 17.09375 56 29.390625 56 
Q 34.234375 56 39.546875 55.265625 
Q 44.875 54.546875 51.125 52.984375 
z
" id="DejaVuSans-Bold-115"/>
     </defs>
     <g style="fill:#262626;" transform="translate(305.329375 384.057708)scale(0.28 -0.28)">
      <use xlink:href="#DejaVuSans-Bold-116"/>
      <use x="47.802734" xlink:href="#DejaVuSans-Bold-105"/>
      <use x="82.080078" xlink:href="#DejaVuSans-Bold-109"/>
      <use x="186.279297" xlink:href="#DejaVuSans-Bold-101"/>
      <use x="254.101562" xlink:href="#DejaVuSans-Bold-32"/>
      <use x="288.916016" xlink:href="#DejaVuSans-Bold-105"/>
      <use x="323.193359" xlink:href="#DejaVuSans-Bold-110"/>
      <use x="394.384766" xlink:href="#DejaVuSans-Bold-32"/>
      <use x="429.199219" xlink:href="#DejaVuSans-Bold-115"/>
     </g>
    </g>
   </g>
   <g id="matplotlib.axis_6"/>
   <g id="line2d_20">
    <path clip-path="url(#pd41681f37a)" d="M 69.810606 287.289036 
L 143.916128 287.289036 
L 144.034744 271.967755 
L 499.764972 271.967755 
L 499.883588 287.289036 
L 677.689394 287.289036 
L 677.689394 287.289036 
" style="fill:none;stroke:#173f3f;stroke-linecap:round;stroke-width:2;"/>
   </g>
   <g id="line2d_21">
    <path d="M 39.416667 278.320262 
L 708.083333 278.320262 
" style="fill:none;stroke:#173f3f;stroke-linecap:round;stroke-width:2;"/>
   </g>
   <g id="text_9">
    <!-- input -->
    <defs>
     <path d="M 25.875 7.90625 
L 25.875 -20.796875 
L 8.40625 -20.796875 
L 8.40625 54.6875 
L 25.875 54.6875 
L 25.875 46.6875 
Q 29.5 51.46875 33.890625 53.734375 
Q 38.28125 56 44 56 
Q 54.109375 56 60.59375 47.96875 
Q 67.09375 39.9375 67.09375 27.296875 
Q 67.09375 14.65625 60.59375 6.609375 
Q 54.109375 -1.421875 44 -1.421875 
Q 38.28125 -1.421875 33.890625 0.84375 
Q 29.5 3.125 25.875 7.90625 
z
M 37.5 43.3125 
Q 31.890625 43.3125 28.875 39.1875 
Q 25.875 35.0625 25.875 27.296875 
Q 25.875 19.53125 28.875 15.40625 
Q 31.890625 11.28125 37.5 11.28125 
Q 43.109375 11.28125 46.0625 15.375 
Q 49.03125 19.484375 49.03125 27.296875 
Q 49.03125 35.109375 46.0625 39.203125 
Q 43.109375 43.3125 37.5 43.3125 
z
" id="DejaVuSans-Bold-112"/>
     <path d="M 7.8125 21.296875 
L 7.8125 54.6875 
L 25.390625 54.6875 
L 25.390625 49.21875 
Q 25.390625 44.78125 25.34375 38.0625 
Q 25.296875 31.34375 25.296875 29.109375 
Q 25.296875 22.515625 25.640625 19.609375 
Q 25.984375 16.703125 26.8125 15.375 
Q 27.875 13.671875 29.609375 12.734375 
Q 31.34375 11.8125 33.59375 11.8125 
Q 39.0625 11.8125 42.1875 16.015625 
Q 45.3125 20.21875 45.3125 27.6875 
L 45.3125 54.6875 
L 62.796875 54.6875 
L 62.796875 0 
L 45.3125 0 
L 45.3125 7.90625 
Q 41.359375 3.125 36.9375 0.84375 
Q 32.515625 -1.421875 27.203125 -1.421875 
Q 17.71875 -1.421875 12.765625 4.390625 
Q 7.8125 10.203125 7.8125 21.296875 
z
" id="DejaVuSans-Bold-117"/>
    </defs>
    <g style="fill:#173f3f;" transform="translate(39.416667 322.707682)scale(0.28 -0.28)">
     <use xlink:href="#DejaVuSans-Bold-105"/>
     <use x="34.277344" xlink:href="#DejaVuSans-Bold-110"/>
     <use x="105.46875" xlink:href="#DejaVuSans-Bold-112"/>
     <use x="177.050781" xlink:href="#DejaVuSans-Bold-117"/>
     <use x="248.242188" xlink:href="#DejaVuSans-Bold-116"/>
    </g>
   </g>
  </g>
 </g>
 <defs>
  <clipPath id="p3cbc29ff3e">
   <rect height="97.019016" width="668.666667" x="39.416667" y="35.566667"/>
  </clipPath>
  <clipPath id="peaf9770d68">
   <rect height="97.019016" width="668.666667" x="39.416667" y="131.615492"/>
  </clipPath>
  <clipPath id="pd41681f37a">
   <rect height="97.019016" width="668.666667" x="39.416667" y="227.664318"/>
  </clipPath>
 </defs>
</svg>
